<svg xmlns="http://www.w3.org/2000/svg" viewBox="0 0 32 32" width="512" height="512" shape-rendering="crispEdges">
<rect width="32" height="32" fill="#000000"/>
<rect x="14" y="2" width="4" height="1" fill="#ffffff"/>
<rect x="22" y="2" width="4" height="1" fill="#ffffff"/>
<rect x="5" y="3" width="3" height="1" fill="#ffffff"/>
<rect x="14" y="3" width="4" height="1" fill="#ffffff"/>
<rect x="22" y="3" width="4" height="1" fill="#ffffff"/>
<rect x="4" y="4" width="6" height="1" fill="#ffffff"/>
<rect x="14" y="4" width="4" height="1" fill="#ffffff"/>
<rect x="22" y="4" width="4" height="1" fill="#ffffff"/>
<rect x="5" y="5" width="6" height="1" fill="#ffffff"/>
<rect x="14" y="5" width="4" height="1" fill="#ffffff"/>
<rect x="22" y="5" width="4" height="1" fill="#ffffff"/>
<rect x="6" y="6" width="5" height="1" fill="#ffffff"/>
<rect x="14" y="6" width="4" height="1" fill="#ffffff"/>
<rect x="22" y="6" width="4" height="1" fill="#ffffff"/>
<rect x="8" y="7" width="2" height="1" fill="#ffffff"/>
<rect x="14" y="7" width="4" height="1" fill="#ffffff"/>
<rect x="22" y="7" width="4" height="1" fill="#ffffff"/>
<rect x="11" y="8" width="19" height="1" fill="#ffffff"/>
<rect x="11" y="9" width="19" height="1" fill="#ffffff"/>
<rect x="11" y="10" width="19" height="1" fill="#ffffff"/>
<rect x="3" y="11" width="3" height="1" fill="#ffffff"/>
<rect x="14" y="11" width="4" height="1" fill="#ffffff"/>
<rect x="22" y="11" width="4" height="1" fill="#ffffff"/>
<rect x="2" y="12" width="6" height="1" fill="#ffffff"/>
<rect x="14" y="12" width="4" height="1" fill="#ffffff"/>
<rect x="22" y="12" width="4" height="1" fill="#ffffff"/>
<rect x="3" y="13" width="6" height="1" fill="#ffffff"/>
<rect x="14" y="13" width="4" height="1" fill="#ffffff"/>
<rect x="22" y="13" width="4" height="1" fill="#ffffff"/>
<rect x="5" y="14" width="4" height="1" fill="#ffffff"/>
<rect x="14" y="14" width="4" height="1" fill="#ffffff"/>
<rect x="22" y="14" width="4" height="1" fill="#ffffff"/>
<rect x="6" y="15" width="2" height="1" fill="#ffffff"/>
<rect x="14" y="15" width="4" height="1" fill="#ffffff"/>
<rect x="22" y="15" width="4" height="1" fill="#ffffff"/>
<rect x="14" y="16" width="4" height="1" fill="#ffffff"/>
<rect x="22" y="16" width="4" height="1" fill="#ffffff"/>
<rect x="10" y="17" width="20" height="1" fill="#ffffff"/>
<rect x="8" y="18" width="1" height="1" fill="#ffffff"/>
<rect x="10" y="18" width="20" height="1" fill="#ffffff"/>
<rect x="8" y="19" width="22" height="1" fill="#ffffff"/>
<rect x="7" y="20" width="23" height="1" fill="#ffffff"/>
<rect x="7" y="21" width="4" height="1" fill="#ffffff"/>
<rect x="6" y="22" width="4" height="1" fill="#ffffff"/>
<rect x="15" y="22" width="2" height="1" fill="#ffffff"/>
<rect x="24" y="22" width="1" height="1" fill="#ffffff"/>
<rect x="6" y="23" width="4" height="1" fill="#ffffff"/>
<rect x="14" y="23" width="4" height="1" fill="#ffffff"/>
<rect x="22" y="23" width="4" height="1" fill="#ffffff"/>
<rect x="5" y="24" width="4" height="1" fill="#ffffff"/>
<rect x="13" y="24" width="4" height="1" fill="#ffffff"/>
<rect x="23" y="24" width="4" height="1" fill="#ffffff"/>
<rect x="4" y="25" width="5" height="1" fill="#ffffff"/>
<rect x="12" y="25" width="5" height="1" fill="#ffffff"/>
<rect x="24" y="25" width="4" height="1" fill="#ffffff"/>
<rect x="4" y="26" width="4" height="1" fill="#ffffff"/>
<rect x="11" y="26" width="5" height="1" fill="#ffffff"/>
<rect x="24" y="26" width="5" height="1" fill="#ffffff"/>
<rect x="3" y="27" width="4" height="1" fill="#ffffff"/>
<rect x="10" y="27" width="5" height="1" fill="#ffffff"/>
<rect x="25" y="27" width="5" height="1" fill="#ffffff"/>
<rect x="5" y="28" width="2" height="1" fill="#ffffff"/>
<rect x="11" y="28" width="3" height="1" fill="#ffffff"/>
<rect x="26" y="28" width="3" height="1" fill="#ffffff"/>
<rect x="12" y="29" width="1" height="1" fill="#ffffff"/>
<rect x="27" y="29" width="1" height="1" fill="#ffffff"/>
</svg>