<svg xmlns="http://www.w3.org/2000/svg" viewBox="0 0 822 170" width="822" height="170">
<svg x="16" y="16" width="120" height="120" viewBox="0 0 120 120" preserveAspectRatio="xMidYMid slice" role="img" aria-label="Lio app icon — shadow silhouette on lavender"><defs><linearGradient id="_b0_0_-bg" x1="0" y1="0" x2="0" y2="1"><stop offset="0" stop-color="#d9d2f7"></stop><stop offset="1" stop-color="#a89ae8"></stop></linearGradient><clipPath id="_b0_0_-tile"><rect width="120" height="120" rx="32"></rect></clipPath><clipPath id="_b0_0_-eye"><circle cx="31.00935" cy="158.27187" r="11.7"></circle></clipPath><filter id="_b0_0_-goo" x="-10%" y="-10%" width="120%" height="120%"><feGaussianBlur stdDeviation="0.45"></feGaussianBlur></filter></defs><rect width="120" height="120" rx="32" fill="url(#_b0_0_-bg)"></rect><g clip-path="url(#_b0_0_-tile)"><g transform="translate(20.55 -149.14) scale(1.3)"><g class="bird-emote"><g style="transform-box:fill-box;transform-origin:50% 100%"><g filter="url(#_b0_0_-goo)"><ellipse class="bird-toe" data-anchor="20.857 187.402" fill="#201431" cx="153.34886" cy="179.45131" rx="4.9235578" ry="1.0323864" transform="matrix(0.93458067,0.35575125,-0.65858761,0.75250405,0,0)"></ellipse><ellipse fill="#201431" cx="20.664642" cy="183.11169" rx="2.0929158" ry="5.5265679"></ellipse><ellipse fill="#201431" cx="40.032341" cy="184.09807" rx="1.6472523" ry="4.4285111"></ellipse><path fill="#201431" d="M 37.74 156.50 L 38.69 167.46 L 60.14 154.56 Z"></path><path fill="#201431" d="M 36.79 145.55 L 60.14 154.56 L 37.74 156.50 Z"></path><path fill="#201431" d="M 30.15 142.59 L 32.04 142.59 L 33.93 142.71 L 35.80 142.98 L 37.63 143.46 L 39.37 144.17 L 40.98 145.16 L 42.40 146.41 L 43.59 147.87 L 44.57 149.48 L 45.38 151.19 L 46.06 152.96 L 46.63 154.76 L 47.12 156.58 L 47.55 158.43 L 47.93 160.28 L 48.27 162.14 L 48.59 164.00 L 48.89 165.87 L 49.12 167.75 L 49.25 169.63 L 49.25 171.52 L 49.09 173.41 L 48.74 175.26 L 48.18 177.07 L 47.40 178.79 L 46.33 180.35 L 45.05 181.73 L 43.55 182.88 L 41.91 183.81 L 40.16 184.53 L 38.34 185.05 L 36.49 185.40 L 34.61 185.61 L 32.72 185.71 L 30.83 185.72 L 28.94 185.68 L 27.05 185.59 L 25.16 185.44 L 23.29 185.21 L 21.43 184.88 L 19.59 184.43 L 17.80 183.81 L 16.09 183.02 L 14.48 182.02 L 13.03 180.82 L 11.77 179.42 L 10.75 177.83 L 9.95 176.11 L 9.37 174.32 L 8.97 172.47 L 8.72 170.60 L 8.62 168.71 L 8.65 166.82 L 8.76 164.93 L 8.97 163.05 L 9.31 161.19 L 9.76 159.36 L 10.33 157.56 L 11.03 155.80 L 11.86 154.10 L 12.81 152.47 L 13.89 150.92 L 15.10 149.47 L 16.43 148.12 L 17.87 146.90 L 19.41 145.81 L 21.06 144.88 L 22.78 144.10 L 24.57 143.48 L 26.40 143.02 L 28.27 142.73 Z"></path><ellipse class="bird-toe" data-anchor="40.184 187.535" fill="#201431" cx="165.93597" cy="170.54491" rx="3.8840909" ry="0.82091522" transform="matrix(0.93242696,0.36135851,-0.65187735,0.75832441,0,0)"></ellipse><ellipse class="bird-toe" data-anchor="40.184 187.535" fill="#201431" cx="189.64407" cy="-24.811516" rx="3.1437743" ry="1.0536716" transform="matrix(0.08211358,0.99662297,-0.99901441,-0.04438722,0,0)"></ellipse><ellipse class="bird-toe" data-anchor="40.184 187.535" fill="#201431" cx="-118.11807" cy="212.07419" rx="4.0173759" ry="0.78369194" transform="matrix(0.94692824,-0.32144506,0.70063768,0.71351723,0,0)"></ellipse><ellipse class="bird-toe" data-anchor="20.857 187.402" fill="#201431" cx="191.05363" cy="-5.1148601" rx="3.9237621" ry="1.3386955" transform="matrix(0.0835902,0.99650023,-0.99904909,-0.04359927,0,0)"></ellipse><ellipse class="bird-toe" data-anchor="20.857 187.402" fill="#201431" cx="-136.81755" cy="206.88751" rx="5.0949697" ry="0.98674309" transform="matrix(0.94865772,-0.31630452,0.70701144,0.70720212,0,0)"></ellipse></g><ellipse fill="#f4f0ff" cx="31.00935" cy="158.27187" rx="11.1125" ry="11.112499"></ellipse><g style="transition:transform 0.12s ease-out;will-change:transform"><g class="bird-pupil"><g><ellipse fill="#201431" cx="32.067684" cy="158.27187" rx="4.7624998" ry="4.7624993"></ellipse></g></g></g><g clip-path="url(#_b0_0_-eye)"></g></g></g></g></g></svg>
<text x="76" y="149" text-anchor="middle" font-family="system-ui, sans-serif" font-size="10" font-weight="500" fill="#9ca3af">Shade</text>
<svg x="150" y="16" width="120" height="120" viewBox="0 0 120 120" preserveAspectRatio="xMidYMid slice" role="img" aria-label="Lio app icon — sleepy pink with fangs"><defs><linearGradient id="_b1_0_-bg" x1="0" y1="0" x2="0" y2="1"><stop offset="0" stop-color="#ff9ed8"></stop><stop offset="1" stop-color="#f556c4"></stop></linearGradient><clipPath id="_b1_0_-tile"><rect width="120" height="120" rx="32"></rect></clipPath><clipPath id="_b1_0_-eye"><circle cx="31.00935" cy="158.27187" r="11.7"></circle></clipPath></defs><rect width="120" height="120" rx="32" fill="url(#_b1_0_-bg)"></rect><g clip-path="url(#_b1_0_-tile)"><g transform="translate(20.55 -149.14) scale(1.3)"><g class="bird-emote"><g style="transform-box:fill-box;transform-origin:50% 100%"><g><ellipse class="bird-toe" data-anchor="20.857 187.402" fill="#ffcfe9" cx="153.34886" cy="179.45131" rx="4.9235578" ry="1.0323864" transform="matrix(0.93458067,0.35575125,-0.65858761,0.75250405,0,0)"></ellipse><ellipse fill="#ffcfe9" cx="20.664642" cy="183.11169" rx="2.0929158" ry="5.5265679"></ellipse><ellipse fill="#ffcfe9" cx="40.032341" cy="184.09807" rx="1.6472523" ry="4.4285111"></ellipse><path fill="#ffcfe9" d="M 37.74 156.50 L 38.69 167.46 L 60.14 154.56 Z"></path><path fill="#ffcfe9" d="M 36.79 145.55 L 60.14 154.56 L 37.74 156.50 Z"></path><path fill="#ffcfe9" d="M 45.56 163.33 L 49.50 160.96 L 50.62 167.29 Z M 50.49 160.37 L 54.09 158.20 L 54.87 163.57 Z"></path><path fill="#ffcfe9" d="M 30.15 142.59 L 32.04 142.59 L 33.93 142.71 L 35.80 142.98 L 37.63 143.46 L 39.37 144.17 L 40.98 145.16 L 42.40 146.41 L 43.59 147.87 L 44.57 149.48 L 45.38 151.19 L 46.06 152.96 L 46.63 154.76 L 47.12 156.58 L 47.55 158.43 L 47.93 160.28 L 48.27 162.14 L 48.59 164.00 L 48.89 165.87 L 49.12 167.75 L 49.25 169.63 L 49.25 171.52 L 49.09 173.41 L 48.74 175.26 L 48.18 177.07 L 47.40 178.79 L 46.33 180.35 L 45.05 181.73 L 43.55 182.88 L 41.91 183.81 L 40.16 184.53 L 38.34 185.05 L 36.49 185.40 L 34.61 185.61 L 32.72 185.71 L 30.83 185.72 L 28.94 185.68 L 27.05 185.59 L 25.16 185.44 L 23.29 185.21 L 21.43 184.88 L 19.59 184.43 L 17.80 183.81 L 16.09 183.02 L 14.48 182.02 L 13.03 180.82 L 11.77 179.42 L 10.75 177.83 L 9.95 176.11 L 9.37 174.32 L 8.97 172.47 L 8.72 170.60 L 8.62 168.71 L 8.65 166.82 L 8.76 164.93 L 8.97 163.05 L 9.31 161.19 L 9.76 159.36 L 10.33 157.56 L 11.03 155.80 L 11.86 154.10 L 12.81 152.47 L 13.89 150.92 L 15.10 149.47 L 16.43 148.12 L 17.87 146.90 L 19.41 145.81 L 21.06 144.88 L 22.78 144.10 L 24.57 143.48 L 26.40 143.02 L 28.27 142.73 Z"></path><ellipse class="bird-toe" data-anchor="40.184 187.535" fill="#ffcfe9" cx="165.93597" cy="170.54491" rx="3.8840909" ry="0.82091522" transform="matrix(0.93242696,0.36135851,-0.65187735,0.75832441,0,0)"></ellipse><ellipse class="bird-toe" data-anchor="40.184 187.535" fill="#ffcfe9" cx="189.64407" cy="-24.811516" rx="3.1437743" ry="1.0536716" transform="matrix(0.08211358,0.99662297,-0.99901441,-0.04438722,0,0)"></ellipse><ellipse class="bird-toe" data-anchor="40.184 187.535" fill="#ffcfe9" cx="-118.11807" cy="212.07419" rx="4.0173759" ry="0.78369194" transform="matrix(0.94692824,-0.32144506,0.70063768,0.71351723,0,0)"></ellipse><ellipse class="bird-toe" data-anchor="20.857 187.402" fill="#ffcfe9" cx="191.05363" cy="-5.1148601" rx="3.9237621" ry="1.3386955" transform="matrix(0.0835902,0.99650023,-0.99904909,-0.04359927,0,0)"></ellipse><ellipse class="bird-toe" data-anchor="20.857 187.402" fill="#ffcfe9" cx="-136.81755" cy="206.88751" rx="5.0949697" ry="0.98674309" transform="matrix(0.94865772,-0.31630452,0.70701144,0.70720212,0,0)"></ellipse></g><ellipse fill="#ffffff" cx="31.00935" cy="158.27187" rx="11.1125" ry="11.112499"></ellipse><g style="transition:transform 0.12s ease-out;will-change:transform"><g class="bird-pupil"><g><ellipse fill="#e3319f" cx="32.067684" cy="158.27187" rx="4.7624998" ry="4.7624993"></ellipse></g></g></g><g clip-path="url(#_b1_0_-eye)"><rect fill="#ffcfe9" x="19.30935" y="146.57187" width="23.4" height="11.7"></rect></g></g></g></g></g></svg>
<text x="210" y="149" text-anchor="middle" font-family="system-ui, sans-serif" font-size="10" font-weight="500" fill="#9ca3af">Blush</text>
<svg x="284" y="16" width="120" height="120" viewBox="0 0 120 120" preserveAspectRatio="xMidYMid slice" role="img" aria-label="Lio app icon — skull sticker on purple"><defs><linearGradient id="_b2_0_-bg" x1="0" y1="0" x2="0" y2="1"><stop offset="0" stop-color="#bda9f5"></stop><stop offset="1" stop-color="#8464e4"></stop></linearGradient><clipPath id="_b2_0_-tile"><rect width="120" height="120" rx="32"></rect></clipPath><clipPath id="_b2_0_-eye"><circle cx="31.00935" cy="158.27187" r="11.7"></circle></clipPath></defs><rect width="120" height="120" rx="32" fill="url(#_b2_0_-bg)"></rect><g clip-path="url(#_b2_0_-tile)"><g transform="translate(20.55 -149.14) scale(1.3)"><g class="bird-emote"><g style="transform-box:fill-box;transform-origin:50% 100%"><g><ellipse class="bird-toe" data-anchor="20.857 187.402" fill="#1e1226" cx="153.34886" cy="179.45131" rx="4.9235578" ry="1.0323864" transform="matrix(0.93458067,0.35575125,-0.65858761,0.75250405,0,0)"></ellipse><ellipse fill="#1e1226" cx="20.664642" cy="183.11169" rx="2.0929158" ry="5.5265679"></ellipse><ellipse fill="#1e1226" cx="40.032341" cy="184.09807" rx="1.6472523" ry="4.4285111"></ellipse><path fill="#fbfaff" d="M 37.74 156.50 L 38.69 167.46 L 60.14 154.56 Z" stroke="#1e1226" stroke-width="3.5" stroke-linejoin="round" paint-order="stroke"></path><path fill="#fbfaff" d="M 36.79 145.55 L 60.14 154.56 L 37.74 156.50 Z" stroke="#1e1226" stroke-width="3.5" stroke-linejoin="round" paint-order="stroke"></path><path fill="#fbfaff" d="M 30.15 142.59 L 32.04 142.59 L 33.93 142.71 L 35.80 142.98 L 37.63 143.46 L 39.37 144.17 L 40.98 145.16 L 42.40 146.41 L 43.59 147.87 L 44.57 149.48 L 45.38 151.19 L 46.06 152.96 L 46.63 154.76 L 47.12 156.58 L 47.55 158.43 L 47.93 160.28 L 48.27 162.14 L 48.59 164.00 L 48.89 165.87 L 49.12 167.75 L 49.25 169.63 L 49.25 171.52 L 49.09 173.41 L 48.74 175.26 L 48.18 177.07 L 47.40 178.79 L 46.33 180.35 L 45.05 181.73 L 43.55 182.88 L 41.91 183.81 L 40.16 184.53 L 38.34 185.05 L 36.49 185.40 L 34.61 185.61 L 32.72 185.71 L 30.83 185.72 L 28.94 185.68 L 27.05 185.59 L 25.16 185.44 L 23.29 185.21 L 21.43 184.88 L 19.59 184.43 L 17.80 183.81 L 16.09 183.02 L 14.48 182.02 L 13.03 180.82 L 11.77 179.42 L 10.75 177.83 L 9.95 176.11 L 9.37 174.32 L 8.97 172.47 L 8.72 170.60 L 8.62 168.71 L 8.65 166.82 L 8.76 164.93 L 8.97 163.05 L 9.31 161.19 L 9.76 159.36 L 10.33 157.56 L 11.03 155.80 L 11.86 154.10 L 12.81 152.47 L 13.89 150.92 L 15.10 149.47 L 16.43 148.12 L 17.87 146.90 L 19.41 145.81 L 21.06 144.88 L 22.78 144.10 L 24.57 143.48 L 26.40 143.02 L 28.27 142.73 Z" stroke="#1e1226" stroke-width="3.5" stroke-linejoin="round" paint-order="stroke"></path><ellipse class="bird-toe" data-anchor="40.184 187.535" fill="#1e1226" cx="165.93597" cy="170.54491" rx="3.8840909" ry="0.82091522" transform="matrix(0.93242696,0.36135851,-0.65187735,0.75832441,0,0)"></ellipse><ellipse class="bird-toe" data-anchor="40.184 187.535" fill="#1e1226" cx="189.64407" cy="-24.811516" rx="3.1437743" ry="1.0536716" transform="matrix(0.08211358,0.99662297,-0.99901441,-0.04438722,0,0)"></ellipse><ellipse class="bird-toe" data-anchor="40.184 187.535" fill="#1e1226" cx="-118.11807" cy="212.07419" rx="4.0173759" ry="0.78369194" transform="matrix(0.94692824,-0.32144506,0.70063768,0.71351723,0,0)"></ellipse><ellipse class="bird-toe" data-anchor="20.857 187.402" fill="#1e1226" cx="191.05363" cy="-5.1148601" rx="3.9237621" ry="1.3386955" transform="matrix(0.0835902,0.99650023,-0.99904909,-0.04359927,0,0)"></ellipse><ellipse class="bird-toe" data-anchor="20.857 187.402" fill="#1e1226" cx="-136.81755" cy="206.88751" rx="5.0949697" ry="0.98674309" transform="matrix(0.94865772,-0.31630452,0.70701144,0.70720212,0,0)"></ellipse></g><polyline points="33,167 35.5,170 38,167 40.5,170 43,167" fill="none" stroke="#1e1226" stroke-width="1.6" stroke-linecap="round" stroke-linejoin="round"></polyline><ellipse fill="#1e1226" cx="31.00935" cy="158.27187" rx="11.1125" ry="11.112499"></ellipse><g style="transition:transform 0.12s ease-out;will-change:transform"><g class="bird-pupil"><g><ellipse fill="#fbfaff" cx="32.067684" cy="158.27187" rx="4.7624998" ry="4.7624993"></ellipse></g></g></g><g clip-path="url(#_b2_0_-eye)"></g></g></g></g></g></svg>
<text x="344" y="149" text-anchor="middle" font-family="system-ui, sans-serif" font-size="10" font-weight="500" fill="#9ca3af">Haunt</text>
<svg x="418" y="16" width="120" height="120" viewBox="0 0 120 120" preserveAspectRatio="xMidYMid slice" role="img" aria-label="Lio app icon — chef on orange"><defs><linearGradient id="_b3_0_-bg" x1="0" y1="0" x2="0" y2="1"><stop offset="0" stop-color="#ff8c1a"></stop><stop offset="1" stop-color="#f2570f"></stop></linearGradient><clipPath id="_b3_0_-tile"><rect width="120" height="120" rx="32"></rect></clipPath><clipPath id="_b3_0_-eye"><circle cx="31.00935" cy="158.27187" r="11.7"></circle></clipPath></defs><rect width="120" height="120" rx="32" fill="url(#_b3_0_-bg)"></rect><g clip-path="url(#_b3_0_-tile)"><g transform="translate(20.55 -149.14) scale(1.3)"><g class="bird-emote"><g style="transform-box:fill-box;transform-origin:50% 100%"><g><ellipse class="bird-toe" data-anchor="20.857 187.402" fill="#8a4d07" cx="153.34886" cy="179.45131" rx="4.9235578" ry="1.0323864" transform="matrix(0.93458067,0.35575125,-0.65858761,0.75250405,0,0)"></ellipse><ellipse fill="#8a4d07" cx="20.664642" cy="183.11169" rx="2.0929158" ry="5.5265679"></ellipse><ellipse fill="#8a4d07" cx="40.032341" cy="184.09807" rx="1.6472523" ry="4.4285111"></ellipse><path fill="#ffb100" d="M 37.74 156.50 L 38.69 167.46 L 60.14 154.56 Z"></path><path fill="#ffb100" d="M 36.79 145.55 L 60.14 154.56 L 37.74 156.50 Z"></path><path fill="#ffc93c" d="M 30.15 142.59 L 32.04 142.59 L 33.93 142.71 L 35.80 142.98 L 37.63 143.46 L 39.37 144.17 L 40.98 145.16 L 42.40 146.41 L 43.59 147.87 L 44.57 149.48 L 45.38 151.19 L 46.06 152.96 L 46.63 154.76 L 47.12 156.58 L 47.55 158.43 L 47.93 160.28 L 48.27 162.14 L 48.59 164.00 L 48.89 165.87 L 49.12 167.75 L 49.25 169.63 L 49.25 171.52 L 49.09 173.41 L 48.74 175.26 L 48.18 177.07 L 47.40 178.79 L 46.33 180.35 L 45.05 181.73 L 43.55 182.88 L 41.91 183.81 L 40.16 184.53 L 38.34 185.05 L 36.49 185.40 L 34.61 185.61 L 32.72 185.71 L 30.83 185.72 L 28.94 185.68 L 27.05 185.59 L 25.16 185.44 L 23.29 185.21 L 21.43 184.88 L 19.59 184.43 L 17.80 183.81 L 16.09 183.02 L 14.48 182.02 L 13.03 180.82 L 11.77 179.42 L 10.75 177.83 L 9.95 176.11 L 9.37 174.32 L 8.97 172.47 L 8.72 170.60 L 8.62 168.71 L 8.65 166.82 L 8.76 164.93 L 8.97 163.05 L 9.31 161.19 L 9.76 159.36 L 10.33 157.56 L 11.03 155.80 L 11.86 154.10 L 12.81 152.47 L 13.89 150.92 L 15.10 149.47 L 16.43 148.12 L 17.87 146.90 L 19.41 145.81 L 21.06 144.88 L 22.78 144.10 L 24.57 143.48 L 26.40 143.02 L 28.27 142.73 Z"></path><ellipse class="bird-toe" data-anchor="40.184 187.535" fill="#8a4d07" cx="165.93597" cy="170.54491" rx="3.8840909" ry="0.82091522" transform="matrix(0.93242696,0.36135851,-0.65187735,0.75832441,0,0)"></ellipse><ellipse class="bird-toe" data-anchor="40.184 187.535" fill="#8a4d07" cx="189.64407" cy="-24.811516" rx="3.1437743" ry="1.0536716" transform="matrix(0.08211358,0.99662297,-0.99901441,-0.04438722,0,0)"></ellipse><ellipse class="bird-toe" data-anchor="40.184 187.535" fill="#8a4d07" cx="-118.11807" cy="212.07419" rx="4.0173759" ry="0.78369194" transform="matrix(0.94692824,-0.32144506,0.70063768,0.71351723,0,0)"></ellipse><ellipse class="bird-toe" data-anchor="20.857 187.402" fill="#8a4d07" cx="191.05363" cy="-5.1148601" rx="3.9237621" ry="1.3386955" transform="matrix(0.0835902,0.99650023,-0.99904909,-0.04359927,0,0)"></ellipse><ellipse class="bird-toe" data-anchor="20.857 187.402" fill="#8a4d07" cx="-136.81755" cy="206.88751" rx="5.0949697" ry="0.98674309" transform="matrix(0.94865772,-0.31630452,0.70701144,0.70720212,0,0)"></ellipse></g><g transform="translate(0 0) rotate(-10 31 141)" fill="#fdfcf8"><circle cx="23" cy="133.5" r="6.5"></circle><circle cx="31" cy="129.5" r="8"></circle><circle cx="39" cy="133.5" r="6.5"></circle><rect x="21" y="133" width="20" height="10" rx="3"></rect></g><ellipse fill="#fff8ea" cx="31.00935" cy="158.27187" rx="11.1125" ry="11.112499"></ellipse><g style="transition:transform 0.12s ease-out;will-change:transform"><g class="bird-pupil"><g><ellipse fill="#4a2b06" cx="32.067684" cy="158.27187" rx="4.7624998" ry="4.7624993"></ellipse></g></g></g><g clip-path="url(#_b3_0_-eye)"></g></g></g></g></g></svg>
<text x="478" y="149" text-anchor="middle" font-family="system-ui, sans-serif" font-size="10" font-weight="500" fill="#9ca3af">Chef</text>
<svg x="552" y="16" width="120" height="120" viewBox="0 0 120 120" preserveAspectRatio="xMidYMid slice" role="img" aria-label="Lio app icon — cropped silhouette on indigo"><defs><linearGradient id="_b4_0_-bg" x1="0" y1="0" x2="0" y2="1"><stop offset="0" stop-color="#9184ef"></stop><stop offset="1" stop-color="#5a48d6"></stop></linearGradient><clipPath id="_b4_0_-tile"><rect width="120" height="120" rx="32"></rect></clipPath><clipPath id="_b4_0_-eye"><circle cx="31.00935" cy="158.27187" r="11.7"></circle></clipPath></defs><rect width="120" height="120" rx="32" fill="url(#_b4_0_-bg)"></rect><g clip-path="url(#_b4_0_-tile)"><g transform="translate(-3.9 -238.71) scale(1.9)"><g class="bird-emote"><g style="transform-box:fill-box;transform-origin:50% 100%"><g><ellipse class="bird-toe" data-anchor="20.857 187.402" fill="#150f29" cx="153.34886" cy="179.45131" rx="4.9235578" ry="1.0323864" transform="matrix(0.93458067,0.35575125,-0.65858761,0.75250405,0,0)"></ellipse><ellipse fill="#150f29" cx="20.664642" cy="183.11169" rx="2.0929158" ry="5.5265679"></ellipse><ellipse fill="#150f29" cx="40.032341" cy="184.09807" rx="1.6472523" ry="4.4285111"></ellipse><path fill="#150f29" d="M 37.74 156.50 L 38.69 167.46 L 60.14 154.56 Z"></path><path fill="#150f29" d="M 36.79 145.55 L 60.14 154.56 L 37.74 156.50 Z"></path><path fill="#150f29" d="M 30.15 142.59 L 32.04 142.59 L 33.93 142.71 L 35.80 142.98 L 37.63 143.46 L 39.37 144.17 L 40.98 145.16 L 42.40 146.41 L 43.59 147.87 L 44.57 149.48 L 45.38 151.19 L 46.06 152.96 L 46.63 154.76 L 47.12 156.58 L 47.55 158.43 L 47.93 160.28 L 48.27 162.14 L 48.59 164.00 L 48.89 165.87 L 49.12 167.75 L 49.25 169.63 L 49.25 171.52 L 49.09 173.41 L 48.74 175.26 L 48.18 177.07 L 47.40 178.79 L 46.33 180.35 L 45.05 181.73 L 43.55 182.88 L 41.91 183.81 L 40.16 184.53 L 38.34 185.05 L 36.49 185.40 L 34.61 185.61 L 32.72 185.71 L 30.83 185.72 L 28.94 185.68 L 27.05 185.59 L 25.16 185.44 L 23.29 185.21 L 21.43 184.88 L 19.59 184.43 L 17.80 183.81 L 16.09 183.02 L 14.48 182.02 L 13.03 180.82 L 11.77 179.42 L 10.75 177.83 L 9.95 176.11 L 9.37 174.32 L 8.97 172.47 L 8.72 170.60 L 8.62 168.71 L 8.65 166.82 L 8.76 164.93 L 8.97 163.05 L 9.31 161.19 L 9.76 159.36 L 10.33 157.56 L 11.03 155.80 L 11.86 154.10 L 12.81 152.47 L 13.89 150.92 L 15.10 149.47 L 16.43 148.12 L 17.87 146.90 L 19.41 145.81 L 21.06 144.88 L 22.78 144.10 L 24.57 143.48 L 26.40 143.02 L 28.27 142.73 Z"></path><ellipse class="bird-toe" data-anchor="40.184 187.535" fill="#150f29" cx="165.93597" cy="170.54491" rx="3.8840909" ry="0.82091522" transform="matrix(0.93242696,0.36135851,-0.65187735,0.75832441,0,0)"></ellipse><ellipse class="bird-toe" data-anchor="40.184 187.535" fill="#150f29" cx="189.64407" cy="-24.811516" rx="3.1437743" ry="1.0536716" transform="matrix(0.08211358,0.99662297,-0.99901441,-0.04438722,0,0)"></ellipse><ellipse class="bird-toe" data-anchor="40.184 187.535" fill="#150f29" cx="-118.11807" cy="212.07419" rx="4.0173759" ry="0.78369194" transform="matrix(0.94692824,-0.32144506,0.70063768,0.71351723,0,0)"></ellipse><ellipse class="bird-toe" data-anchor="20.857 187.402" fill="#150f29" cx="191.05363" cy="-5.1148601" rx="3.9237621" ry="1.3386955" transform="matrix(0.0835902,0.99650023,-0.99904909,-0.04359927,0,0)"></ellipse><ellipse class="bird-toe" data-anchor="20.857 187.402" fill="#150f29" cx="-136.81755" cy="206.88751" rx="5.0949697" ry="0.98674309" transform="matrix(0.94865772,-0.31630452,0.70701144,0.70720212,0,0)"></ellipse></g><ellipse fill="#f5f2ff" cx="31.00935" cy="158.27187" rx="11.1125" ry="11.112499"></ellipse><g style="transition:transform 0.12s ease-out;will-change:transform"><g class="bird-pupil"><g><ellipse fill="#150f29" cx="32.067684" cy="158.27187" rx="4.7624998" ry="4.7624993"></ellipse></g></g></g><g clip-path="url(#_b4_0_-eye)"></g></g></g></g></g></svg>
<text x="612" y="149" text-anchor="middle" font-family="system-ui, sans-serif" font-size="10" font-weight="500" fill="#9ca3af">Nocturne</text>
<svg x="686" y="16" width="120" height="120" viewBox="0 0 120 120" preserveAspectRatio="xMidYMid slice" role="img" aria-label="Lio app icon — white ember on crimson"><defs><linearGradient id="_b5_0_-bg" x1="0" y1="0" x2="0" y2="1"><stop offset="0" stop-color="#ff3d5c"></stop><stop offset="1" stop-color="#e60f3f"></stop></linearGradient><clipPath id="_b5_0_-tile"><rect width="120" height="120" rx="32"></rect></clipPath><clipPath id="_b5_0_-eye"><circle cx="31.00935" cy="158.27187" r="11.7"></circle></clipPath></defs><rect width="120" height="120" rx="32" fill="url(#_b5_0_-bg)"></rect><g clip-path="url(#_b5_0_-tile)"><g transform="translate(20.55 -149.14) scale(1.3)"><g class="bird-emote"><g style="transform-box:fill-box;transform-origin:50% 100%"><g><ellipse class="bird-toe" data-anchor="20.857 187.402" fill="#fff5f7" cx="153.34886" cy="179.45131" rx="4.9235578" ry="1.0323864" transform="matrix(0.93458067,0.35575125,-0.65858761,0.75250405,0,0)"></ellipse><ellipse fill="#fff5f7" cx="20.664642" cy="183.11169" rx="2.0929158" ry="5.5265679"></ellipse><ellipse fill="#fff5f7" cx="40.032341" cy="184.09807" rx="1.6472523" ry="4.4285111"></ellipse><path fill="#fff5f7" d="M 37.74 156.50 L 38.69 167.46 L 60.14 154.56 Z"></path><path fill="#fff5f7" d="M 36.79 145.55 L 60.14 154.56 L 37.74 156.50 Z"></path><path fill="#fff5f7" d="M 30.15 142.59 L 32.04 142.59 L 33.93 142.71 L 35.80 142.98 L 37.63 143.46 L 39.37 144.17 L 40.98 145.16 L 42.40 146.41 L 43.59 147.87 L 44.57 149.48 L 45.38 151.19 L 46.06 152.96 L 46.63 154.76 L 47.12 156.58 L 47.55 158.43 L 47.93 160.28 L 48.27 162.14 L 48.59 164.00 L 48.89 165.87 L 49.12 167.75 L 49.25 169.63 L 49.25 171.52 L 49.09 173.41 L 48.74 175.26 L 48.18 177.07 L 47.40 178.79 L 46.33 180.35 L 45.05 181.73 L 43.55 182.88 L 41.91 183.81 L 40.16 184.53 L 38.34 185.05 L 36.49 185.40 L 34.61 185.61 L 32.72 185.71 L 30.83 185.72 L 28.94 185.68 L 27.05 185.59 L 25.16 185.44 L 23.29 185.21 L 21.43 184.88 L 19.59 184.43 L 17.80 183.81 L 16.09 183.02 L 14.48 182.02 L 13.03 180.82 L 11.77 179.42 L 10.75 177.83 L 9.95 176.11 L 9.37 174.32 L 8.97 172.47 L 8.72 170.60 L 8.62 168.71 L 8.65 166.82 L 8.76 164.93 L 8.97 163.05 L 9.31 161.19 L 9.76 159.36 L 10.33 157.56 L 11.03 155.80 L 11.86 154.10 L 12.81 152.47 L 13.89 150.92 L 15.10 149.47 L 16.43 148.12 L 17.87 146.90 L 19.41 145.81 L 21.06 144.88 L 22.78 144.10 L 24.57 143.48 L 26.40 143.02 L 28.27 142.73 Z"></path><ellipse class="bird-toe" data-anchor="40.184 187.535" fill="#fff5f7" cx="165.93597" cy="170.54491" rx="3.8840909" ry="0.82091522" transform="matrix(0.93242696,0.36135851,-0.65187735,0.75832441,0,0)"></ellipse><ellipse class="bird-toe" data-anchor="40.184 187.535" fill="#fff5f7" cx="189.64407" cy="-24.811516" rx="3.1437743" ry="1.0536716" transform="matrix(0.08211358,0.99662297,-0.99901441,-0.04438722,0,0)"></ellipse><ellipse class="bird-toe" data-anchor="40.184 187.535" fill="#fff5f7" cx="-118.11807" cy="212.07419" rx="4.0173759" ry="0.78369194" transform="matrix(0.94692824,-0.32144506,0.70063768,0.71351723,0,0)"></ellipse><ellipse class="bird-toe" data-anchor="20.857 187.402" fill="#fff5f7" cx="191.05363" cy="-5.1148601" rx="3.9237621" ry="1.3386955" transform="matrix(0.0835902,0.99650023,-0.99904909,-0.04359927,0,0)"></ellipse><ellipse class="bird-toe" data-anchor="20.857 187.402" fill="#fff5f7" cx="-136.81755" cy="206.88751" rx="5.0949697" ry="0.98674309" transform="matrix(0.94865772,-0.31630452,0.70701144,0.70720212,0,0)"></ellipse></g><ellipse fill="#ff9db8" cx="31.00935" cy="158.27187" rx="11.1125" ry="11.112499"></ellipse><g style="transition:transform 0.12s ease-out;will-change:transform"><g class="bird-pupil"><g><ellipse fill="#e60f3f" cx="32.067684" cy="158.27187" rx="4.7624998" ry="4.7624993"></ellipse></g></g></g><g clip-path="url(#_b5_0_-eye)"></g></g></g></g></g></svg>
<text x="746" y="149" text-anchor="middle" font-family="system-ui, sans-serif" font-size="10" font-weight="500" fill="#9ca3af">Ember</text>
</svg>
