<svg xmlns="http://www.w3.org/2000/svg" viewBox="0 0 822 322" width="822" height="322">
<svg x="16" y="16" width="120" height="120" viewBox="0 0 120 120" preserveAspectRatio="xMidYMid slice" role="img" aria-label="Lio graduate - giant outlined white bird, ring pupil, on peach cream"><defs><linearGradient id="_b84_0_-bg" x1="0" y1="0" x2="0" y2="1"><stop offset="0" stop-color="#ffe8d6"></stop><stop offset="1" stop-color="#f4a261"></stop></linearGradient><clipPath id="_b84_0_-tile"><rect width="120" height="120" rx="32"></rect></clipPath><clipPath id="_b84_0_-eye"><circle cx="31.00935" cy="158.27187" r="11.7"></circle></clipPath></defs><rect width="120" height="120" rx="32" fill="url(#_b84_0_-bg)"></rect><g clip-path="url(#_b84_0_-tile)"><g transform="translate(-3.9 -238.71) scale(1.9)"><g class="bird-emote"><g style="transform-box:fill-box;transform-origin:50% 100%"><g><ellipse class="bird-toe" data-anchor="20.857 187.402" fill="#7c2d12" cx="153.34886" cy="179.45131" rx="4.9235578" ry="1.0323864" transform="matrix(0.93458067,0.35575125,-0.65858761,0.75250405,0,0)"></ellipse><ellipse fill="#7c2d12" cx="20.664642" cy="183.11169" rx="2.0929158" ry="5.5265679"></ellipse><ellipse fill="#7c2d12" cx="40.032341" cy="184.09807" rx="1.6472523" ry="4.4285111"></ellipse><path fill="#ffffff" d="M 37.74 156.50 L 38.69 167.46 L 60.14 154.56 Z" stroke="#7c2d12" stroke-width="2.5" stroke-linejoin="round" paint-order="stroke"></path><path fill="#ffffff" d="M 36.79 145.55 L 60.14 154.56 L 37.74 156.50 Z" stroke="#7c2d12" stroke-width="2.5" stroke-linejoin="round" paint-order="stroke"></path><path fill="#ffffff" d="M 30.15 142.59 L 32.04 142.59 L 33.93 142.71 L 35.80 142.98 L 37.63 143.46 L 39.37 144.17 L 40.98 145.16 L 42.40 146.41 L 43.59 147.87 L 44.57 149.48 L 45.38 151.19 L 46.06 152.96 L 46.63 154.76 L 47.12 156.58 L 47.55 158.43 L 47.93 160.28 L 48.27 162.14 L 48.59 164.00 L 48.89 165.87 L 49.12 167.75 L 49.25 169.63 L 49.25 171.52 L 49.09 173.41 L 48.74 175.26 L 48.18 177.07 L 47.40 178.79 L 46.33 180.35 L 45.05 181.73 L 43.55 182.88 L 41.91 183.81 L 40.16 184.53 L 38.34 185.05 L 36.49 185.40 L 34.61 185.61 L 32.72 185.71 L 30.83 185.72 L 28.94 185.68 L 27.05 185.59 L 25.16 185.44 L 23.29 185.21 L 21.43 184.88 L 19.59 184.43 L 17.80 183.81 L 16.09 183.02 L 14.48 182.02 L 13.03 180.82 L 11.77 179.42 L 10.75 177.83 L 9.95 176.11 L 9.37 174.32 L 8.97 172.47 L 8.72 170.60 L 8.62 168.71 L 8.65 166.82 L 8.76 164.93 L 8.97 163.05 L 9.31 161.19 L 9.76 159.36 L 10.33 157.56 L 11.03 155.80 L 11.86 154.10 L 12.81 152.47 L 13.89 150.92 L 15.10 149.47 L 16.43 148.12 L 17.87 146.90 L 19.41 145.81 L 21.06 144.88 L 22.78 144.10 L 24.57 143.48 L 26.40 143.02 L 28.27 142.73 Z" stroke="#7c2d12" stroke-width="2.5" stroke-linejoin="round" paint-order="stroke"></path><ellipse class="bird-toe" data-anchor="40.184 187.535" fill="#7c2d12" cx="165.93597" cy="170.54491" rx="3.8840909" ry="0.82091522" transform="matrix(0.93242696,0.36135851,-0.65187735,0.75832441,0,0)"></ellipse><ellipse class="bird-toe" data-anchor="40.184 187.535" fill="#7c2d12" cx="189.64407" cy="-24.811516" rx="3.1437743" ry="1.0536716" transform="matrix(0.08211358,0.99662297,-0.99901441,-0.04438722,0,0)"></ellipse><ellipse class="bird-toe" data-anchor="40.184 187.535" fill="#7c2d12" cx="-118.11807" cy="212.07419" rx="4.0173759" ry="0.78369194" transform="matrix(0.94692824,-0.32144506,0.70063768,0.71351723,0,0)"></ellipse><ellipse class="bird-toe" data-anchor="20.857 187.402" fill="#7c2d12" cx="191.05363" cy="-5.1148601" rx="3.9237621" ry="1.3386955" transform="matrix(0.0835902,0.99650023,-0.99904909,-0.04359927,0,0)"></ellipse><ellipse class="bird-toe" data-anchor="20.857 187.402" fill="#7c2d12" cx="-136.81755" cy="206.88751" rx="5.0949697" ry="0.98674309" transform="matrix(0.94865772,-0.31630452,0.70701144,0.70720212,0,0)"></ellipse></g><g transform="translate(0 1.8) rotate(-10 31 141)" fill="#7c2d12"><rect x="23.5" y="138" width="15" height="6" rx="2"></rect><path d="M 31 128 L 46 133 L 31 138 L 16 133 Z"></path><path d="M 31 133 Q 43 132 44.5 140" fill="none" stroke="#ffd54f" stroke-width="1.3" stroke-linecap="round"></path><circle cx="31" cy="133" r="1.2" fill="#ffd54f"></circle><circle cx="44.5" cy="141.5" r="1.8" fill="#ffd54f"></circle></g><ellipse fill="#ffffff" cx="31.00935" cy="158.27187" rx="11.1125" ry="11.112499"></ellipse><g style="transition:transform 0.12s ease-out;will-change:transform"><g class="bird-pupil"><g><circle fill="none" stroke="#7c2d12" stroke-width="2.6" cx="32.067684" cy="158.27187" r="3.4"></circle></g></g></g><g clip-path="url(#_b84_0_-eye)"></g></g></g></g></g></svg>
<text x="76" y="149" text-anchor="middle" font-family="system-ui, sans-serif" font-size="10" font-weight="500" fill="#9ca3af">Titan</text>
<svg x="150" y="16" width="120" height="120" viewBox="0 0 120 120" preserveAspectRatio="xMidYMid slice" role="img" aria-label="Lio graduate - giant violet bird, star pupil, on indigo void"><defs><linearGradient id="_b85_0_-bg" x1="0" y1="0" x2="0" y2="1"><stop offset="0" stop-color="#312e81"></stop><stop offset="1" stop-color="#0f0a33"></stop></linearGradient><clipPath id="_b85_0_-tile"><rect width="120" height="120" rx="32"></rect></clipPath><clipPath id="_b85_0_-eye"><circle cx="31.00935" cy="158.27187" r="11.7"></circle></clipPath></defs><rect width="120" height="120" rx="32" fill="url(#_b85_0_-bg)"></rect><g clip-path="url(#_b85_0_-tile)"><g transform="translate(-3.9 -238.71) scale(1.9)"><g class="bird-emote"><g style="transform-box:fill-box;transform-origin:50% 100%"><g><ellipse class="bird-toe" data-anchor="20.857 187.402" fill="#a78bfa" cx="153.34886" cy="179.45131" rx="4.9235578" ry="1.0323864" transform="matrix(0.93458067,0.35575125,-0.65858761,0.75250405,0,0)"></ellipse><ellipse fill="#a78bfa" cx="20.664642" cy="183.11169" rx="2.0929158" ry="5.5265679"></ellipse><ellipse fill="#a78bfa" cx="40.032341" cy="184.09807" rx="1.6472523" ry="4.4285111"></ellipse><path fill="#a78bfa" d="M 37.74 156.50 L 38.69 167.46 L 60.14 154.56 Z"></path><path fill="#a78bfa" d="M 36.79 145.55 L 60.14 154.56 L 37.74 156.50 Z"></path><path fill="#a78bfa" d="M 30.15 142.59 L 32.04 142.59 L 33.93 142.71 L 35.80 142.98 L 37.63 143.46 L 39.37 144.17 L 40.98 145.16 L 42.40 146.41 L 43.59 147.87 L 44.57 149.48 L 45.38 151.19 L 46.06 152.96 L 46.63 154.76 L 47.12 156.58 L 47.55 158.43 L 47.93 160.28 L 48.27 162.14 L 48.59 164.00 L 48.89 165.87 L 49.12 167.75 L 49.25 169.63 L 49.25 171.52 L 49.09 173.41 L 48.74 175.26 L 48.18 177.07 L 47.40 178.79 L 46.33 180.35 L 45.05 181.73 L 43.55 182.88 L 41.91 183.81 L 40.16 184.53 L 38.34 185.05 L 36.49 185.40 L 34.61 185.61 L 32.72 185.71 L 30.83 185.72 L 28.94 185.68 L 27.05 185.59 L 25.16 185.44 L 23.29 185.21 L 21.43 184.88 L 19.59 184.43 L 17.80 183.81 L 16.09 183.02 L 14.48 182.02 L 13.03 180.82 L 11.77 179.42 L 10.75 177.83 L 9.95 176.11 L 9.37 174.32 L 8.97 172.47 L 8.72 170.60 L 8.62 168.71 L 8.65 166.82 L 8.76 164.93 L 8.97 163.05 L 9.31 161.19 L 9.76 159.36 L 10.33 157.56 L 11.03 155.80 L 11.86 154.10 L 12.81 152.47 L 13.89 150.92 L 15.10 149.47 L 16.43 148.12 L 17.87 146.90 L 19.41 145.81 L 21.06 144.88 L 22.78 144.10 L 24.57 143.48 L 26.40 143.02 L 28.27 142.73 Z"></path><ellipse class="bird-toe" data-anchor="40.184 187.535" fill="#a78bfa" cx="165.93597" cy="170.54491" rx="3.8840909" ry="0.82091522" transform="matrix(0.93242696,0.36135851,-0.65187735,0.75832441,0,0)"></ellipse><ellipse class="bird-toe" data-anchor="40.184 187.535" fill="#a78bfa" cx="189.64407" cy="-24.811516" rx="3.1437743" ry="1.0536716" transform="matrix(0.08211358,0.99662297,-0.99901441,-0.04438722,0,0)"></ellipse><ellipse class="bird-toe" data-anchor="40.184 187.535" fill="#a78bfa" cx="-118.11807" cy="212.07419" rx="4.0173759" ry="0.78369194" transform="matrix(0.94692824,-0.32144506,0.70063768,0.71351723,0,0)"></ellipse><ellipse class="bird-toe" data-anchor="20.857 187.402" fill="#a78bfa" cx="191.05363" cy="-5.1148601" rx="3.9237621" ry="1.3386955" transform="matrix(0.0835902,0.99650023,-0.99904909,-0.04359927,0,0)"></ellipse><ellipse class="bird-toe" data-anchor="20.857 187.402" fill="#a78bfa" cx="-136.81755" cy="206.88751" rx="5.0949697" ry="0.98674309" transform="matrix(0.94865772,-0.31630452,0.70701144,0.70720212,0,0)"></ellipse></g><g transform="translate(0 1.8) rotate(-10 31 141)" fill="#2e1065"><rect x="23.5" y="138" width="15" height="6" rx="2"></rect><path d="M 31 128 L 46 133 L 31 138 L 16 133 Z"></path><path d="M 31 133 Q 43 132 44.5 140" fill="none" stroke="#a78bfa" stroke-width="1.3" stroke-linecap="round"></path><circle cx="31" cy="133" r="1.2" fill="#a78bfa"></circle><circle cx="44.5" cy="141.5" r="1.8" fill="#a78bfa"></circle></g><ellipse fill="#ede9fe" cx="31.00935" cy="158.27187" rx="11.1125" ry="11.112499"></ellipse><g style="transition:transform 0.12s ease-out;will-change:transform"><g class="bird-pupil"><g><path fill="#2e1065" d="M 32.07 152.67 L 33.42 156.41 L 37.40 156.54 L 34.26 158.98 L 35.36 162.80 L 32.07 160.57 L 28.78 162.80 L 29.88 158.98 L 26.74 156.54 L 30.72 156.41 Z"></path></g></g></g><g clip-path="url(#_b85_0_-eye)"></g></g></g></g></g></svg>
<text x="210" y="149" text-anchor="middle" font-family="system-ui, sans-serif" font-size="10" font-weight="500" fill="#9ca3af">Abyss</text>
<svg x="284" y="16" width="120" height="120" viewBox="0 0 120 120" preserveAspectRatio="xMidYMid slice" role="img" aria-label="Lio graduate - giant sleepy blush bird with fangs on fuchsia"><defs><linearGradient id="_b86_0_-bg" x1="0" y1="0" x2="0" y2="1"><stop offset="0" stop-color="#f9a8d4"></stop><stop offset="1" stop-color="#db2777"></stop></linearGradient><clipPath id="_b86_0_-tile"><rect width="120" height="120" rx="32"></rect></clipPath><clipPath id="_b86_0_-eye"><circle cx="31.00935" cy="158.27187" r="11.7"></circle></clipPath></defs><rect width="120" height="120" rx="32" fill="url(#_b86_0_-bg)"></rect><g clip-path="url(#_b86_0_-tile)"><g transform="translate(-3.9 -238.71) scale(1.9)"><g class="bird-emote"><g style="transform-box:fill-box;transform-origin:50% 100%"><g><ellipse class="bird-toe" data-anchor="20.857 187.402" fill="#ffffff" cx="153.34886" cy="179.45131" rx="4.9235578" ry="1.0323864" transform="matrix(0.93458067,0.35575125,-0.65858761,0.75250405,0,0)"></ellipse><ellipse fill="#ffffff" cx="20.664642" cy="183.11169" rx="2.0929158" ry="5.5265679"></ellipse><ellipse fill="#ffffff" cx="40.032341" cy="184.09807" rx="1.6472523" ry="4.4285111"></ellipse><path fill="#ffffff" d="M 37.74 156.50 L 38.69 167.46 L 60.14 154.56 Z"></path><path fill="#ffffff" d="M 36.79 145.55 L 60.14 154.56 L 37.74 156.50 Z"></path><path fill="#ffffff" d="M 45.56 163.33 L 49.50 160.96 L 50.62 167.29 Z M 50.49 160.37 L 54.09 158.20 L 54.87 163.57 Z"></path><path fill="#ffffff" d="M 30.15 142.59 L 32.04 142.59 L 33.93 142.71 L 35.80 142.98 L 37.63 143.46 L 39.37 144.17 L 40.98 145.16 L 42.40 146.41 L 43.59 147.87 L 44.57 149.48 L 45.38 151.19 L 46.06 152.96 L 46.63 154.76 L 47.12 156.58 L 47.55 158.43 L 47.93 160.28 L 48.27 162.14 L 48.59 164.00 L 48.89 165.87 L 49.12 167.75 L 49.25 169.63 L 49.25 171.52 L 49.09 173.41 L 48.74 175.26 L 48.18 177.07 L 47.40 178.79 L 46.33 180.35 L 45.05 181.73 L 43.55 182.88 L 41.91 183.81 L 40.16 184.53 L 38.34 185.05 L 36.49 185.40 L 34.61 185.61 L 32.72 185.71 L 30.83 185.72 L 28.94 185.68 L 27.05 185.59 L 25.16 185.44 L 23.29 185.21 L 21.43 184.88 L 19.59 184.43 L 17.80 183.81 L 16.09 183.02 L 14.48 182.02 L 13.03 180.82 L 11.77 179.42 L 10.75 177.83 L 9.95 176.11 L 9.37 174.32 L 8.97 172.47 L 8.72 170.60 L 8.62 168.71 L 8.65 166.82 L 8.76 164.93 L 8.97 163.05 L 9.31 161.19 L 9.76 159.36 L 10.33 157.56 L 11.03 155.80 L 11.86 154.10 L 12.81 152.47 L 13.89 150.92 L 15.10 149.47 L 16.43 148.12 L 17.87 146.90 L 19.41 145.81 L 21.06 144.88 L 22.78 144.10 L 24.57 143.48 L 26.40 143.02 L 28.27 142.73 Z"></path><ellipse class="bird-toe" data-anchor="40.184 187.535" fill="#ffffff" cx="165.93597" cy="170.54491" rx="3.8840909" ry="0.82091522" transform="matrix(0.93242696,0.36135851,-0.65187735,0.75832441,0,0)"></ellipse><ellipse class="bird-toe" data-anchor="40.184 187.535" fill="#ffffff" cx="189.64407" cy="-24.811516" rx="3.1437743" ry="1.0536716" transform="matrix(0.08211358,0.99662297,-0.99901441,-0.04438722,0,0)"></ellipse><ellipse class="bird-toe" data-anchor="40.184 187.535" fill="#ffffff" cx="-118.11807" cy="212.07419" rx="4.0173759" ry="0.78369194" transform="matrix(0.94692824,-0.32144506,0.70063768,0.71351723,0,0)"></ellipse><ellipse class="bird-toe" data-anchor="20.857 187.402" fill="#ffffff" cx="191.05363" cy="-5.1148601" rx="3.9237621" ry="1.3386955" transform="matrix(0.0835902,0.99650023,-0.99904909,-0.04359927,0,0)"></ellipse><ellipse class="bird-toe" data-anchor="20.857 187.402" fill="#ffffff" cx="-136.81755" cy="206.88751" rx="5.0949697" ry="0.98674309" transform="matrix(0.94865772,-0.31630452,0.70701144,0.70720212,0,0)"></ellipse></g><g transform="translate(0 1.8) rotate(-10 31 141)" fill="#500724"><rect x="23.5" y="138" width="15" height="6" rx="2"></rect><path d="M 31 128 L 46 133 L 31 138 L 16 133 Z"></path><path d="M 31 133 Q 43 132 44.5 140" fill="none" stroke="#ffd54f" stroke-width="1.3" stroke-linecap="round"></path><circle cx="31" cy="133" r="1.2" fill="#ffd54f"></circle><circle cx="44.5" cy="141.5" r="1.8" fill="#ffd54f"></circle></g><g><ellipse fill="#f9a8d4" cx="20.5" cy="166.8" rx="2.9" ry="1.8"></ellipse></g><g><ellipse fill="#f9a8d4" cx="41.5" cy="166.8" rx="2.9" ry="1.8"></ellipse></g><ellipse fill="#ffffff" cx="31.00935" cy="158.27187" rx="11.1125" ry="11.112499"></ellipse><g style="transition:transform 0.12s ease-out;will-change:transform"><g class="bird-pupil"><g><ellipse fill="#9d174d" cx="32.067684" cy="158.27187" rx="4.7624998" ry="4.7624993"></ellipse></g></g></g><g clip-path="url(#_b86_0_-eye)"><path fill="#ffffff" d="M 19.31 146.57 H 42.71 V 158.8 Q 31.01 153.0 19.31 158.8 Z"></path></g></g></g></g></g></svg>
<text x="344" y="149" text-anchor="middle" font-family="system-ui, sans-serif" font-size="10" font-weight="500" fill="#9ca3af">Bloom</text>
<svg x="418" y="16" width="120" height="120" viewBox="0 0 120 120" preserveAspectRatio="xMidYMid slice" role="img" aria-label="Lio graduate - giant steel bird, zigzag, ring pupil, red tassel"><defs><linearGradient id="_b87_0_-bg" x1="0" y1="0" x2="1" y2="1"><stop offset="0" stop-color="#94a3b8"></stop><stop offset="1" stop-color="#334155"></stop></linearGradient><clipPath id="_b87_0_-tile"><rect width="120" height="120" rx="32"></rect></clipPath><clipPath id="_b87_0_-eye"><circle cx="31.00935" cy="158.27187" r="11.7"></circle></clipPath></defs><rect width="120" height="120" rx="32" fill="url(#_b87_0_-bg)"></rect><g clip-path="url(#_b87_0_-tile)"><g transform="translate(-3.9 -238.71) scale(1.9)"><g class="bird-emote"><g style="transform-box:fill-box;transform-origin:50% 100%"><g><ellipse class="bird-toe" data-anchor="20.857 187.402" fill="#0f172a" cx="153.34886" cy="179.45131" rx="4.9235578" ry="1.0323864" transform="matrix(0.93458067,0.35575125,-0.65858761,0.75250405,0,0)"></ellipse><ellipse fill="#0f172a" cx="20.664642" cy="183.11169" rx="2.0929158" ry="5.5265679"></ellipse><ellipse fill="#0f172a" cx="40.032341" cy="184.09807" rx="1.6472523" ry="4.4285111"></ellipse><path fill="#cbd5e1" d="M 37.74 156.50 L 38.69 167.46 L 60.14 154.56 Z" stroke="#0f172a" stroke-width="2.5" stroke-linejoin="round" paint-order="stroke"></path><path fill="#cbd5e1" d="M 36.79 145.55 L 60.14 154.56 L 37.74 156.50 Z" stroke="#0f172a" stroke-width="2.5" stroke-linejoin="round" paint-order="stroke"></path><path fill="#cbd5e1" d="M 30.15 142.59 L 32.04 142.59 L 33.93 142.71 L 35.80 142.98 L 37.63 143.46 L 39.37 144.17 L 40.98 145.16 L 42.40 146.41 L 43.59 147.87 L 44.57 149.48 L 45.38 151.19 L 46.06 152.96 L 46.63 154.76 L 47.12 156.58 L 47.55 158.43 L 47.93 160.28 L 48.27 162.14 L 48.59 164.00 L 48.89 165.87 L 49.12 167.75 L 49.25 169.63 L 49.25 171.52 L 49.09 173.41 L 48.74 175.26 L 48.18 177.07 L 47.40 178.79 L 46.33 180.35 L 45.05 181.73 L 43.55 182.88 L 41.91 183.81 L 40.16 184.53 L 38.34 185.05 L 36.49 185.40 L 34.61 185.61 L 32.72 185.71 L 30.83 185.72 L 28.94 185.68 L 27.05 185.59 L 25.16 185.44 L 23.29 185.21 L 21.43 184.88 L 19.59 184.43 L 17.80 183.81 L 16.09 183.02 L 14.48 182.02 L 13.03 180.82 L 11.77 179.42 L 10.75 177.83 L 9.95 176.11 L 9.37 174.32 L 8.97 172.47 L 8.72 170.60 L 8.62 168.71 L 8.65 166.82 L 8.76 164.93 L 8.97 163.05 L 9.31 161.19 L 9.76 159.36 L 10.33 157.56 L 11.03 155.80 L 11.86 154.10 L 12.81 152.47 L 13.89 150.92 L 15.10 149.47 L 16.43 148.12 L 17.87 146.90 L 19.41 145.81 L 21.06 144.88 L 22.78 144.10 L 24.57 143.48 L 26.40 143.02 L 28.27 142.73 Z" stroke="#0f172a" stroke-width="2.5" stroke-linejoin="round" paint-order="stroke"></path><ellipse class="bird-toe" data-anchor="40.184 187.535" fill="#0f172a" cx="165.93597" cy="170.54491" rx="3.8840909" ry="0.82091522" transform="matrix(0.93242696,0.36135851,-0.65187735,0.75832441,0,0)"></ellipse><ellipse class="bird-toe" data-anchor="40.184 187.535" fill="#0f172a" cx="189.64407" cy="-24.811516" rx="3.1437743" ry="1.0536716" transform="matrix(0.08211358,0.99662297,-0.99901441,-0.04438722,0,0)"></ellipse><ellipse class="bird-toe" data-anchor="40.184 187.535" fill="#0f172a" cx="-118.11807" cy="212.07419" rx="4.0173759" ry="0.78369194" transform="matrix(0.94692824,-0.32144506,0.70063768,0.71351723,0,0)"></ellipse><ellipse class="bird-toe" data-anchor="20.857 187.402" fill="#0f172a" cx="191.05363" cy="-5.1148601" rx="3.9237621" ry="1.3386955" transform="matrix(0.0835902,0.99650023,-0.99904909,-0.04359927,0,0)"></ellipse><ellipse class="bird-toe" data-anchor="20.857 187.402" fill="#0f172a" cx="-136.81755" cy="206.88751" rx="5.0949697" ry="0.98674309" transform="matrix(0.94865772,-0.31630452,0.70701144,0.70720212,0,0)"></ellipse></g><g transform="translate(0 1.8) rotate(-10 31 141)" fill="#0f172a"><rect x="23.5" y="138" width="15" height="6" rx="2"></rect><path d="M 31 128 L 46 133 L 31 138 L 16 133 Z"></path><path d="M 31 133 Q 43 132 44.5 140" fill="none" stroke="#ef4444" stroke-width="1.3" stroke-linecap="round"></path><circle cx="31" cy="133" r="1.2" fill="#ef4444"></circle><circle cx="44.5" cy="141.5" r="1.8" fill="#ef4444"></circle></g><polyline points="33,167 35.5,170 38,167 40.5,170 43,167" fill="none" stroke="#0f172a" stroke-width="1.6" stroke-linecap="round" stroke-linejoin="round"></polyline><ellipse fill="#f1f5f9" cx="31.00935" cy="158.27187" rx="11.1125" ry="11.112499"></ellipse><g style="transition:transform 0.12s ease-out;will-change:transform"><g class="bird-pupil"><g><circle fill="none" stroke="#0f172a" stroke-width="2.6" cx="32.067684" cy="158.27187" r="3.4"></circle></g></g></g><g clip-path="url(#_b87_0_-eye)"></g></g></g></g></g></svg>
<text x="478" y="149" text-anchor="middle" font-family="system-ui, sans-serif" font-size="10" font-weight="500" fill="#9ca3af">Mecha</text>
<svg x="552" y="16" width="120" height="120" viewBox="0 0 120 120" preserveAspectRatio="xMidYMid slice" role="img" aria-label="Lio graduate - giant dark-olive bird asleep on honeydew"><defs><linearGradient id="_b88_0_-bg" x1="0" y1="0" x2="0" y2="1"><stop offset="0" stop-color="#ecfccb"></stop><stop offset="1" stop-color="#a3e635"></stop></linearGradient><clipPath id="_b88_0_-tile"><rect width="120" height="120" rx="32"></rect></clipPath><clipPath id="_b88_0_-eye"><circle cx="31.00935" cy="158.27187" r="11.7"></circle></clipPath></defs><rect width="120" height="120" rx="32" fill="url(#_b88_0_-bg)"></rect><g clip-path="url(#_b88_0_-tile)"><g transform="translate(-3.9 -238.71) scale(1.9)"><g class="bird-emote"><g style="transform-box:fill-box;transform-origin:50% 100%"><g><ellipse class="bird-toe" data-anchor="20.857 187.402" fill="#365314" cx="153.34886" cy="179.45131" rx="4.9235578" ry="1.0323864" transform="matrix(0.93458067,0.35575125,-0.65858761,0.75250405,0,0)"></ellipse><ellipse fill="#365314" cx="20.664642" cy="183.11169" rx="2.0929158" ry="5.5265679"></ellipse><ellipse fill="#365314" cx="40.032341" cy="184.09807" rx="1.6472523" ry="4.4285111"></ellipse><path fill="#365314" d="M 37.74 156.50 L 38.69 167.46 L 60.14 154.56 Z"></path><path fill="#365314" d="M 36.79 145.55 L 60.14 154.56 L 37.74 156.50 Z"></path><path fill="#365314" d="M 30.15 142.59 L 32.04 142.59 L 33.93 142.71 L 35.80 142.98 L 37.63 143.46 L 39.37 144.17 L 40.98 145.16 L 42.40 146.41 L 43.59 147.87 L 44.57 149.48 L 45.38 151.19 L 46.06 152.96 L 46.63 154.76 L 47.12 156.58 L 47.55 158.43 L 47.93 160.28 L 48.27 162.14 L 48.59 164.00 L 48.89 165.87 L 49.12 167.75 L 49.25 169.63 L 49.25 171.52 L 49.09 173.41 L 48.74 175.26 L 48.18 177.07 L 47.40 178.79 L 46.33 180.35 L 45.05 181.73 L 43.55 182.88 L 41.91 183.81 L 40.16 184.53 L 38.34 185.05 L 36.49 185.40 L 34.61 185.61 L 32.72 185.71 L 30.83 185.72 L 28.94 185.68 L 27.05 185.59 L 25.16 185.44 L 23.29 185.21 L 21.43 184.88 L 19.59 184.43 L 17.80 183.81 L 16.09 183.02 L 14.48 182.02 L 13.03 180.82 L 11.77 179.42 L 10.75 177.83 L 9.95 176.11 L 9.37 174.32 L 8.97 172.47 L 8.72 170.60 L 8.62 168.71 L 8.65 166.82 L 8.76 164.93 L 8.97 163.05 L 9.31 161.19 L 9.76 159.36 L 10.33 157.56 L 11.03 155.80 L 11.86 154.10 L 12.81 152.47 L 13.89 150.92 L 15.10 149.47 L 16.43 148.12 L 17.87 146.90 L 19.41 145.81 L 21.06 144.88 L 22.78 144.10 L 24.57 143.48 L 26.40 143.02 L 28.27 142.73 Z"></path><ellipse class="bird-toe" data-anchor="40.184 187.535" fill="#365314" cx="165.93597" cy="170.54491" rx="3.8840909" ry="0.82091522" transform="matrix(0.93242696,0.36135851,-0.65187735,0.75832441,0,0)"></ellipse><ellipse class="bird-toe" data-anchor="40.184 187.535" fill="#365314" cx="189.64407" cy="-24.811516" rx="3.1437743" ry="1.0536716" transform="matrix(0.08211358,0.99662297,-0.99901441,-0.04438722,0,0)"></ellipse><ellipse class="bird-toe" data-anchor="40.184 187.535" fill="#365314" cx="-118.11807" cy="212.07419" rx="4.0173759" ry="0.78369194" transform="matrix(0.94692824,-0.32144506,0.70063768,0.71351723,0,0)"></ellipse><ellipse class="bird-toe" data-anchor="20.857 187.402" fill="#365314" cx="191.05363" cy="-5.1148601" rx="3.9237621" ry="1.3386955" transform="matrix(0.0835902,0.99650023,-0.99904909,-0.04359927,0,0)"></ellipse><ellipse class="bird-toe" data-anchor="20.857 187.402" fill="#365314" cx="-136.81755" cy="206.88751" rx="5.0949697" ry="0.98674309" transform="matrix(0.94865772,-0.31630452,0.70701144,0.70720212,0,0)"></ellipse></g><g transform="translate(0 1.8) rotate(-10 31 141)" fill="#ecfccb"><rect x="23.5" y="138" width="15" height="6" rx="2"></rect><path d="M 31 128 L 46 133 L 31 138 L 16 133 Z"></path><path d="M 31 133 Q 43 132 44.5 140" fill="none" stroke="#365314" stroke-width="1.3" stroke-linecap="round"></path><circle cx="31" cy="133" r="1.2" fill="#365314"></circle><circle cx="44.5" cy="141.5" r="1.8" fill="#365314"></circle></g><ellipse fill="#365314" cx="31.00935" cy="158.27187" rx="11.1125" ry="11.112499"></ellipse><g style="transition:transform 0.12s ease-out;will-change:transform"><g class="bird-pupil"><g><ellipse fill="#365314" cx="32.067684" cy="158.27187" rx="4.7624998" ry="4.7624993"></ellipse></g></g></g><g clip-path="url(#_b88_0_-eye)"></g><path d="M 24.5 156.5 Q 31 163.5 37.5 156.5" fill="none" stroke="#ecfccb" stroke-width="2.6" stroke-linecap="round"></path></g></g></g></g></svg>
<text x="612" y="149" text-anchor="middle" font-family="system-ui, sans-serif" font-size="10" font-weight="500" fill="#9ca3af">Honeydew</text>
<svg x="686" y="16" width="120" height="120" viewBox="0 0 120 120" preserveAspectRatio="xMidYMid slice" role="img" aria-label="Lio graduate - giant white bird, heart pupil, blue board, on yellow-to-red"><defs><linearGradient id="_b89_0_-bg" x1="0" y1="0" x2="1" y2="1"><stop offset="0" stop-color="#facc15"></stop><stop offset="1" stop-color="#ef4444"></stop></linearGradient><clipPath id="_b89_0_-tile"><rect width="120" height="120" rx="32"></rect></clipPath><clipPath id="_b89_0_-eye"><circle cx="31.00935" cy="158.27187" r="11.7"></circle></clipPath></defs><rect width="120" height="120" rx="32" fill="url(#_b89_0_-bg)"></rect><g clip-path="url(#_b89_0_-tile)"><g transform="translate(-3.9 -238.71) scale(1.9)"><g class="bird-emote"><g style="transform-box:fill-box;transform-origin:50% 100%"><g><ellipse class="bird-toe" data-anchor="20.857 187.402" fill="#7f1d1d" cx="153.34886" cy="179.45131" rx="4.9235578" ry="1.0323864" transform="matrix(0.93458067,0.35575125,-0.65858761,0.75250405,0,0)"></ellipse><ellipse fill="#7f1d1d" cx="20.664642" cy="183.11169" rx="2.0929158" ry="5.5265679"></ellipse><ellipse fill="#7f1d1d" cx="40.032341" cy="184.09807" rx="1.6472523" ry="4.4285111"></ellipse><path fill="#ffffff" d="M 37.74 156.50 L 38.69 167.46 L 60.14 154.56 Z"></path><path fill="#ffffff" d="M 36.79 145.55 L 60.14 154.56 L 37.74 156.50 Z"></path><path fill="#ffffff" d="M 30.15 142.59 L 32.04 142.59 L 33.93 142.71 L 35.80 142.98 L 37.63 143.46 L 39.37 144.17 L 40.98 145.16 L 42.40 146.41 L 43.59 147.87 L 44.57 149.48 L 45.38 151.19 L 46.06 152.96 L 46.63 154.76 L 47.12 156.58 L 47.55 158.43 L 47.93 160.28 L 48.27 162.14 L 48.59 164.00 L 48.89 165.87 L 49.12 167.75 L 49.25 169.63 L 49.25 171.52 L 49.09 173.41 L 48.74 175.26 L 48.18 177.07 L 47.40 178.79 L 46.33 180.35 L 45.05 181.73 L 43.55 182.88 L 41.91 183.81 L 40.16 184.53 L 38.34 185.05 L 36.49 185.40 L 34.61 185.61 L 32.72 185.71 L 30.83 185.72 L 28.94 185.68 L 27.05 185.59 L 25.16 185.44 L 23.29 185.21 L 21.43 184.88 L 19.59 184.43 L 17.80 183.81 L 16.09 183.02 L 14.48 182.02 L 13.03 180.82 L 11.77 179.42 L 10.75 177.83 L 9.95 176.11 L 9.37 174.32 L 8.97 172.47 L 8.72 170.60 L 8.62 168.71 L 8.65 166.82 L 8.76 164.93 L 8.97 163.05 L 9.31 161.19 L 9.76 159.36 L 10.33 157.56 L 11.03 155.80 L 11.86 154.10 L 12.81 152.47 L 13.89 150.92 L 15.10 149.47 L 16.43 148.12 L 17.87 146.90 L 19.41 145.81 L 21.06 144.88 L 22.78 144.10 L 24.57 143.48 L 26.40 143.02 L 28.27 142.73 Z"></path><ellipse class="bird-toe" data-anchor="40.184 187.535" fill="#7f1d1d" cx="165.93597" cy="170.54491" rx="3.8840909" ry="0.82091522" transform="matrix(0.93242696,0.36135851,-0.65187735,0.75832441,0,0)"></ellipse><ellipse class="bird-toe" data-anchor="40.184 187.535" fill="#7f1d1d" cx="189.64407" cy="-24.811516" rx="3.1437743" ry="1.0536716" transform="matrix(0.08211358,0.99662297,-0.99901441,-0.04438722,0,0)"></ellipse><ellipse class="bird-toe" data-anchor="40.184 187.535" fill="#7f1d1d" cx="-118.11807" cy="212.07419" rx="4.0173759" ry="0.78369194" transform="matrix(0.94692824,-0.32144506,0.70063768,0.71351723,0,0)"></ellipse><ellipse class="bird-toe" data-anchor="20.857 187.402" fill="#7f1d1d" cx="191.05363" cy="-5.1148601" rx="3.9237621" ry="1.3386955" transform="matrix(0.0835902,0.99650023,-0.99904909,-0.04359927,0,0)"></ellipse><ellipse class="bird-toe" data-anchor="20.857 187.402" fill="#7f1d1d" cx="-136.81755" cy="206.88751" rx="5.0949697" ry="0.98674309" transform="matrix(0.94865772,-0.31630452,0.70701144,0.70720212,0,0)"></ellipse></g><g transform="translate(0 1.8) rotate(-10 31 141)" fill="#1d4ed8"><rect x="23.5" y="138" width="15" height="6" rx="2"></rect><path d="M 31 128 L 46 133 L 31 138 L 16 133 Z"></path><path d="M 31 133 Q 43 132 44.5 140" fill="none" stroke="#ffd54f" stroke-width="1.3" stroke-linecap="round"></path><circle cx="31" cy="133" r="1.2" fill="#ffd54f"></circle><circle cx="44.5" cy="141.5" r="1.8" fill="#ffd54f"></circle></g><g><ellipse fill="#fde047" cx="20.5" cy="166.8" rx="2.9" ry="1.8"></ellipse></g><g><ellipse fill="#fde047" cx="41.5" cy="166.8" rx="2.9" ry="1.8"></ellipse></g><ellipse fill="#ffffff" cx="31.00935" cy="158.27187" rx="11.1125" ry="11.112499"></ellipse><g style="transition:transform 0.12s ease-out;will-change:transform"><g class="bird-pupil"><g><path fill="#dc2626" d="M 32.07 162.6 C 27.5 158.8 26.6 155.6 28.4 153.9 C 30.0 152.4 32.07 153.6 32.07 155.2 C 32.07 153.6 34.1 152.4 35.7 153.9 C 37.5 155.6 36.6 158.8 32.07 162.6 Z"></path></g></g></g><g clip-path="url(#_b89_0_-eye)"></g></g></g></g></g></svg>
<text x="746" y="149" text-anchor="middle" font-family="system-ui, sans-serif" font-size="10" font-weight="500" fill="#9ca3af">Circus</text>
<svg x="16" y="168" width="120" height="120" viewBox="0 0 120 120" preserveAspectRatio="xMidYMid slice" role="img" aria-label="Lio graduate - giant gooey pale bird, dark socket with white ring, on warm charcoal"><defs><linearGradient id="_b90_0_-bg" x1="0" y1="0" x2="0" y2="1"><stop offset="0" stop-color="#44403c"></stop><stop offset="1" stop-color="#1c1917"></stop></linearGradient><clipPath id="_b90_0_-tile"><rect width="120" height="120" rx="32"></rect></clipPath><clipPath id="_b90_0_-eye"><circle cx="31.00935" cy="158.27187" r="11.7"></circle></clipPath><filter id="_b90_0_-goo" x="-10%" y="-10%" width="120%" height="120%"><feGaussianBlur stdDeviation="0.45"></feGaussianBlur></filter></defs><rect width="120" height="120" rx="32" fill="url(#_b90_0_-bg)"></rect><g clip-path="url(#_b90_0_-tile)"><g transform="translate(-3.9 -238.71) scale(1.9)"><g class="bird-emote"><g style="transform-box:fill-box;transform-origin:50% 100%"><g filter="url(#_b90_0_-goo)"><ellipse class="bird-toe" data-anchor="20.857 187.402" fill="#e7e5e4" cx="153.34886" cy="179.45131" rx="4.9235578" ry="1.0323864" transform="matrix(0.93458067,0.35575125,-0.65858761,0.75250405,0,0)"></ellipse><ellipse fill="#e7e5e4" cx="20.664642" cy="183.11169" rx="2.0929158" ry="5.5265679"></ellipse><ellipse fill="#e7e5e4" cx="40.032341" cy="184.09807" rx="1.6472523" ry="4.4285111"></ellipse><path fill="#e7e5e4" d="M 37.74 156.50 L 38.69 167.46 L 60.14 154.56 Z"></path><path fill="#e7e5e4" d="M 36.79 145.55 L 60.14 154.56 L 37.74 156.50 Z"></path><path fill="#e7e5e4" d="M 30.15 142.59 L 32.04 142.59 L 33.93 142.71 L 35.80 142.98 L 37.63 143.46 L 39.37 144.17 L 40.98 145.16 L 42.40 146.41 L 43.59 147.87 L 44.57 149.48 L 45.38 151.19 L 46.06 152.96 L 46.63 154.76 L 47.12 156.58 L 47.55 158.43 L 47.93 160.28 L 48.27 162.14 L 48.59 164.00 L 48.89 165.87 L 49.12 167.75 L 49.25 169.63 L 49.25 171.52 L 49.09 173.41 L 48.74 175.26 L 48.18 177.07 L 47.40 178.79 L 46.33 180.35 L 45.05 181.73 L 43.55 182.88 L 41.91 183.81 L 40.16 184.53 L 38.34 185.05 L 36.49 185.40 L 34.61 185.61 L 32.72 185.71 L 30.83 185.72 L 28.94 185.68 L 27.05 185.59 L 25.16 185.44 L 23.29 185.21 L 21.43 184.88 L 19.59 184.43 L 17.80 183.81 L 16.09 183.02 L 14.48 182.02 L 13.03 180.82 L 11.77 179.42 L 10.75 177.83 L 9.95 176.11 L 9.37 174.32 L 8.97 172.47 L 8.72 170.60 L 8.62 168.71 L 8.65 166.82 L 8.76 164.93 L 8.97 163.05 L 9.31 161.19 L 9.76 159.36 L 10.33 157.56 L 11.03 155.80 L 11.86 154.10 L 12.81 152.47 L 13.89 150.92 L 15.10 149.47 L 16.43 148.12 L 17.87 146.90 L 19.41 145.81 L 21.06 144.88 L 22.78 144.10 L 24.57 143.48 L 26.40 143.02 L 28.27 142.73 Z"></path><ellipse class="bird-toe" data-anchor="40.184 187.535" fill="#e7e5e4" cx="165.93597" cy="170.54491" rx="3.8840909" ry="0.82091522" transform="matrix(0.93242696,0.36135851,-0.65187735,0.75832441,0,0)"></ellipse><ellipse class="bird-toe" data-anchor="40.184 187.535" fill="#e7e5e4" cx="189.64407" cy="-24.811516" rx="3.1437743" ry="1.0536716" transform="matrix(0.08211358,0.99662297,-0.99901441,-0.04438722,0,0)"></ellipse><ellipse class="bird-toe" data-anchor="40.184 187.535" fill="#e7e5e4" cx="-118.11807" cy="212.07419" rx="4.0173759" ry="0.78369194" transform="matrix(0.94692824,-0.32144506,0.70063768,0.71351723,0,0)"></ellipse><ellipse class="bird-toe" data-anchor="20.857 187.402" fill="#e7e5e4" cx="191.05363" cy="-5.1148601" rx="3.9237621" ry="1.3386955" transform="matrix(0.0835902,0.99650023,-0.99904909,-0.04359927,0,0)"></ellipse><ellipse class="bird-toe" data-anchor="20.857 187.402" fill="#e7e5e4" cx="-136.81755" cy="206.88751" rx="5.0949697" ry="0.98674309" transform="matrix(0.94865772,-0.31630452,0.70701144,0.70720212,0,0)"></ellipse></g><g transform="translate(0 1.8) rotate(-10 31 141)" fill="#e7e5e4"><rect x="23.5" y="138" width="15" height="6" rx="2"></rect><path d="M 31 128 L 46 133 L 31 138 L 16 133 Z"></path><path d="M 31 133 Q 43 132 44.5 140" fill="none" stroke="#1c1917" stroke-width="1.3" stroke-linecap="round"></path><circle cx="31" cy="133" r="1.2" fill="#1c1917"></circle><circle cx="44.5" cy="141.5" r="1.8" fill="#1c1917"></circle></g><ellipse fill="#1c1917" cx="31.00935" cy="158.27187" rx="11.1125" ry="11.112499"></ellipse><g style="transition:transform 0.12s ease-out;will-change:transform"><g class="bird-pupil"><g><circle fill="none" stroke="#e7e5e4" stroke-width="2.6" cx="32.067684" cy="158.27187" r="3.4"></circle></g></g></g><g clip-path="url(#_b90_0_-eye)"></g></g></g></g></g></svg>
<text x="76" y="301" text-anchor="middle" font-family="system-ui, sans-serif" font-size="10" font-weight="500" fill="#9ca3af">Phantom</text>
<svg x="150" y="168" width="120" height="120" viewBox="0 0 120 120" preserveAspectRatio="xMidYMid slice" role="img" aria-label="Lio graduate - giant dark-teal bird, star pupil, on teal-to-pink diagonal"><defs><linearGradient id="_b91_0_-bg" x1="0" y1="0" x2="1" y2="1"><stop offset="0" stop-color="#2dd4bf"></stop><stop offset="1" stop-color="#f472b6"></stop></linearGradient><clipPath id="_b91_0_-tile"><rect width="120" height="120" rx="32"></rect></clipPath><clipPath id="_b91_0_-eye"><circle cx="31.00935" cy="158.27187" r="11.7"></circle></clipPath></defs><rect width="120" height="120" rx="32" fill="url(#_b91_0_-bg)"></rect><g clip-path="url(#_b91_0_-tile)"><g transform="translate(-3.9 -238.71) scale(1.9)"><g class="bird-emote"><g style="transform-box:fill-box;transform-origin:50% 100%"><g><ellipse class="bird-toe" data-anchor="20.857 187.402" fill="#134e4a" cx="153.34886" cy="179.45131" rx="4.9235578" ry="1.0323864" transform="matrix(0.93458067,0.35575125,-0.65858761,0.75250405,0,0)"></ellipse><ellipse fill="#134e4a" cx="20.664642" cy="183.11169" rx="2.0929158" ry="5.5265679"></ellipse><ellipse fill="#134e4a" cx="40.032341" cy="184.09807" rx="1.6472523" ry="4.4285111"></ellipse><path fill="#134e4a" d="M 37.74 156.50 L 38.69 167.46 L 60.14 154.56 Z"></path><path fill="#134e4a" d="M 36.79 145.55 L 60.14 154.56 L 37.74 156.50 Z"></path><path fill="#134e4a" d="M 30.15 142.59 L 32.04 142.59 L 33.93 142.71 L 35.80 142.98 L 37.63 143.46 L 39.37 144.17 L 40.98 145.16 L 42.40 146.41 L 43.59 147.87 L 44.57 149.48 L 45.38 151.19 L 46.06 152.96 L 46.63 154.76 L 47.12 156.58 L 47.55 158.43 L 47.93 160.28 L 48.27 162.14 L 48.59 164.00 L 48.89 165.87 L 49.12 167.75 L 49.25 169.63 L 49.25 171.52 L 49.09 173.41 L 48.74 175.26 L 48.18 177.07 L 47.40 178.79 L 46.33 180.35 L 45.05 181.73 L 43.55 182.88 L 41.91 183.81 L 40.16 184.53 L 38.34 185.05 L 36.49 185.40 L 34.61 185.61 L 32.72 185.71 L 30.83 185.72 L 28.94 185.68 L 27.05 185.59 L 25.16 185.44 L 23.29 185.21 L 21.43 184.88 L 19.59 184.43 L 17.80 183.81 L 16.09 183.02 L 14.48 182.02 L 13.03 180.82 L 11.77 179.42 L 10.75 177.83 L 9.95 176.11 L 9.37 174.32 L 8.97 172.47 L 8.72 170.60 L 8.62 168.71 L 8.65 166.82 L 8.76 164.93 L 8.97 163.05 L 9.31 161.19 L 9.76 159.36 L 10.33 157.56 L 11.03 155.80 L 11.86 154.10 L 12.81 152.47 L 13.89 150.92 L 15.10 149.47 L 16.43 148.12 L 17.87 146.90 L 19.41 145.81 L 21.06 144.88 L 22.78 144.10 L 24.57 143.48 L 26.40 143.02 L 28.27 142.73 Z"></path><ellipse class="bird-toe" data-anchor="40.184 187.535" fill="#134e4a" cx="165.93597" cy="170.54491" rx="3.8840909" ry="0.82091522" transform="matrix(0.93242696,0.36135851,-0.65187735,0.75832441,0,0)"></ellipse><ellipse class="bird-toe" data-anchor="40.184 187.535" fill="#134e4a" cx="189.64407" cy="-24.811516" rx="3.1437743" ry="1.0536716" transform="matrix(0.08211358,0.99662297,-0.99901441,-0.04438722,0,0)"></ellipse><ellipse class="bird-toe" data-anchor="40.184 187.535" fill="#134e4a" cx="-118.11807" cy="212.07419" rx="4.0173759" ry="0.78369194" transform="matrix(0.94692824,-0.32144506,0.70063768,0.71351723,0,0)"></ellipse><ellipse class="bird-toe" data-anchor="20.857 187.402" fill="#134e4a" cx="191.05363" cy="-5.1148601" rx="3.9237621" ry="1.3386955" transform="matrix(0.0835902,0.99650023,-0.99904909,-0.04359927,0,0)"></ellipse><ellipse class="bird-toe" data-anchor="20.857 187.402" fill="#134e4a" cx="-136.81755" cy="206.88751" rx="5.0949697" ry="0.98674309" transform="matrix(0.94865772,-0.31630452,0.70701144,0.70720212,0,0)"></ellipse></g><g transform="translate(0 1.8) rotate(-10 31 141)" fill="#134e4a"><rect x="23.5" y="138" width="15" height="6" rx="2"></rect><path d="M 31 128 L 46 133 L 31 138 L 16 133 Z"></path><path d="M 31 133 Q 43 132 44.5 140" fill="none" stroke="#f472b6" stroke-width="1.3" stroke-linecap="round"></path><circle cx="31" cy="133" r="1.2" fill="#f472b6"></circle><circle cx="44.5" cy="141.5" r="1.8" fill="#f472b6"></circle></g><ellipse fill="#ccfbf1" cx="31.00935" cy="158.27187" rx="11.1125" ry="11.112499"></ellipse><g style="transition:transform 0.12s ease-out;will-change:transform"><g class="bird-pupil"><g><path fill="#134e4a" d="M 32.07 152.67 L 33.42 156.41 L 37.40 156.54 L 34.26 158.98 L 35.36 162.80 L 32.07 160.57 L 28.78 162.80 L 29.88 158.98 L 26.74 156.54 L 30.72 156.41 Z"></path></g></g></g><g clip-path="url(#_b91_0_-eye)"></g></g></g></g></g></svg>
<text x="210" y="301" text-anchor="middle" font-family="system-ui, sans-serif" font-size="10" font-weight="500" fill="#9ca3af">Coraline</text>
<svg x="284" y="168" width="120" height="120" viewBox="0 0 120 120" preserveAspectRatio="xMidYMid slice" role="img" aria-label="Lio graduate - giant lemon bird with a huge anime eye on powder blue"><defs><linearGradient id="_b92_0_-bg" x1="0" y1="0" x2="0" y2="1"><stop offset="0" stop-color="#bfdbfe"></stop><stop offset="1" stop-color="#3b82f6"></stop></linearGradient><clipPath id="_b92_0_-tile"><rect width="120" height="120" rx="32"></rect></clipPath><clipPath id="_b92_0_-eye"><circle cx="31.00935" cy="158.27187" r="14.625"></circle></clipPath></defs><rect width="120" height="120" rx="32" fill="url(#_b92_0_-bg)"></rect><g clip-path="url(#_b92_0_-tile)"><g transform="translate(-3.9 -238.71) scale(1.9)"><g class="bird-emote"><g style="transform-box:fill-box;transform-origin:50% 100%"><g><ellipse class="bird-toe" data-anchor="20.857 187.402" fill="#1e3a8a" cx="153.34886" cy="179.45131" rx="4.9235578" ry="1.0323864" transform="matrix(0.93458067,0.35575125,-0.65858761,0.75250405,0,0)"></ellipse><ellipse fill="#1e3a8a" cx="20.664642" cy="183.11169" rx="2.0929158" ry="5.5265679"></ellipse><ellipse fill="#1e3a8a" cx="40.032341" cy="184.09807" rx="1.6472523" ry="4.4285111"></ellipse><path fill="#f59e0b" d="M 37.74 156.50 L 38.69 167.46 L 60.14 154.56 Z"></path><path fill="#f59e0b" d="M 36.79 145.55 L 60.14 154.56 L 37.74 156.50 Z"></path><path fill="#fde047" d="M 30.15 142.59 L 32.04 142.59 L 33.93 142.71 L 35.80 142.98 L 37.63 143.46 L 39.37 144.17 L 40.98 145.16 L 42.40 146.41 L 43.59 147.87 L 44.57 149.48 L 45.38 151.19 L 46.06 152.96 L 46.63 154.76 L 47.12 156.58 L 47.55 158.43 L 47.93 160.28 L 48.27 162.14 L 48.59 164.00 L 48.89 165.87 L 49.12 167.75 L 49.25 169.63 L 49.25 171.52 L 49.09 173.41 L 48.74 175.26 L 48.18 177.07 L 47.40 178.79 L 46.33 180.35 L 45.05 181.73 L 43.55 182.88 L 41.91 183.81 L 40.16 184.53 L 38.34 185.05 L 36.49 185.40 L 34.61 185.61 L 32.72 185.71 L 30.83 185.72 L 28.94 185.68 L 27.05 185.59 L 25.16 185.44 L 23.29 185.21 L 21.43 184.88 L 19.59 184.43 L 17.80 183.81 L 16.09 183.02 L 14.48 182.02 L 13.03 180.82 L 11.77 179.42 L 10.75 177.83 L 9.95 176.11 L 9.37 174.32 L 8.97 172.47 L 8.72 170.60 L 8.62 168.71 L 8.65 166.82 L 8.76 164.93 L 8.97 163.05 L 9.31 161.19 L 9.76 159.36 L 10.33 157.56 L 11.03 155.80 L 11.86 154.10 L 12.81 152.47 L 13.89 150.92 L 15.10 149.47 L 16.43 148.12 L 17.87 146.90 L 19.41 145.81 L 21.06 144.88 L 22.78 144.10 L 24.57 143.48 L 26.40 143.02 L 28.27 142.73 Z"></path><ellipse class="bird-toe" data-anchor="40.184 187.535" fill="#1e3a8a" cx="165.93597" cy="170.54491" rx="3.8840909" ry="0.82091522" transform="matrix(0.93242696,0.36135851,-0.65187735,0.75832441,0,0)"></ellipse><ellipse class="bird-toe" data-anchor="40.184 187.535" fill="#1e3a8a" cx="189.64407" cy="-24.811516" rx="3.1437743" ry="1.0536716" transform="matrix(0.08211358,0.99662297,-0.99901441,-0.04438722,0,0)"></ellipse><ellipse class="bird-toe" data-anchor="40.184 187.535" fill="#1e3a8a" cx="-118.11807" cy="212.07419" rx="4.0173759" ry="0.78369194" transform="matrix(0.94692824,-0.32144506,0.70063768,0.71351723,0,0)"></ellipse><ellipse class="bird-toe" data-anchor="20.857 187.402" fill="#1e3a8a" cx="191.05363" cy="-5.1148601" rx="3.9237621" ry="1.3386955" transform="matrix(0.0835902,0.99650023,-0.99904909,-0.04359927,0,0)"></ellipse><ellipse class="bird-toe" data-anchor="20.857 187.402" fill="#1e3a8a" cx="-136.81755" cy="206.88751" rx="5.0949697" ry="0.98674309" transform="matrix(0.94865772,-0.31630452,0.70701144,0.70720212,0,0)"></ellipse></g><g transform="translate(0 0) rotate(-10 31 141)" fill="#1e3a8a"><rect x="23.5" y="138" width="15" height="6" rx="2"></rect><path d="M 31 128 L 46 133 L 31 138 L 16 133 Z"></path><path d="M 31 133 Q 43 132 44.5 140" fill="none" stroke="#ffd54f" stroke-width="1.3" stroke-linecap="round"></path><circle cx="31" cy="133" r="1.2" fill="#ffd54f"></circle><circle cx="44.5" cy="141.5" r="1.8" fill="#ffd54f"></circle></g><g><ellipse fill="#fbbf24" cx="20.5" cy="166.8" rx="2.9" ry="1.8"></ellipse></g><g><ellipse fill="#fbbf24" cx="41.5" cy="166.8" rx="2.9" ry="1.8"></ellipse></g><ellipse fill="#ffffff" cx="31.00935" cy="158.27187" rx="13.890625" ry="13.89062375"></ellipse><g style="transition:transform 0.12s ease-out;will-change:transform"><g class="bird-pupil"><g><ellipse fill="#1e3a8a" cx="32.067684" cy="158.27187" rx="6.19124974" ry="6.19124909"></ellipse><circle fill="#ffffff" cx="35.1215" cy="155.30949999999999" r="1.9"></circle><circle fill="#ffffff" cx="30.1215" cy="161.18449999999999" r="0.95"></circle></g></g></g><g clip-path="url(#_b92_0_-eye)"></g></g></g></g></g></svg>
<text x="344" y="301" text-anchor="middle" font-family="system-ui, sans-serif" font-size="10" font-weight="500" fill="#9ca3af">Butterball</text>
<svg x="418" y="168" width="120" height="120" viewBox="0 0 120 120" preserveAspectRatio="xMidYMid slice" role="img" aria-label="Lio graduate - giant orchid bird, lashes, gold board, on royal purple"><defs><linearGradient id="_b93_0_-bg" x1="0" y1="0" x2="1" y2="1"><stop offset="0" stop-color="#701a75"></stop><stop offset="1" stop-color="#2e1065"></stop></linearGradient><clipPath id="_b93_0_-tile"><rect width="120" height="120" rx="32"></rect></clipPath><clipPath id="_b93_0_-eye"><circle cx="31.00935" cy="158.27187" r="11.7"></circle></clipPath></defs><rect width="120" height="120" rx="32" fill="url(#_b93_0_-bg)"></rect><g clip-path="url(#_b93_0_-tile)"><g transform="translate(-3.9 -238.71) scale(1.9)"><g class="bird-emote"><g style="transform-box:fill-box;transform-origin:50% 100%"><g><ellipse class="bird-toe" data-anchor="20.857 187.402" fill="#f5d0fe" cx="153.34886" cy="179.45131" rx="4.9235578" ry="1.0323864" transform="matrix(0.93458067,0.35575125,-0.65858761,0.75250405,0,0)"></ellipse><ellipse fill="#f5d0fe" cx="20.664642" cy="183.11169" rx="2.0929158" ry="5.5265679"></ellipse><ellipse fill="#f5d0fe" cx="40.032341" cy="184.09807" rx="1.6472523" ry="4.4285111"></ellipse><path fill="#f5d0fe" d="M 37.74 156.50 L 38.69 167.46 L 60.14 154.56 Z"></path><path fill="#f5d0fe" d="M 36.79 145.55 L 60.14 154.56 L 37.74 156.50 Z"></path><path fill="#f5d0fe" d="M 30.15 142.59 L 32.04 142.59 L 33.93 142.71 L 35.80 142.98 L 37.63 143.46 L 39.37 144.17 L 40.98 145.16 L 42.40 146.41 L 43.59 147.87 L 44.57 149.48 L 45.38 151.19 L 46.06 152.96 L 46.63 154.76 L 47.12 156.58 L 47.55 158.43 L 47.93 160.28 L 48.27 162.14 L 48.59 164.00 L 48.89 165.87 L 49.12 167.75 L 49.25 169.63 L 49.25 171.52 L 49.09 173.41 L 48.74 175.26 L 48.18 177.07 L 47.40 178.79 L 46.33 180.35 L 45.05 181.73 L 43.55 182.88 L 41.91 183.81 L 40.16 184.53 L 38.34 185.05 L 36.49 185.40 L 34.61 185.61 L 32.72 185.71 L 30.83 185.72 L 28.94 185.68 L 27.05 185.59 L 25.16 185.44 L 23.29 185.21 L 21.43 184.88 L 19.59 184.43 L 17.80 183.81 L 16.09 183.02 L 14.48 182.02 L 13.03 180.82 L 11.77 179.42 L 10.75 177.83 L 9.95 176.11 L 9.37 174.32 L 8.97 172.47 L 8.72 170.60 L 8.62 168.71 L 8.65 166.82 L 8.76 164.93 L 8.97 163.05 L 9.31 161.19 L 9.76 159.36 L 10.33 157.56 L 11.03 155.80 L 11.86 154.10 L 12.81 152.47 L 13.89 150.92 L 15.10 149.47 L 16.43 148.12 L 17.87 146.90 L 19.41 145.81 L 21.06 144.88 L 22.78 144.10 L 24.57 143.48 L 26.40 143.02 L 28.27 142.73 Z"></path><ellipse class="bird-toe" data-anchor="40.184 187.535" fill="#f5d0fe" cx="165.93597" cy="170.54491" rx="3.8840909" ry="0.82091522" transform="matrix(0.93242696,0.36135851,-0.65187735,0.75832441,0,0)"></ellipse><ellipse class="bird-toe" data-anchor="40.184 187.535" fill="#f5d0fe" cx="189.64407" cy="-24.811516" rx="3.1437743" ry="1.0536716" transform="matrix(0.08211358,0.99662297,-0.99901441,-0.04438722,0,0)"></ellipse><ellipse class="bird-toe" data-anchor="40.184 187.535" fill="#f5d0fe" cx="-118.11807" cy="212.07419" rx="4.0173759" ry="0.78369194" transform="matrix(0.94692824,-0.32144506,0.70063768,0.71351723,0,0)"></ellipse><ellipse class="bird-toe" data-anchor="20.857 187.402" fill="#f5d0fe" cx="191.05363" cy="-5.1148601" rx="3.9237621" ry="1.3386955" transform="matrix(0.0835902,0.99650023,-0.99904909,-0.04359927,0,0)"></ellipse><ellipse class="bird-toe" data-anchor="20.857 187.402" fill="#f5d0fe" cx="-136.81755" cy="206.88751" rx="5.0949697" ry="0.98674309" transform="matrix(0.94865772,-0.31630452,0.70701144,0.70720212,0,0)"></ellipse></g><g transform="translate(0 1.8) rotate(-10 31 141)" fill="#fbbf24"><rect x="23.5" y="138" width="15" height="6" rx="2"></rect><path d="M 31 128 L 46 133 L 31 138 L 16 133 Z"></path><path d="M 31 133 Q 43 132 44.5 140" fill="none" stroke="#701a75" stroke-width="1.3" stroke-linecap="round"></path><circle cx="31" cy="133" r="1.2" fill="#701a75"></circle><circle cx="44.5" cy="141.5" r="1.8" fill="#701a75"></circle></g><g><ellipse fill="#f0abfc" cx="20.5" cy="166.8" rx="2.9" ry="1.8"></ellipse></g><g><ellipse fill="#f0abfc" cx="41.5" cy="166.8" rx="2.9" ry="1.8"></ellipse></g><ellipse fill="#ffffff" cx="31.00935" cy="158.27187" rx="11.1125" ry="11.112499"></ellipse><g style="transition:transform 0.12s ease-out;will-change:transform"><g class="bird-pupil"><g><ellipse fill="#701a75" cx="32.067684" cy="158.27187" rx="4.7624998" ry="4.7624993"></ellipse></g></g></g><g clip-path="url(#_b93_0_-eye)"></g><path d="M 38.86 150.41 L 40.98 148.29 M 41.07 153.57 L 43.79 152.30 M 42.07 157.30 L 45.07 157.04" fill="none" stroke="#701a75" stroke-width="1.4" stroke-linecap="round"></path></g></g></g></g></svg>
<text x="478" y="301" text-anchor="middle" font-family="system-ui, sans-serif" font-size="10" font-weight="500" fill="#9ca3af">Sovereign</text>
<svg x="552" y="168" width="120" height="120" viewBox="0 0 120 120" preserveAspectRatio="xMidYMid slice" role="img" aria-label="Lio graduate - giant neon-green sticker bird, star pupil, zigzag, on black"><defs><linearGradient id="_b94_0_-bg" x1="0" y1="0" x2="0" y2="1"><stop offset="0" stop-color="#18181b"></stop><stop offset="1" stop-color="#010102"></stop></linearGradient><clipPath id="_b94_0_-tile"><rect width="120" height="120" rx="32"></rect></clipPath><clipPath id="_b94_0_-eye"><circle cx="31.00935" cy="158.27187" r="11.7"></circle></clipPath></defs><rect width="120" height="120" rx="32" fill="url(#_b94_0_-bg)"></rect><g clip-path="url(#_b94_0_-tile)"><g transform="translate(-3.9 -238.71) scale(1.9)"><g class="bird-emote"><g style="transform-box:fill-box;transform-origin:50% 100%"><g><ellipse class="bird-toe" data-anchor="20.857 187.402" fill="#022c22" cx="153.34886" cy="179.45131" rx="4.9235578" ry="1.0323864" transform="matrix(0.93458067,0.35575125,-0.65858761,0.75250405,0,0)"></ellipse><ellipse fill="#022c22" cx="20.664642" cy="183.11169" rx="2.0929158" ry="5.5265679"></ellipse><ellipse fill="#022c22" cx="40.032341" cy="184.09807" rx="1.6472523" ry="4.4285111"></ellipse><path fill="#4ade80" d="M 37.74 156.50 L 38.69 167.46 L 60.14 154.56 Z" stroke="#022c22" stroke-width="2.5" stroke-linejoin="round" paint-order="stroke"></path><path fill="#4ade80" d="M 36.79 145.55 L 60.14 154.56 L 37.74 156.50 Z" stroke="#022c22" stroke-width="2.5" stroke-linejoin="round" paint-order="stroke"></path><path fill="#4ade80" d="M 30.15 142.59 L 32.04 142.59 L 33.93 142.71 L 35.80 142.98 L 37.63 143.46 L 39.37 144.17 L 40.98 145.16 L 42.40 146.41 L 43.59 147.87 L 44.57 149.48 L 45.38 151.19 L 46.06 152.96 L 46.63 154.76 L 47.12 156.58 L 47.55 158.43 L 47.93 160.28 L 48.27 162.14 L 48.59 164.00 L 48.89 165.87 L 49.12 167.75 L 49.25 169.63 L 49.25 171.52 L 49.09 173.41 L 48.74 175.26 L 48.18 177.07 L 47.40 178.79 L 46.33 180.35 L 45.05 181.73 L 43.55 182.88 L 41.91 183.81 L 40.16 184.53 L 38.34 185.05 L 36.49 185.40 L 34.61 185.61 L 32.72 185.71 L 30.83 185.72 L 28.94 185.68 L 27.05 185.59 L 25.16 185.44 L 23.29 185.21 L 21.43 184.88 L 19.59 184.43 L 17.80 183.81 L 16.09 183.02 L 14.48 182.02 L 13.03 180.82 L 11.77 179.42 L 10.75 177.83 L 9.95 176.11 L 9.37 174.32 L 8.97 172.47 L 8.72 170.60 L 8.62 168.71 L 8.65 166.82 L 8.76 164.93 L 8.97 163.05 L 9.31 161.19 L 9.76 159.36 L 10.33 157.56 L 11.03 155.80 L 11.86 154.10 L 12.81 152.47 L 13.89 150.92 L 15.10 149.47 L 16.43 148.12 L 17.87 146.90 L 19.41 145.81 L 21.06 144.88 L 22.78 144.10 L 24.57 143.48 L 26.40 143.02 L 28.27 142.73 Z" stroke="#022c22" stroke-width="2.5" stroke-linejoin="round" paint-order="stroke"></path><ellipse class="bird-toe" data-anchor="40.184 187.535" fill="#022c22" cx="165.93597" cy="170.54491" rx="3.8840909" ry="0.82091522" transform="matrix(0.93242696,0.36135851,-0.65187735,0.75832441,0,0)"></ellipse><ellipse class="bird-toe" data-anchor="40.184 187.535" fill="#022c22" cx="189.64407" cy="-24.811516" rx="3.1437743" ry="1.0536716" transform="matrix(0.08211358,0.99662297,-0.99901441,-0.04438722,0,0)"></ellipse><ellipse class="bird-toe" data-anchor="40.184 187.535" fill="#022c22" cx="-118.11807" cy="212.07419" rx="4.0173759" ry="0.78369194" transform="matrix(0.94692824,-0.32144506,0.70063768,0.71351723,0,0)"></ellipse><ellipse class="bird-toe" data-anchor="20.857 187.402" fill="#022c22" cx="191.05363" cy="-5.1148601" rx="3.9237621" ry="1.3386955" transform="matrix(0.0835902,0.99650023,-0.99904909,-0.04359927,0,0)"></ellipse><ellipse class="bird-toe" data-anchor="20.857 187.402" fill="#022c22" cx="-136.81755" cy="206.88751" rx="5.0949697" ry="0.98674309" transform="matrix(0.94865772,-0.31630452,0.70701144,0.70720212,0,0)"></ellipse></g><g transform="translate(0 1.8) rotate(-10 31 141)" fill="#022c22"><rect x="23.5" y="138" width="15" height="6" rx="2"></rect><path d="M 31 128 L 46 133 L 31 138 L 16 133 Z"></path><path d="M 31 133 Q 43 132 44.5 140" fill="none" stroke="#4ade80" stroke-width="1.3" stroke-linecap="round"></path><circle cx="31" cy="133" r="1.2" fill="#4ade80"></circle><circle cx="44.5" cy="141.5" r="1.8" fill="#4ade80"></circle></g><polyline points="33,167 35.5,170 38,167 40.5,170 43,167" fill="none" stroke="#022c22" stroke-width="1.6" stroke-linecap="round" stroke-linejoin="round"></polyline><ellipse fill="#dcfce7" cx="31.00935" cy="158.27187" rx="11.1125" ry="11.112499"></ellipse><g style="transition:transform 0.12s ease-out;will-change:transform"><g class="bird-pupil"><g><path fill="#022c22" d="M 32.07 152.67 L 33.42 156.41 L 37.40 156.54 L 34.26 158.98 L 35.36 162.80 L 32.07 160.57 L 28.78 162.80 L 29.88 158.98 L 26.74 156.54 L 30.72 156.41 Z"></path></g></g></g><g clip-path="url(#_b94_0_-eye)"></g></g></g></g></g></svg>
<text x="612" y="301" text-anchor="middle" font-family="system-ui, sans-serif" font-size="10" font-weight="500" fill="#9ca3af">Glitch</text>
<svg x="686" y="168" width="120" height="120" viewBox="0 0 120 120" preserveAspectRatio="xMidYMid slice" role="img" aria-label="Lio graduate - giant sleepy cream bird, fangs, heart pupil, on toast"><defs><linearGradient id="_b95_0_-bg" x1="0" y1="0" x2="1" y2="1"><stop offset="0" stop-color="#fb923c"></stop><stop offset="1" stop-color="#7c2d12"></stop></linearGradient><clipPath id="_b95_0_-tile"><rect width="120" height="120" rx="32"></rect></clipPath><clipPath id="_b95_0_-eye"><circle cx="31.00935" cy="158.27187" r="11.7"></circle></clipPath></defs><rect width="120" height="120" rx="32" fill="url(#_b95_0_-bg)"></rect><g clip-path="url(#_b95_0_-tile)"><g transform="translate(-3.9 -238.71) scale(1.9)"><g class="bird-emote"><g style="transform-box:fill-box;transform-origin:50% 100%"><g><ellipse class="bird-toe" data-anchor="20.857 187.402" fill="#ffedd5" cx="153.34886" cy="179.45131" rx="4.9235578" ry="1.0323864" transform="matrix(0.93458067,0.35575125,-0.65858761,0.75250405,0,0)"></ellipse><ellipse fill="#ffedd5" cx="20.664642" cy="183.11169" rx="2.0929158" ry="5.5265679"></ellipse><ellipse fill="#ffedd5" cx="40.032341" cy="184.09807" rx="1.6472523" ry="4.4285111"></ellipse><path fill="#ffedd5" d="M 37.74 156.50 L 38.69 167.46 L 60.14 154.56 Z"></path><path fill="#ffedd5" d="M 36.79 145.55 L 60.14 154.56 L 37.74 156.50 Z"></path><path fill="#ffedd5" d="M 45.56 163.33 L 49.50 160.96 L 50.62 167.29 Z M 50.49 160.37 L 54.09 158.20 L 54.87 163.57 Z"></path><path fill="#ffedd5" d="M 30.15 142.59 L 32.04 142.59 L 33.93 142.71 L 35.80 142.98 L 37.63 143.46 L 39.37 144.17 L 40.98 145.16 L 42.40 146.41 L 43.59 147.87 L 44.57 149.48 L 45.38 151.19 L 46.06 152.96 L 46.63 154.76 L 47.12 156.58 L 47.55 158.43 L 47.93 160.28 L 48.27 162.14 L 48.59 164.00 L 48.89 165.87 L 49.12 167.75 L 49.25 169.63 L 49.25 171.52 L 49.09 173.41 L 48.74 175.26 L 48.18 177.07 L 47.40 178.79 L 46.33 180.35 L 45.05 181.73 L 43.55 182.88 L 41.91 183.81 L 40.16 184.53 L 38.34 185.05 L 36.49 185.40 L 34.61 185.61 L 32.72 185.71 L 30.83 185.72 L 28.94 185.68 L 27.05 185.59 L 25.16 185.44 L 23.29 185.21 L 21.43 184.88 L 19.59 184.43 L 17.80 183.81 L 16.09 183.02 L 14.48 182.02 L 13.03 180.82 L 11.77 179.42 L 10.75 177.83 L 9.95 176.11 L 9.37 174.32 L 8.97 172.47 L 8.72 170.60 L 8.62 168.71 L 8.65 166.82 L 8.76 164.93 L 8.97 163.05 L 9.31 161.19 L 9.76 159.36 L 10.33 157.56 L 11.03 155.80 L 11.86 154.10 L 12.81 152.47 L 13.89 150.92 L 15.10 149.47 L 16.43 148.12 L 17.87 146.90 L 19.41 145.81 L 21.06 144.88 L 22.78 144.10 L 24.57 143.48 L 26.40 143.02 L 28.27 142.73 Z"></path><ellipse class="bird-toe" data-anchor="40.184 187.535" fill="#ffedd5" cx="165.93597" cy="170.54491" rx="3.8840909" ry="0.82091522" transform="matrix(0.93242696,0.36135851,-0.65187735,0.75832441,0,0)"></ellipse><ellipse class="bird-toe" data-anchor="40.184 187.535" fill="#ffedd5" cx="189.64407" cy="-24.811516" rx="3.1437743" ry="1.0536716" transform="matrix(0.08211358,0.99662297,-0.99901441,-0.04438722,0,0)"></ellipse><ellipse class="bird-toe" data-anchor="40.184 187.535" fill="#ffedd5" cx="-118.11807" cy="212.07419" rx="4.0173759" ry="0.78369194" transform="matrix(0.94692824,-0.32144506,0.70063768,0.71351723,0,0)"></ellipse><ellipse class="bird-toe" data-anchor="20.857 187.402" fill="#ffedd5" cx="191.05363" cy="-5.1148601" rx="3.9237621" ry="1.3386955" transform="matrix(0.0835902,0.99650023,-0.99904909,-0.04359927,0,0)"></ellipse><ellipse class="bird-toe" data-anchor="20.857 187.402" fill="#ffedd5" cx="-136.81755" cy="206.88751" rx="5.0949697" ry="0.98674309" transform="matrix(0.94865772,-0.31630452,0.70701144,0.70720212,0,0)"></ellipse></g><g transform="translate(0 1.8) rotate(-10 31 141)" fill="#7c2d12"><rect x="23.5" y="138" width="15" height="6" rx="2"></rect><path d="M 31 128 L 46 133 L 31 138 L 16 133 Z"></path><path d="M 31 133 Q 43 132 44.5 140" fill="none" stroke="#ffd54f" stroke-width="1.3" stroke-linecap="round"></path><circle cx="31" cy="133" r="1.2" fill="#ffd54f"></circle><circle cx="44.5" cy="141.5" r="1.8" fill="#ffd54f"></circle></g><g><ellipse fill="#fdba74" cx="20.5" cy="166.8" rx="2.9" ry="1.8"></ellipse></g><g><ellipse fill="#fdba74" cx="41.5" cy="166.8" rx="2.9" ry="1.8"></ellipse></g><ellipse fill="#ffffff" cx="31.00935" cy="158.27187" rx="11.1125" ry="11.112499"></ellipse><g style="transition:transform 0.12s ease-out;will-change:transform"><g class="bird-pupil"><g><path fill="#c2410c" d="M 32.07 162.6 C 27.5 158.8 26.6 155.6 28.4 153.9 C 30.0 152.4 32.07 153.6 32.07 155.2 C 32.07 153.6 34.1 152.4 35.7 153.9 C 37.5 155.6 36.6 158.8 32.07 162.6 Z"></path></g></g></g><g clip-path="url(#_b95_0_-eye)"><path fill="#ffedd5" d="M 19.31 146.57 H 42.71 V 158.8 Q 31.01 153.0 19.31 158.8 Z"></path></g></g></g></g></g></svg>
<text x="746" y="301" text-anchor="middle" font-family="system-ui, sans-serif" font-size="10" font-weight="500" fill="#9ca3af">Marmalade</text>
</svg>
