<svg xmlns="http://www.w3.org/2000/svg" viewBox="0 0 822 322" width="822" height="322">
<svg x="16" y="16" width="120" height="120" viewBox="0 0 120 120" preserveAspectRatio="xMidYMid slice" role="img" aria-label="Lio graduate - canary-yellow giant, anime eye, on royal violet"><defs><linearGradient id="_b108_0_-bg" x1="0" y1="0" x2="0" y2="1"><stop offset="0" stop-color="#7c3aed"></stop><stop offset="1" stop-color="#4c1d95"></stop></linearGradient><clipPath id="_b108_0_-tile"><rect width="120" height="120" rx="32"></rect></clipPath><clipPath id="_b108_0_-eye"><circle cx="31.00935" cy="158.27187" r="14.625"></circle></clipPath></defs><rect width="120" height="120" rx="32" fill="url(#_b108_0_-bg)"></rect><g clip-path="url(#_b108_0_-tile)"><g transform="translate(-3.9 -238.71) scale(1.9)"><g class="bird-emote"><g style="transform-box:fill-box;transform-origin:50% 100%"><g><ellipse class="bird-toe" data-anchor="20.857 187.402" fill="#4c1d95" cx="153.34886" cy="179.45131" rx="4.9235578" ry="1.0323864" transform="matrix(0.93458067,0.35575125,-0.65858761,0.75250405,0,0)"></ellipse><ellipse fill="#4c1d95" cx="20.664642" cy="183.11169" rx="2.0929158" ry="5.5265679"></ellipse><ellipse fill="#4c1d95" cx="40.032341" cy="184.09807" rx="1.6472523" ry="4.4285111"></ellipse><path fill="#f59e0b" d="M 37.74 156.50 L 38.69 167.46 L 60.14 154.56 Z"></path><path fill="#f59e0b" d="M 36.79 145.55 L 60.14 154.56 L 37.74 156.50 Z"></path><path fill="#ffef5c" d="M 30.15 142.59 L 32.04 142.59 L 33.93 142.71 L 35.80 142.98 L 37.63 143.46 L 39.37 144.17 L 40.98 145.16 L 42.40 146.41 L 43.59 147.87 L 44.57 149.48 L 45.38 151.19 L 46.06 152.96 L 46.63 154.76 L 47.12 156.58 L 47.55 158.43 L 47.93 160.28 L 48.27 162.14 L 48.59 164.00 L 48.89 165.87 L 49.12 167.75 L 49.25 169.63 L 49.25 171.52 L 49.09 173.41 L 48.74 175.26 L 48.18 177.07 L 47.40 178.79 L 46.33 180.35 L 45.05 181.73 L 43.55 182.88 L 41.91 183.81 L 40.16 184.53 L 38.34 185.05 L 36.49 185.40 L 34.61 185.61 L 32.72 185.71 L 30.83 185.72 L 28.94 185.68 L 27.05 185.59 L 25.16 185.44 L 23.29 185.21 L 21.43 184.88 L 19.59 184.43 L 17.80 183.81 L 16.09 183.02 L 14.48 182.02 L 13.03 180.82 L 11.77 179.42 L 10.75 177.83 L 9.95 176.11 L 9.37 174.32 L 8.97 172.47 L 8.72 170.60 L 8.62 168.71 L 8.65 166.82 L 8.76 164.93 L 8.97 163.05 L 9.31 161.19 L 9.76 159.36 L 10.33 157.56 L 11.03 155.80 L 11.86 154.10 L 12.81 152.47 L 13.89 150.92 L 15.10 149.47 L 16.43 148.12 L 17.87 146.90 L 19.41 145.81 L 21.06 144.88 L 22.78 144.10 L 24.57 143.48 L 26.40 143.02 L 28.27 142.73 Z"></path><ellipse class="bird-toe" data-anchor="40.184 187.535" fill="#4c1d95" cx="165.93597" cy="170.54491" rx="3.8840909" ry="0.82091522" transform="matrix(0.93242696,0.36135851,-0.65187735,0.75832441,0,0)"></ellipse><ellipse class="bird-toe" data-anchor="40.184 187.535" fill="#4c1d95" cx="189.64407" cy="-24.811516" rx="3.1437743" ry="1.0536716" transform="matrix(0.08211358,0.99662297,-0.99901441,-0.04438722,0,0)"></ellipse><ellipse class="bird-toe" data-anchor="40.184 187.535" fill="#4c1d95" cx="-118.11807" cy="212.07419" rx="4.0173759" ry="0.78369194" transform="matrix(0.94692824,-0.32144506,0.70063768,0.71351723,0,0)"></ellipse><ellipse class="bird-toe" data-anchor="20.857 187.402" fill="#4c1d95" cx="191.05363" cy="-5.1148601" rx="3.9237621" ry="1.3386955" transform="matrix(0.0835902,0.99650023,-0.99904909,-0.04359927,0,0)"></ellipse><ellipse class="bird-toe" data-anchor="20.857 187.402" fill="#4c1d95" cx="-136.81755" cy="206.88751" rx="5.0949697" ry="0.98674309" transform="matrix(0.94865772,-0.31630452,0.70701144,0.70720212,0,0)"></ellipse></g><g transform="translate(0 0) rotate(-10 31 141)" fill="#4c1d95"><rect x="23.5" y="138" width="15" height="6" rx="2"></rect><path d="M 31 128 L 46 133 L 31 138 L 16 133 Z"></path><path d="M 31 133 Q 43 132 44.5 140" fill="none" stroke="#ffd54f" stroke-width="1.3" stroke-linecap="round"></path><circle cx="31" cy="133" r="1.2" fill="#ffd54f"></circle><circle cx="44.5" cy="141.5" r="1.8" fill="#ffd54f"></circle></g><g><ellipse fill="#fbbf24" cx="20.5" cy="166.8" rx="2.9" ry="1.8"></ellipse></g><g><ellipse fill="#fbbf24" cx="41.5" cy="166.8" rx="2.9" ry="1.8"></ellipse></g><ellipse fill="#ffffff" cx="31.00935" cy="158.27187" rx="13.890625" ry="13.89062375"></ellipse><g style="transition:transform 0.12s ease-out;will-change:transform"><g class="bird-pupil"><g><ellipse fill="#4c1d95" cx="32.067684" cy="158.27187" rx="6.19124974" ry="6.19124909"></ellipse><circle fill="#ffffff" cx="35.1215" cy="155.30949999999999" r="1.9"></circle><circle fill="#ffffff" cx="30.1215" cy="161.18449999999999" r="0.95"></circle></g></g></g><g clip-path="url(#_b108_0_-eye)"></g></g></g></g></g></svg>
<text x="76" y="149" text-anchor="middle" font-family="system-ui, sans-serif" font-size="10" font-weight="500" fill="#9ca3af">Buttercup</text>
<svg x="150" y="16" width="120" height="120" viewBox="0 0 120 120" preserveAspectRatio="xMidYMid slice" role="img" aria-label="Lio graduate - deep-gold giant, anime eye, ivory board, on charcoal"><defs><linearGradient id="_b109_0_-bg" x1="0" y1="0" x2="0" y2="1"><stop offset="0" stop-color="#27272a"></stop><stop offset="1" stop-color="#09090b"></stop></linearGradient><clipPath id="_b109_0_-tile"><rect width="120" height="120" rx="32"></rect></clipPath><clipPath id="_b109_0_-eye"><circle cx="31.00935" cy="158.27187" r="14.625"></circle></clipPath></defs><rect width="120" height="120" rx="32" fill="url(#_b109_0_-bg)"></rect><g clip-path="url(#_b109_0_-tile)"><g transform="translate(-3.9 -238.71) scale(1.9)"><g class="bird-emote"><g style="transform-box:fill-box;transform-origin:50% 100%"><g><ellipse class="bird-toe" data-anchor="20.857 187.402" fill="#09090b" cx="153.34886" cy="179.45131" rx="4.9235578" ry="1.0323864" transform="matrix(0.93458067,0.35575125,-0.65858761,0.75250405,0,0)"></ellipse><ellipse fill="#09090b" cx="20.664642" cy="183.11169" rx="2.0929158" ry="5.5265679"></ellipse><ellipse fill="#09090b" cx="40.032341" cy="184.09807" rx="1.6472523" ry="4.4285111"></ellipse><path fill="#c2410c" d="M 37.74 156.50 L 38.69 167.46 L 60.14 154.56 Z"></path><path fill="#c2410c" d="M 36.79 145.55 L 60.14 154.56 L 37.74 156.50 Z"></path><path fill="#eab308" d="M 30.15 142.59 L 32.04 142.59 L 33.93 142.71 L 35.80 142.98 L 37.63 143.46 L 39.37 144.17 L 40.98 145.16 L 42.40 146.41 L 43.59 147.87 L 44.57 149.48 L 45.38 151.19 L 46.06 152.96 L 46.63 154.76 L 47.12 156.58 L 47.55 158.43 L 47.93 160.28 L 48.27 162.14 L 48.59 164.00 L 48.89 165.87 L 49.12 167.75 L 49.25 169.63 L 49.25 171.52 L 49.09 173.41 L 48.74 175.26 L 48.18 177.07 L 47.40 178.79 L 46.33 180.35 L 45.05 181.73 L 43.55 182.88 L 41.91 183.81 L 40.16 184.53 L 38.34 185.05 L 36.49 185.40 L 34.61 185.61 L 32.72 185.71 L 30.83 185.72 L 28.94 185.68 L 27.05 185.59 L 25.16 185.44 L 23.29 185.21 L 21.43 184.88 L 19.59 184.43 L 17.80 183.81 L 16.09 183.02 L 14.48 182.02 L 13.03 180.82 L 11.77 179.42 L 10.75 177.83 L 9.95 176.11 L 9.37 174.32 L 8.97 172.47 L 8.72 170.60 L 8.62 168.71 L 8.65 166.82 L 8.76 164.93 L 8.97 163.05 L 9.31 161.19 L 9.76 159.36 L 10.33 157.56 L 11.03 155.80 L 11.86 154.10 L 12.81 152.47 L 13.89 150.92 L 15.10 149.47 L 16.43 148.12 L 17.87 146.90 L 19.41 145.81 L 21.06 144.88 L 22.78 144.10 L 24.57 143.48 L 26.40 143.02 L 28.27 142.73 Z"></path><ellipse class="bird-toe" data-anchor="40.184 187.535" fill="#09090b" cx="165.93597" cy="170.54491" rx="3.8840909" ry="0.82091522" transform="matrix(0.93242696,0.36135851,-0.65187735,0.75832441,0,0)"></ellipse><ellipse class="bird-toe" data-anchor="40.184 187.535" fill="#09090b" cx="189.64407" cy="-24.811516" rx="3.1437743" ry="1.0536716" transform="matrix(0.08211358,0.99662297,-0.99901441,-0.04438722,0,0)"></ellipse><ellipse class="bird-toe" data-anchor="40.184 187.535" fill="#09090b" cx="-118.11807" cy="212.07419" rx="4.0173759" ry="0.78369194" transform="matrix(0.94692824,-0.32144506,0.70063768,0.71351723,0,0)"></ellipse><ellipse class="bird-toe" data-anchor="20.857 187.402" fill="#09090b" cx="191.05363" cy="-5.1148601" rx="3.9237621" ry="1.3386955" transform="matrix(0.0835902,0.99650023,-0.99904909,-0.04359927,0,0)"></ellipse><ellipse class="bird-toe" data-anchor="20.857 187.402" fill="#09090b" cx="-136.81755" cy="206.88751" rx="5.0949697" ry="0.98674309" transform="matrix(0.94865772,-0.31630452,0.70701144,0.70720212,0,0)"></ellipse></g><g transform="translate(0 0) rotate(-10 31 141)" fill="#fafafa"><rect x="23.5" y="138" width="15" height="6" rx="2"></rect><path d="M 31 128 L 46 133 L 31 138 L 16 133 Z"></path><path d="M 31 133 Q 43 132 44.5 140" fill="none" stroke="#eab308" stroke-width="1.3" stroke-linecap="round"></path><circle cx="31" cy="133" r="1.2" fill="#eab308"></circle><circle cx="44.5" cy="141.5" r="1.8" fill="#eab308"></circle></g><ellipse fill="#ffffff" cx="31.00935" cy="158.27187" rx="13.890625" ry="13.89062375"></ellipse><g style="transition:transform 0.12s ease-out;will-change:transform"><g class="bird-pupil"><g><ellipse fill="#09090b" cx="32.067684" cy="158.27187" rx="6.19124974" ry="6.19124909"></ellipse><circle fill="#ffffff" cx="35.1215" cy="155.30949999999999" r="1.9"></circle><circle fill="#ffffff" cx="30.1215" cy="161.18449999999999" r="0.95"></circle></g></g></g><g clip-path="url(#_b109_0_-eye)"></g></g></g></g></g></svg>
<text x="210" y="149" text-anchor="middle" font-family="system-ui, sans-serif" font-size="10" font-weight="500" fill="#9ca3af">Goldenrod</text>
<svg x="284" y="16" width="120" height="120" viewBox="0 0 120 120" preserveAspectRatio="xMidYMid slice" role="img" aria-label="Lio graduate - butterscotch giant, anime eye, on teal diagonal"><defs><linearGradient id="_b110_0_-bg" x1="0" y1="0" x2="1" y2="1"><stop offset="0" stop-color="#0d9488"></stop><stop offset="1" stop-color="#134e4a"></stop></linearGradient><clipPath id="_b110_0_-tile"><rect width="120" height="120" rx="32"></rect></clipPath><clipPath id="_b110_0_-eye"><circle cx="31.00935" cy="158.27187" r="14.625"></circle></clipPath></defs><rect width="120" height="120" rx="32" fill="url(#_b110_0_-bg)"></rect><g clip-path="url(#_b110_0_-tile)"><g transform="translate(-3.9 -238.71) scale(1.9)"><g class="bird-emote"><g style="transform-box:fill-box;transform-origin:50% 100%"><g><ellipse class="bird-toe" data-anchor="20.857 187.402" fill="#134e4a" cx="153.34886" cy="179.45131" rx="4.9235578" ry="1.0323864" transform="matrix(0.93458067,0.35575125,-0.65858761,0.75250405,0,0)"></ellipse><ellipse fill="#134e4a" cx="20.664642" cy="183.11169" rx="2.0929158" ry="5.5265679"></ellipse><ellipse fill="#134e4a" cx="40.032341" cy="184.09807" rx="1.6472523" ry="4.4285111"></ellipse><path fill="#e07a2f" d="M 37.74 156.50 L 38.69 167.46 L 60.14 154.56 Z"></path><path fill="#e07a2f" d="M 36.79 145.55 L 60.14 154.56 L 37.74 156.50 Z"></path><path fill="#f6c453" d="M 30.15 142.59 L 32.04 142.59 L 33.93 142.71 L 35.80 142.98 L 37.63 143.46 L 39.37 144.17 L 40.98 145.16 L 42.40 146.41 L 43.59 147.87 L 44.57 149.48 L 45.38 151.19 L 46.06 152.96 L 46.63 154.76 L 47.12 156.58 L 47.55 158.43 L 47.93 160.28 L 48.27 162.14 L 48.59 164.00 L 48.89 165.87 L 49.12 167.75 L 49.25 169.63 L 49.25 171.52 L 49.09 173.41 L 48.74 175.26 L 48.18 177.07 L 47.40 178.79 L 46.33 180.35 L 45.05 181.73 L 43.55 182.88 L 41.91 183.81 L 40.16 184.53 L 38.34 185.05 L 36.49 185.40 L 34.61 185.61 L 32.72 185.71 L 30.83 185.72 L 28.94 185.68 L 27.05 185.59 L 25.16 185.44 L 23.29 185.21 L 21.43 184.88 L 19.59 184.43 L 17.80 183.81 L 16.09 183.02 L 14.48 182.02 L 13.03 180.82 L 11.77 179.42 L 10.75 177.83 L 9.95 176.11 L 9.37 174.32 L 8.97 172.47 L 8.72 170.60 L 8.62 168.71 L 8.65 166.82 L 8.76 164.93 L 8.97 163.05 L 9.31 161.19 L 9.76 159.36 L 10.33 157.56 L 11.03 155.80 L 11.86 154.10 L 12.81 152.47 L 13.89 150.92 L 15.10 149.47 L 16.43 148.12 L 17.87 146.90 L 19.41 145.81 L 21.06 144.88 L 22.78 144.10 L 24.57 143.48 L 26.40 143.02 L 28.27 142.73 Z"></path><ellipse class="bird-toe" data-anchor="40.184 187.535" fill="#134e4a" cx="165.93597" cy="170.54491" rx="3.8840909" ry="0.82091522" transform="matrix(0.93242696,0.36135851,-0.65187735,0.75832441,0,0)"></ellipse><ellipse class="bird-toe" data-anchor="40.184 187.535" fill="#134e4a" cx="189.64407" cy="-24.811516" rx="3.1437743" ry="1.0536716" transform="matrix(0.08211358,0.99662297,-0.99901441,-0.04438722,0,0)"></ellipse><ellipse class="bird-toe" data-anchor="40.184 187.535" fill="#134e4a" cx="-118.11807" cy="212.07419" rx="4.0173759" ry="0.78369194" transform="matrix(0.94692824,-0.32144506,0.70063768,0.71351723,0,0)"></ellipse><ellipse class="bird-toe" data-anchor="20.857 187.402" fill="#134e4a" cx="191.05363" cy="-5.1148601" rx="3.9237621" ry="1.3386955" transform="matrix(0.0835902,0.99650023,-0.99904909,-0.04359927,0,0)"></ellipse><ellipse class="bird-toe" data-anchor="20.857 187.402" fill="#134e4a" cx="-136.81755" cy="206.88751" rx="5.0949697" ry="0.98674309" transform="matrix(0.94865772,-0.31630452,0.70701144,0.70720212,0,0)"></ellipse></g><g transform="translate(0 0) rotate(-10 31 141)" fill="#134e4a"><rect x="23.5" y="138" width="15" height="6" rx="2"></rect><path d="M 31 128 L 46 133 L 31 138 L 16 133 Z"></path><path d="M 31 133 Q 43 132 44.5 140" fill="none" stroke="#ffd54f" stroke-width="1.3" stroke-linecap="round"></path><circle cx="31" cy="133" r="1.2" fill="#ffd54f"></circle><circle cx="44.5" cy="141.5" r="1.8" fill="#ffd54f"></circle></g><g><ellipse fill="#e07a2f" cx="20.5" cy="166.8" rx="2.9" ry="1.8"></ellipse></g><g><ellipse fill="#e07a2f" cx="41.5" cy="166.8" rx="2.9" ry="1.8"></ellipse></g><ellipse fill="#ffffff" cx="31.00935" cy="158.27187" rx="13.890625" ry="13.89062375"></ellipse><g style="transition:transform 0.12s ease-out;will-change:transform"><g class="bird-pupil"><g><ellipse fill="#134e4a" cx="32.067684" cy="158.27187" rx="6.19124974" ry="6.19124909"></ellipse><circle fill="#ffffff" cx="35.1215" cy="155.30949999999999" r="1.9"></circle><circle fill="#ffffff" cx="30.1215" cy="161.18449999999999" r="0.95"></circle></g></g></g><g clip-path="url(#_b110_0_-eye)"></g></g></g></g></g></svg>
<text x="344" y="149" text-anchor="middle" font-family="system-ui, sans-serif" font-size="10" font-weight="500" fill="#9ca3af">Butterscotch</text>
<svg x="418" y="16" width="120" height="120" viewBox="0 0 120 120" preserveAspectRatio="xMidYMid slice" role="img" aria-label="Lio graduate - pale-canary giant, anime eye, on raspberry"><defs><linearGradient id="_b111_0_-bg" x1="0" y1="0" x2="0" y2="1"><stop offset="0" stop-color="#ff6b8a"></stop><stop offset="1" stop-color="#d81b60"></stop></linearGradient><clipPath id="_b111_0_-tile"><rect width="120" height="120" rx="32"></rect></clipPath><clipPath id="_b111_0_-eye"><circle cx="31.00935" cy="158.27187" r="14.625"></circle></clipPath></defs><rect width="120" height="120" rx="32" fill="url(#_b111_0_-bg)"></rect><g clip-path="url(#_b111_0_-tile)"><g transform="translate(-3.9 -238.71) scale(1.9)"><g class="bird-emote"><g style="transform-box:fill-box;transform-origin:50% 100%"><g><ellipse class="bird-toe" data-anchor="20.857 187.402" fill="#880e4f" cx="153.34886" cy="179.45131" rx="4.9235578" ry="1.0323864" transform="matrix(0.93458067,0.35575125,-0.65858761,0.75250405,0,0)"></ellipse><ellipse fill="#880e4f" cx="20.664642" cy="183.11169" rx="2.0929158" ry="5.5265679"></ellipse><ellipse fill="#880e4f" cx="40.032341" cy="184.09807" rx="1.6472523" ry="4.4285111"></ellipse><path fill="#fb8c00" d="M 37.74 156.50 L 38.69 167.46 L 60.14 154.56 Z"></path><path fill="#fb8c00" d="M 36.79 145.55 L 60.14 154.56 L 37.74 156.50 Z"></path><path fill="#fff176" d="M 30.15 142.59 L 32.04 142.59 L 33.93 142.71 L 35.80 142.98 L 37.63 143.46 L 39.37 144.17 L 40.98 145.16 L 42.40 146.41 L 43.59 147.87 L 44.57 149.48 L 45.38 151.19 L 46.06 152.96 L 46.63 154.76 L 47.12 156.58 L 47.55 158.43 L 47.93 160.28 L 48.27 162.14 L 48.59 164.00 L 48.89 165.87 L 49.12 167.75 L 49.25 169.63 L 49.25 171.52 L 49.09 173.41 L 48.74 175.26 L 48.18 177.07 L 47.40 178.79 L 46.33 180.35 L 45.05 181.73 L 43.55 182.88 L 41.91 183.81 L 40.16 184.53 L 38.34 185.05 L 36.49 185.40 L 34.61 185.61 L 32.72 185.71 L 30.83 185.72 L 28.94 185.68 L 27.05 185.59 L 25.16 185.44 L 23.29 185.21 L 21.43 184.88 L 19.59 184.43 L 17.80 183.81 L 16.09 183.02 L 14.48 182.02 L 13.03 180.82 L 11.77 179.42 L 10.75 177.83 L 9.95 176.11 L 9.37 174.32 L 8.97 172.47 L 8.72 170.60 L 8.62 168.71 L 8.65 166.82 L 8.76 164.93 L 8.97 163.05 L 9.31 161.19 L 9.76 159.36 L 10.33 157.56 L 11.03 155.80 L 11.86 154.10 L 12.81 152.47 L 13.89 150.92 L 15.10 149.47 L 16.43 148.12 L 17.87 146.90 L 19.41 145.81 L 21.06 144.88 L 22.78 144.10 L 24.57 143.48 L 26.40 143.02 L 28.27 142.73 Z"></path><ellipse class="bird-toe" data-anchor="40.184 187.535" fill="#880e4f" cx="165.93597" cy="170.54491" rx="3.8840909" ry="0.82091522" transform="matrix(0.93242696,0.36135851,-0.65187735,0.75832441,0,0)"></ellipse><ellipse class="bird-toe" data-anchor="40.184 187.535" fill="#880e4f" cx="189.64407" cy="-24.811516" rx="3.1437743" ry="1.0536716" transform="matrix(0.08211358,0.99662297,-0.99901441,-0.04438722,0,0)"></ellipse><ellipse class="bird-toe" data-anchor="40.184 187.535" fill="#880e4f" cx="-118.11807" cy="212.07419" rx="4.0173759" ry="0.78369194" transform="matrix(0.94692824,-0.32144506,0.70063768,0.71351723,0,0)"></ellipse><ellipse class="bird-toe" data-anchor="20.857 187.402" fill="#880e4f" cx="191.05363" cy="-5.1148601" rx="3.9237621" ry="1.3386955" transform="matrix(0.0835902,0.99650023,-0.99904909,-0.04359927,0,0)"></ellipse><ellipse class="bird-toe" data-anchor="20.857 187.402" fill="#880e4f" cx="-136.81755" cy="206.88751" rx="5.0949697" ry="0.98674309" transform="matrix(0.94865772,-0.31630452,0.70701144,0.70720212,0,0)"></ellipse></g><g transform="translate(0 0) rotate(-10 31 141)" fill="#880e4f"><rect x="23.5" y="138" width="15" height="6" rx="2"></rect><path d="M 31 128 L 46 133 L 31 138 L 16 133 Z"></path><path d="M 31 133 Q 43 132 44.5 140" fill="none" stroke="#ffd54f" stroke-width="1.3" stroke-linecap="round"></path><circle cx="31" cy="133" r="1.2" fill="#ffd54f"></circle><circle cx="44.5" cy="141.5" r="1.8" fill="#ffd54f"></circle></g><g><ellipse fill="#ffb0c4" cx="20.5" cy="166.8" rx="2.9" ry="1.8"></ellipse></g><g><ellipse fill="#ffb0c4" cx="41.5" cy="166.8" rx="2.9" ry="1.8"></ellipse></g><ellipse fill="#ffffff" cx="31.00935" cy="158.27187" rx="13.890625" ry="13.89062375"></ellipse><g style="transition:transform 0.12s ease-out;will-change:transform"><g class="bird-pupil"><g><ellipse fill="#880e4f" cx="32.067684" cy="158.27187" rx="6.19124974" ry="6.19124909"></ellipse><circle fill="#ffffff" cx="35.1215" cy="155.30949999999999" r="1.9"></circle><circle fill="#ffffff" cx="30.1215" cy="161.18449999999999" r="0.95"></circle></g></g></g><g clip-path="url(#_b111_0_-eye)"></g></g></g></g></g></svg>
<text x="478" y="149" text-anchor="middle" font-family="system-ui, sans-serif" font-size="10" font-weight="500" fill="#9ca3af">Canary</text>
<svg x="552" y="16" width="120" height="120" viewBox="0 0 120 120" preserveAspectRatio="xMidYMid slice" role="img" aria-label="Lio graduate - outlined mustard giant, anime eye, on warm paper"><defs><linearGradient id="_b112_0_-bg" x1="0" y1="0" x2="0" y2="1"><stop offset="0" stop-color="#faf7f0"></stop><stop offset="1" stop-color="#e7ddc8"></stop></linearGradient><clipPath id="_b112_0_-tile"><rect width="120" height="120" rx="32"></rect></clipPath><clipPath id="_b112_0_-eye"><circle cx="31.00935" cy="158.27187" r="14.625"></circle></clipPath></defs><rect width="120" height="120" rx="32" fill="url(#_b112_0_-bg)"></rect><g clip-path="url(#_b112_0_-tile)"><g transform="translate(-3.9 -238.71) scale(1.9)"><g class="bird-emote"><g style="transform-box:fill-box;transform-origin:50% 100%"><g><ellipse class="bird-toe" data-anchor="20.857 187.402" fill="#3f3427" cx="153.34886" cy="179.45131" rx="4.9235578" ry="1.0323864" transform="matrix(0.93458067,0.35575125,-0.65858761,0.75250405,0,0)"></ellipse><ellipse fill="#3f3427" cx="20.664642" cy="183.11169" rx="2.0929158" ry="5.5265679"></ellipse><ellipse fill="#3f3427" cx="40.032341" cy="184.09807" rx="1.6472523" ry="4.4285111"></ellipse><path fill="#a85f10" d="M 37.74 156.50 L 38.69 167.46 L 60.14 154.56 Z" stroke="#3f3427" stroke-width="2.5" stroke-linejoin="round" paint-order="stroke"></path><path fill="#a85f10" d="M 36.79 145.55 L 60.14 154.56 L 37.74 156.50 Z" stroke="#3f3427" stroke-width="2.5" stroke-linejoin="round" paint-order="stroke"></path><path fill="#d4a017" d="M 30.15 142.59 L 32.04 142.59 L 33.93 142.71 L 35.80 142.98 L 37.63 143.46 L 39.37 144.17 L 40.98 145.16 L 42.40 146.41 L 43.59 147.87 L 44.57 149.48 L 45.38 151.19 L 46.06 152.96 L 46.63 154.76 L 47.12 156.58 L 47.55 158.43 L 47.93 160.28 L 48.27 162.14 L 48.59 164.00 L 48.89 165.87 L 49.12 167.75 L 49.25 169.63 L 49.25 171.52 L 49.09 173.41 L 48.74 175.26 L 48.18 177.07 L 47.40 178.79 L 46.33 180.35 L 45.05 181.73 L 43.55 182.88 L 41.91 183.81 L 40.16 184.53 L 38.34 185.05 L 36.49 185.40 L 34.61 185.61 L 32.72 185.71 L 30.83 185.72 L 28.94 185.68 L 27.05 185.59 L 25.16 185.44 L 23.29 185.21 L 21.43 184.88 L 19.59 184.43 L 17.80 183.81 L 16.09 183.02 L 14.48 182.02 L 13.03 180.82 L 11.77 179.42 L 10.75 177.83 L 9.95 176.11 L 9.37 174.32 L 8.97 172.47 L 8.72 170.60 L 8.62 168.71 L 8.65 166.82 L 8.76 164.93 L 8.97 163.05 L 9.31 161.19 L 9.76 159.36 L 10.33 157.56 L 11.03 155.80 L 11.86 154.10 L 12.81 152.47 L 13.89 150.92 L 15.10 149.47 L 16.43 148.12 L 17.87 146.90 L 19.41 145.81 L 21.06 144.88 L 22.78 144.10 L 24.57 143.48 L 26.40 143.02 L 28.27 142.73 Z" stroke="#3f3427" stroke-width="2.5" stroke-linejoin="round" paint-order="stroke"></path><ellipse class="bird-toe" data-anchor="40.184 187.535" fill="#3f3427" cx="165.93597" cy="170.54491" rx="3.8840909" ry="0.82091522" transform="matrix(0.93242696,0.36135851,-0.65187735,0.75832441,0,0)"></ellipse><ellipse class="bird-toe" data-anchor="40.184 187.535" fill="#3f3427" cx="189.64407" cy="-24.811516" rx="3.1437743" ry="1.0536716" transform="matrix(0.08211358,0.99662297,-0.99901441,-0.04438722,0,0)"></ellipse><ellipse class="bird-toe" data-anchor="40.184 187.535" fill="#3f3427" cx="-118.11807" cy="212.07419" rx="4.0173759" ry="0.78369194" transform="matrix(0.94692824,-0.32144506,0.70063768,0.71351723,0,0)"></ellipse><ellipse class="bird-toe" data-anchor="20.857 187.402" fill="#3f3427" cx="191.05363" cy="-5.1148601" rx="3.9237621" ry="1.3386955" transform="matrix(0.0835902,0.99650023,-0.99904909,-0.04359927,0,0)"></ellipse><ellipse class="bird-toe" data-anchor="20.857 187.402" fill="#3f3427" cx="-136.81755" cy="206.88751" rx="5.0949697" ry="0.98674309" transform="matrix(0.94865772,-0.31630452,0.70701144,0.70720212,0,0)"></ellipse></g><g transform="translate(0 0) rotate(-10 31 141)" fill="#3f3427"><rect x="23.5" y="138" width="15" height="6" rx="2"></rect><path d="M 31 128 L 46 133 L 31 138 L 16 133 Z"></path><path d="M 31 133 Q 43 132 44.5 140" fill="none" stroke="#ffd54f" stroke-width="1.3" stroke-linecap="round"></path><circle cx="31" cy="133" r="1.2" fill="#ffd54f"></circle><circle cx="44.5" cy="141.5" r="1.8" fill="#ffd54f"></circle></g><ellipse fill="#fffdf5" cx="31.00935" cy="158.27187" rx="13.890625" ry="13.89062375"></ellipse><g style="transition:transform 0.12s ease-out;will-change:transform"><g class="bird-pupil"><g><ellipse fill="#3f3427" cx="32.067684" cy="158.27187" rx="6.19124974" ry="6.19124909"></ellipse><circle fill="#fffdf5" cx="35.1215" cy="155.30949999999999" r="1.9"></circle><circle fill="#fffdf5" cx="30.1215" cy="161.18449999999999" r="0.95"></circle></g></g></g><g clip-path="url(#_b112_0_-eye)"></g></g></g></g></g></svg>
<text x="612" y="149" text-anchor="middle" font-family="system-ui, sans-serif" font-size="10" font-weight="500" fill="#9ca3af">Dijon</text>
<svg x="686" y="16" width="120" height="120" viewBox="0 0 120 120" preserveAspectRatio="xMidYMid slice" role="img" aria-label="Lio graduate - amber giant, anime eye, zigzag, gold board, on dark forest"><defs><linearGradient id="_b113_0_-bg" x1="0" y1="0" x2="0" y2="1"><stop offset="0" stop-color="#14532d"></stop><stop offset="1" stop-color="#052e16"></stop></linearGradient><clipPath id="_b113_0_-tile"><rect width="120" height="120" rx="32"></rect></clipPath><clipPath id="_b113_0_-eye"><circle cx="31.00935" cy="158.27187" r="14.625"></circle></clipPath></defs><rect width="120" height="120" rx="32" fill="url(#_b113_0_-bg)"></rect><g clip-path="url(#_b113_0_-tile)"><g transform="translate(-3.9 -238.71) scale(1.9)"><g class="bird-emote"><g style="transform-box:fill-box;transform-origin:50% 100%"><g><ellipse class="bird-toe" data-anchor="20.857 187.402" fill="#052e16" cx="153.34886" cy="179.45131" rx="4.9235578" ry="1.0323864" transform="matrix(0.93458067,0.35575125,-0.65858761,0.75250405,0,0)"></ellipse><ellipse fill="#052e16" cx="20.664642" cy="183.11169" rx="2.0929158" ry="5.5265679"></ellipse><ellipse fill="#052e16" cx="40.032341" cy="184.09807" rx="1.6472523" ry="4.4285111"></ellipse><path fill="#e65100" d="M 37.74 156.50 L 38.69 167.46 L 60.14 154.56 Z"></path><path fill="#e65100" d="M 36.79 145.55 L 60.14 154.56 L 37.74 156.50 Z"></path><path fill="#ffc107" d="M 30.15 142.59 L 32.04 142.59 L 33.93 142.71 L 35.80 142.98 L 37.63 143.46 L 39.37 144.17 L 40.98 145.16 L 42.40 146.41 L 43.59 147.87 L 44.57 149.48 L 45.38 151.19 L 46.06 152.96 L 46.63 154.76 L 47.12 156.58 L 47.55 158.43 L 47.93 160.28 L 48.27 162.14 L 48.59 164.00 L 48.89 165.87 L 49.12 167.75 L 49.25 169.63 L 49.25 171.52 L 49.09 173.41 L 48.74 175.26 L 48.18 177.07 L 47.40 178.79 L 46.33 180.35 L 45.05 181.73 L 43.55 182.88 L 41.91 183.81 L 40.16 184.53 L 38.34 185.05 L 36.49 185.40 L 34.61 185.61 L 32.72 185.71 L 30.83 185.72 L 28.94 185.68 L 27.05 185.59 L 25.16 185.44 L 23.29 185.21 L 21.43 184.88 L 19.59 184.43 L 17.80 183.81 L 16.09 183.02 L 14.48 182.02 L 13.03 180.82 L 11.77 179.42 L 10.75 177.83 L 9.95 176.11 L 9.37 174.32 L 8.97 172.47 L 8.72 170.60 L 8.62 168.71 L 8.65 166.82 L 8.76 164.93 L 8.97 163.05 L 9.31 161.19 L 9.76 159.36 L 10.33 157.56 L 11.03 155.80 L 11.86 154.10 L 12.81 152.47 L 13.89 150.92 L 15.10 149.47 L 16.43 148.12 L 17.87 146.90 L 19.41 145.81 L 21.06 144.88 L 22.78 144.10 L 24.57 143.48 L 26.40 143.02 L 28.27 142.73 Z"></path><ellipse class="bird-toe" data-anchor="40.184 187.535" fill="#052e16" cx="165.93597" cy="170.54491" rx="3.8840909" ry="0.82091522" transform="matrix(0.93242696,0.36135851,-0.65187735,0.75832441,0,0)"></ellipse><ellipse class="bird-toe" data-anchor="40.184 187.535" fill="#052e16" cx="189.64407" cy="-24.811516" rx="3.1437743" ry="1.0536716" transform="matrix(0.08211358,0.99662297,-0.99901441,-0.04438722,0,0)"></ellipse><ellipse class="bird-toe" data-anchor="40.184 187.535" fill="#052e16" cx="-118.11807" cy="212.07419" rx="4.0173759" ry="0.78369194" transform="matrix(0.94692824,-0.32144506,0.70063768,0.71351723,0,0)"></ellipse><ellipse class="bird-toe" data-anchor="20.857 187.402" fill="#052e16" cx="191.05363" cy="-5.1148601" rx="3.9237621" ry="1.3386955" transform="matrix(0.0835902,0.99650023,-0.99904909,-0.04359927,0,0)"></ellipse><ellipse class="bird-toe" data-anchor="20.857 187.402" fill="#052e16" cx="-136.81755" cy="206.88751" rx="5.0949697" ry="0.98674309" transform="matrix(0.94865772,-0.31630452,0.70701144,0.70720212,0,0)"></ellipse></g><g transform="translate(0 0) rotate(-10 31 141)" fill="#ffc107"><rect x="23.5" y="138" width="15" height="6" rx="2"></rect><path d="M 31 128 L 46 133 L 31 138 L 16 133 Z"></path><path d="M 31 133 Q 43 132 44.5 140" fill="none" stroke="#052e16" stroke-width="1.3" stroke-linecap="round"></path><circle cx="31" cy="133" r="1.2" fill="#052e16"></circle><circle cx="44.5" cy="141.5" r="1.8" fill="#052e16"></circle></g><polyline points="33,167 35.5,170 38,167 40.5,170 43,167" fill="none" stroke="#052e16" stroke-width="1.6" stroke-linecap="round" stroke-linejoin="round"></polyline><ellipse fill="#ffffff" cx="31.00935" cy="158.27187" rx="13.890625" ry="13.89062375"></ellipse><g style="transition:transform 0.12s ease-out;will-change:transform"><g class="bird-pupil"><g><ellipse fill="#052e16" cx="32.067684" cy="158.27187" rx="6.19124974" ry="6.19124909"></ellipse><circle fill="#ffffff" cx="35.1215" cy="155.30949999999999" r="1.9"></circle><circle fill="#ffffff" cx="30.1215" cy="161.18449999999999" r="0.95"></circle></g></g></g><g clip-path="url(#_b113_0_-eye)"></g></g></g></g></g></svg>
<text x="746" y="149" text-anchor="middle" font-family="system-ui, sans-serif" font-size="10" font-weight="500" fill="#9ca3af">Ochre</text>
<svg x="16" y="168" width="120" height="120" viewBox="0 0 120 120" preserveAspectRatio="xMidYMid slice" role="img" aria-label="Lio graduate - honey-amber giant with fangs, anime eye, on slate night"><defs><linearGradient id="_b114_0_-bg" x1="0" y1="0" x2="0" y2="1"><stop offset="0" stop-color="#374151"></stop><stop offset="1" stop-color="#111827"></stop></linearGradient><clipPath id="_b114_0_-tile"><rect width="120" height="120" rx="32"></rect></clipPath><clipPath id="_b114_0_-eye"><circle cx="31.00935" cy="158.27187" r="14.625"></circle></clipPath></defs><rect width="120" height="120" rx="32" fill="url(#_b114_0_-bg)"></rect><g clip-path="url(#_b114_0_-tile)"><g transform="translate(-3.9 -238.71) scale(1.9)"><g class="bird-emote"><g style="transform-box:fill-box;transform-origin:50% 100%"><g><ellipse class="bird-toe" data-anchor="20.857 187.402" fill="#111827" cx="153.34886" cy="179.45131" rx="4.9235578" ry="1.0323864" transform="matrix(0.93458067,0.35575125,-0.65858761,0.75250405,0,0)"></ellipse><ellipse fill="#111827" cx="20.664642" cy="183.11169" rx="2.0929158" ry="5.5265679"></ellipse><ellipse fill="#111827" cx="40.032341" cy="184.09807" rx="1.6472523" ry="4.4285111"></ellipse><path fill="#d97706" d="M 37.74 156.50 L 38.69 167.46 L 60.14 154.56 Z"></path><path fill="#d97706" d="M 36.79 145.55 L 60.14 154.56 L 37.74 156.50 Z"></path><path fill="#fbbf24" d="M 45.56 163.33 L 49.50 160.96 L 50.62 167.29 Z M 50.49 160.37 L 54.09 158.20 L 54.87 163.57 Z"></path><path fill="#fbbf24" d="M 30.15 142.59 L 32.04 142.59 L 33.93 142.71 L 35.80 142.98 L 37.63 143.46 L 39.37 144.17 L 40.98 145.16 L 42.40 146.41 L 43.59 147.87 L 44.57 149.48 L 45.38 151.19 L 46.06 152.96 L 46.63 154.76 L 47.12 156.58 L 47.55 158.43 L 47.93 160.28 L 48.27 162.14 L 48.59 164.00 L 48.89 165.87 L 49.12 167.75 L 49.25 169.63 L 49.25 171.52 L 49.09 173.41 L 48.74 175.26 L 48.18 177.07 L 47.40 178.79 L 46.33 180.35 L 45.05 181.73 L 43.55 182.88 L 41.91 183.81 L 40.16 184.53 L 38.34 185.05 L 36.49 185.40 L 34.61 185.61 L 32.72 185.71 L 30.83 185.72 L 28.94 185.68 L 27.05 185.59 L 25.16 185.44 L 23.29 185.21 L 21.43 184.88 L 19.59 184.43 L 17.80 183.81 L 16.09 183.02 L 14.48 182.02 L 13.03 180.82 L 11.77 179.42 L 10.75 177.83 L 9.95 176.11 L 9.37 174.32 L 8.97 172.47 L 8.72 170.60 L 8.62 168.71 L 8.65 166.82 L 8.76 164.93 L 8.97 163.05 L 9.31 161.19 L 9.76 159.36 L 10.33 157.56 L 11.03 155.80 L 11.86 154.10 L 12.81 152.47 L 13.89 150.92 L 15.10 149.47 L 16.43 148.12 L 17.87 146.90 L 19.41 145.81 L 21.06 144.88 L 22.78 144.10 L 24.57 143.48 L 26.40 143.02 L 28.27 142.73 Z"></path><ellipse class="bird-toe" data-anchor="40.184 187.535" fill="#111827" cx="165.93597" cy="170.54491" rx="3.8840909" ry="0.82091522" transform="matrix(0.93242696,0.36135851,-0.65187735,0.75832441,0,0)"></ellipse><ellipse class="bird-toe" data-anchor="40.184 187.535" fill="#111827" cx="189.64407" cy="-24.811516" rx="3.1437743" ry="1.0536716" transform="matrix(0.08211358,0.99662297,-0.99901441,-0.04438722,0,0)"></ellipse><ellipse class="bird-toe" data-anchor="40.184 187.535" fill="#111827" cx="-118.11807" cy="212.07419" rx="4.0173759" ry="0.78369194" transform="matrix(0.94692824,-0.32144506,0.70063768,0.71351723,0,0)"></ellipse><ellipse class="bird-toe" data-anchor="20.857 187.402" fill="#111827" cx="191.05363" cy="-5.1148601" rx="3.9237621" ry="1.3386955" transform="matrix(0.0835902,0.99650023,-0.99904909,-0.04359927,0,0)"></ellipse><ellipse class="bird-toe" data-anchor="20.857 187.402" fill="#111827" cx="-136.81755" cy="206.88751" rx="5.0949697" ry="0.98674309" transform="matrix(0.94865772,-0.31630452,0.70701144,0.70720212,0,0)"></ellipse></g><g transform="translate(0 0) rotate(-10 31 141)" fill="#111827"><rect x="23.5" y="138" width="15" height="6" rx="2"></rect><path d="M 31 128 L 46 133 L 31 138 L 16 133 Z"></path><path d="M 31 133 Q 43 132 44.5 140" fill="none" stroke="#fbbf24" stroke-width="1.3" stroke-linecap="round"></path><circle cx="31" cy="133" r="1.2" fill="#fbbf24"></circle><circle cx="44.5" cy="141.5" r="1.8" fill="#fbbf24"></circle></g><g><ellipse fill="#f59e0b" cx="20.5" cy="166.8" rx="2.9" ry="1.8"></ellipse></g><g><ellipse fill="#f59e0b" cx="41.5" cy="166.8" rx="2.9" ry="1.8"></ellipse></g><ellipse fill="#ffffff" cx="31.00935" cy="158.27187" rx="13.890625" ry="13.89062375"></ellipse><g style="transition:transform 0.12s ease-out;will-change:transform"><g class="bird-pupil"><g><ellipse fill="#111827" cx="32.067684" cy="158.27187" rx="6.19124974" ry="6.19124909"></ellipse><circle fill="#ffffff" cx="35.1215" cy="155.30949999999999" r="1.9"></circle><circle fill="#ffffff" cx="30.1215" cy="161.18449999999999" r="0.95"></circle></g></g></g><g clip-path="url(#_b114_0_-eye)"></g></g></g></g></g></svg>
<text x="76" y="301" text-anchor="middle" font-family="system-ui, sans-serif" font-size="10" font-weight="500" fill="#9ca3af">Honeybee</text>
<svg x="150" y="168" width="120" height="120" viewBox="0 0 120 120" preserveAspectRatio="xMidYMid slice" role="img" aria-label="Lio graduate - banana giant, anime eye, on emerald"><defs><linearGradient id="_b115_0_-bg" x1="0" y1="0" x2="0" y2="1"><stop offset="0" stop-color="#6ee7b7"></stop><stop offset="1" stop-color="#10b981"></stop></linearGradient><clipPath id="_b115_0_-tile"><rect width="120" height="120" rx="32"></rect></clipPath><clipPath id="_b115_0_-eye"><circle cx="31.00935" cy="158.27187" r="14.625"></circle></clipPath></defs><rect width="120" height="120" rx="32" fill="url(#_b115_0_-bg)"></rect><g clip-path="url(#_b115_0_-tile)"><g transform="translate(-3.9 -238.71) scale(1.9)"><g class="bird-emote"><g style="transform-box:fill-box;transform-origin:50% 100%"><g><ellipse class="bird-toe" data-anchor="20.857 187.402" fill="#065f46" cx="153.34886" cy="179.45131" rx="4.9235578" ry="1.0323864" transform="matrix(0.93458067,0.35575125,-0.65858761,0.75250405,0,0)"></ellipse><ellipse fill="#065f46" cx="20.664642" cy="183.11169" rx="2.0929158" ry="5.5265679"></ellipse><ellipse fill="#065f46" cx="40.032341" cy="184.09807" rx="1.6472523" ry="4.4285111"></ellipse><path fill="#f59e0b" d="M 37.74 156.50 L 38.69 167.46 L 60.14 154.56 Z"></path><path fill="#f59e0b" d="M 36.79 145.55 L 60.14 154.56 L 37.74 156.50 Z"></path><path fill="#ffe135" d="M 30.15 142.59 L 32.04 142.59 L 33.93 142.71 L 35.80 142.98 L 37.63 143.46 L 39.37 144.17 L 40.98 145.16 L 42.40 146.41 L 43.59 147.87 L 44.57 149.48 L 45.38 151.19 L 46.06 152.96 L 46.63 154.76 L 47.12 156.58 L 47.55 158.43 L 47.93 160.28 L 48.27 162.14 L 48.59 164.00 L 48.89 165.87 L 49.12 167.75 L 49.25 169.63 L 49.25 171.52 L 49.09 173.41 L 48.74 175.26 L 48.18 177.07 L 47.40 178.79 L 46.33 180.35 L 45.05 181.73 L 43.55 182.88 L 41.91 183.81 L 40.16 184.53 L 38.34 185.05 L 36.49 185.40 L 34.61 185.61 L 32.72 185.71 L 30.83 185.72 L 28.94 185.68 L 27.05 185.59 L 25.16 185.44 L 23.29 185.21 L 21.43 184.88 L 19.59 184.43 L 17.80 183.81 L 16.09 183.02 L 14.48 182.02 L 13.03 180.82 L 11.77 179.42 L 10.75 177.83 L 9.95 176.11 L 9.37 174.32 L 8.97 172.47 L 8.72 170.60 L 8.62 168.71 L 8.65 166.82 L 8.76 164.93 L 8.97 163.05 L 9.31 161.19 L 9.76 159.36 L 10.33 157.56 L 11.03 155.80 L 11.86 154.10 L 12.81 152.47 L 13.89 150.92 L 15.10 149.47 L 16.43 148.12 L 17.87 146.90 L 19.41 145.81 L 21.06 144.88 L 22.78 144.10 L 24.57 143.48 L 26.40 143.02 L 28.27 142.73 Z"></path><ellipse class="bird-toe" data-anchor="40.184 187.535" fill="#065f46" cx="165.93597" cy="170.54491" rx="3.8840909" ry="0.82091522" transform="matrix(0.93242696,0.36135851,-0.65187735,0.75832441,0,0)"></ellipse><ellipse class="bird-toe" data-anchor="40.184 187.535" fill="#065f46" cx="189.64407" cy="-24.811516" rx="3.1437743" ry="1.0536716" transform="matrix(0.08211358,0.99662297,-0.99901441,-0.04438722,0,0)"></ellipse><ellipse class="bird-toe" data-anchor="40.184 187.535" fill="#065f46" cx="-118.11807" cy="212.07419" rx="4.0173759" ry="0.78369194" transform="matrix(0.94692824,-0.32144506,0.70063768,0.71351723,0,0)"></ellipse><ellipse class="bird-toe" data-anchor="20.857 187.402" fill="#065f46" cx="191.05363" cy="-5.1148601" rx="3.9237621" ry="1.3386955" transform="matrix(0.0835902,0.99650023,-0.99904909,-0.04359927,0,0)"></ellipse><ellipse class="bird-toe" data-anchor="20.857 187.402" fill="#065f46" cx="-136.81755" cy="206.88751" rx="5.0949697" ry="0.98674309" transform="matrix(0.94865772,-0.31630452,0.70701144,0.70720212,0,0)"></ellipse></g><g transform="translate(0 0) rotate(-10 31 141)" fill="#065f46"><rect x="23.5" y="138" width="15" height="6" rx="2"></rect><path d="M 31 128 L 46 133 L 31 138 L 16 133 Z"></path><path d="M 31 133 Q 43 132 44.5 140" fill="none" stroke="#ffd54f" stroke-width="1.3" stroke-linecap="round"></path><circle cx="31" cy="133" r="1.2" fill="#ffd54f"></circle><circle cx="44.5" cy="141.5" r="1.8" fill="#ffd54f"></circle></g><ellipse fill="#ffffff" cx="31.00935" cy="158.27187" rx="13.890625" ry="13.89062375"></ellipse><g style="transition:transform 0.12s ease-out;will-change:transform"><g class="bird-pupil"><g><ellipse fill="#065f46" cx="32.067684" cy="158.27187" rx="6.19124974" ry="6.19124909"></ellipse><circle fill="#ffffff" cx="35.1215" cy="155.30949999999999" r="1.9"></circle><circle fill="#ffffff" cx="30.1215" cy="161.18449999999999" r="0.95"></circle></g></g></g><g clip-path="url(#_b115_0_-eye)"></g></g></g></g></g></svg>
<text x="210" y="301" text-anchor="middle" font-family="system-ui, sans-serif" font-size="10" font-weight="500" fill="#9ca3af">Banana</text>
<svg x="284" y="168" width="120" height="120" viewBox="0 0 120 120" preserveAspectRatio="xMidYMid slice" role="img" aria-label="Lio graduate - marigold giant, anime eye, on magenta-plum diagonal"><defs><linearGradient id="_b116_0_-bg" x1="0" y1="0" x2="1" y2="1"><stop offset="0" stop-color="#86198f"></stop><stop offset="1" stop-color="#4a044e"></stop></linearGradient><clipPath id="_b116_0_-tile"><rect width="120" height="120" rx="32"></rect></clipPath><clipPath id="_b116_0_-eye"><circle cx="31.00935" cy="158.27187" r="14.625"></circle></clipPath></defs><rect width="120" height="120" rx="32" fill="url(#_b116_0_-bg)"></rect><g clip-path="url(#_b116_0_-tile)"><g transform="translate(-3.9 -238.71) scale(1.9)"><g class="bird-emote"><g style="transform-box:fill-box;transform-origin:50% 100%"><g><ellipse class="bird-toe" data-anchor="20.857 187.402" fill="#4a044e" cx="153.34886" cy="179.45131" rx="4.9235578" ry="1.0323864" transform="matrix(0.93458067,0.35575125,-0.65858761,0.75250405,0,0)"></ellipse><ellipse fill="#4a044e" cx="20.664642" cy="183.11169" rx="2.0929158" ry="5.5265679"></ellipse><ellipse fill="#4a044e" cx="40.032341" cy="184.09807" rx="1.6472523" ry="4.4285111"></ellipse><path fill="#d84315" d="M 37.74 156.50 L 38.69 167.46 L 60.14 154.56 Z"></path><path fill="#d84315" d="M 36.79 145.55 L 60.14 154.56 L 37.74 156.50 Z"></path><path fill="#ffa000" d="M 30.15 142.59 L 32.04 142.59 L 33.93 142.71 L 35.80 142.98 L 37.63 143.46 L 39.37 144.17 L 40.98 145.16 L 42.40 146.41 L 43.59 147.87 L 44.57 149.48 L 45.38 151.19 L 46.06 152.96 L 46.63 154.76 L 47.12 156.58 L 47.55 158.43 L 47.93 160.28 L 48.27 162.14 L 48.59 164.00 L 48.89 165.87 L 49.12 167.75 L 49.25 169.63 L 49.25 171.52 L 49.09 173.41 L 48.74 175.26 L 48.18 177.07 L 47.40 178.79 L 46.33 180.35 L 45.05 181.73 L 43.55 182.88 L 41.91 183.81 L 40.16 184.53 L 38.34 185.05 L 36.49 185.40 L 34.61 185.61 L 32.72 185.71 L 30.83 185.72 L 28.94 185.68 L 27.05 185.59 L 25.16 185.44 L 23.29 185.21 L 21.43 184.88 L 19.59 184.43 L 17.80 183.81 L 16.09 183.02 L 14.48 182.02 L 13.03 180.82 L 11.77 179.42 L 10.75 177.83 L 9.95 176.11 L 9.37 174.32 L 8.97 172.47 L 8.72 170.60 L 8.62 168.71 L 8.65 166.82 L 8.76 164.93 L 8.97 163.05 L 9.31 161.19 L 9.76 159.36 L 10.33 157.56 L 11.03 155.80 L 11.86 154.10 L 12.81 152.47 L 13.89 150.92 L 15.10 149.47 L 16.43 148.12 L 17.87 146.90 L 19.41 145.81 L 21.06 144.88 L 22.78 144.10 L 24.57 143.48 L 26.40 143.02 L 28.27 142.73 Z"></path><ellipse class="bird-toe" data-anchor="40.184 187.535" fill="#4a044e" cx="165.93597" cy="170.54491" rx="3.8840909" ry="0.82091522" transform="matrix(0.93242696,0.36135851,-0.65187735,0.75832441,0,0)"></ellipse><ellipse class="bird-toe" data-anchor="40.184 187.535" fill="#4a044e" cx="189.64407" cy="-24.811516" rx="3.1437743" ry="1.0536716" transform="matrix(0.08211358,0.99662297,-0.99901441,-0.04438722,0,0)"></ellipse><ellipse class="bird-toe" data-anchor="40.184 187.535" fill="#4a044e" cx="-118.11807" cy="212.07419" rx="4.0173759" ry="0.78369194" transform="matrix(0.94692824,-0.32144506,0.70063768,0.71351723,0,0)"></ellipse><ellipse class="bird-toe" data-anchor="20.857 187.402" fill="#4a044e" cx="191.05363" cy="-5.1148601" rx="3.9237621" ry="1.3386955" transform="matrix(0.0835902,0.99650023,-0.99904909,-0.04359927,0,0)"></ellipse><ellipse class="bird-toe" data-anchor="20.857 187.402" fill="#4a044e" cx="-136.81755" cy="206.88751" rx="5.0949697" ry="0.98674309" transform="matrix(0.94865772,-0.31630452,0.70701144,0.70720212,0,0)"></ellipse></g><g transform="translate(0 0) rotate(-10 31 141)" fill="#4a044e"><rect x="23.5" y="138" width="15" height="6" rx="2"></rect><path d="M 31 128 L 46 133 L 31 138 L 16 133 Z"></path><path d="M 31 133 Q 43 132 44.5 140" fill="none" stroke="#ffa000" stroke-width="1.3" stroke-linecap="round"></path><circle cx="31" cy="133" r="1.2" fill="#ffa000"></circle><circle cx="44.5" cy="141.5" r="1.8" fill="#ffa000"></circle></g><ellipse fill="#ffffff" cx="31.00935" cy="158.27187" rx="13.890625" ry="13.89062375"></ellipse><g style="transition:transform 0.12s ease-out;will-change:transform"><g class="bird-pupil"><g><ellipse fill="#4a044e" cx="32.067684" cy="158.27187" rx="6.19124974" ry="6.19124909"></ellipse><circle fill="#ffffff" cx="35.1215" cy="155.30949999999999" r="1.9"></circle><circle fill="#ffffff" cx="30.1215" cy="161.18449999999999" r="0.95"></circle></g></g></g><g clip-path="url(#_b116_0_-eye)"></g></g></g></g></g></svg>
<text x="344" y="301" text-anchor="middle" font-family="system-ui, sans-serif" font-size="10" font-weight="500" fill="#9ca3af">Marigold</text>
<svg x="418" y="168" width="120" height="120" viewBox="0 0 120 120" preserveAspectRatio="xMidYMid slice" role="img" aria-label="Lio graduate - gooey palest-butter giant, anime eye, on ocean navy"><defs><linearGradient id="_b117_0_-bg" x1="0" y1="0" x2="0" y2="1"><stop offset="0" stop-color="#1e40af"></stop><stop offset="1" stop-color="#172554"></stop></linearGradient><clipPath id="_b117_0_-tile"><rect width="120" height="120" rx="32"></rect></clipPath><clipPath id="_b117_0_-eye"><circle cx="31.00935" cy="158.27187" r="14.625"></circle></clipPath><filter id="_b117_0_-goo" x="-10%" y="-10%" width="120%" height="120%"><feGaussianBlur stdDeviation="0.45"></feGaussianBlur></filter></defs><rect width="120" height="120" rx="32" fill="url(#_b117_0_-bg)"></rect><g clip-path="url(#_b117_0_-tile)"><g transform="translate(-3.9 -238.71) scale(1.9)"><g class="bird-emote"><g style="transform-box:fill-box;transform-origin:50% 100%"><g filter="url(#_b117_0_-goo)"><ellipse class="bird-toe" data-anchor="20.857 187.402" fill="#172554" cx="153.34886" cy="179.45131" rx="4.9235578" ry="1.0323864" transform="matrix(0.93458067,0.35575125,-0.65858761,0.75250405,0,0)"></ellipse><ellipse fill="#172554" cx="20.664642" cy="183.11169" rx="2.0929158" ry="5.5265679"></ellipse><ellipse fill="#172554" cx="40.032341" cy="184.09807" rx="1.6472523" ry="4.4285111"></ellipse><path fill="#fbbf24" d="M 37.74 156.50 L 38.69 167.46 L 60.14 154.56 Z"></path><path fill="#fbbf24" d="M 36.79 145.55 L 60.14 154.56 L 37.74 156.50 Z"></path><path fill="#fff59d" d="M 30.15 142.59 L 32.04 142.59 L 33.93 142.71 L 35.80 142.98 L 37.63 143.46 L 39.37 144.17 L 40.98 145.16 L 42.40 146.41 L 43.59 147.87 L 44.57 149.48 L 45.38 151.19 L 46.06 152.96 L 46.63 154.76 L 47.12 156.58 L 47.55 158.43 L 47.93 160.28 L 48.27 162.14 L 48.59 164.00 L 48.89 165.87 L 49.12 167.75 L 49.25 169.63 L 49.25 171.52 L 49.09 173.41 L 48.74 175.26 L 48.18 177.07 L 47.40 178.79 L 46.33 180.35 L 45.05 181.73 L 43.55 182.88 L 41.91 183.81 L 40.16 184.53 L 38.34 185.05 L 36.49 185.40 L 34.61 185.61 L 32.72 185.71 L 30.83 185.72 L 28.94 185.68 L 27.05 185.59 L 25.16 185.44 L 23.29 185.21 L 21.43 184.88 L 19.59 184.43 L 17.80 183.81 L 16.09 183.02 L 14.48 182.02 L 13.03 180.82 L 11.77 179.42 L 10.75 177.83 L 9.95 176.11 L 9.37 174.32 L 8.97 172.47 L 8.72 170.60 L 8.62 168.71 L 8.65 166.82 L 8.76 164.93 L 8.97 163.05 L 9.31 161.19 L 9.76 159.36 L 10.33 157.56 L 11.03 155.80 L 11.86 154.10 L 12.81 152.47 L 13.89 150.92 L 15.10 149.47 L 16.43 148.12 L 17.87 146.90 L 19.41 145.81 L 21.06 144.88 L 22.78 144.10 L 24.57 143.48 L 26.40 143.02 L 28.27 142.73 Z"></path><ellipse class="bird-toe" data-anchor="40.184 187.535" fill="#172554" cx="165.93597" cy="170.54491" rx="3.8840909" ry="0.82091522" transform="matrix(0.93242696,0.36135851,-0.65187735,0.75832441,0,0)"></ellipse><ellipse class="bird-toe" data-anchor="40.184 187.535" fill="#172554" cx="189.64407" cy="-24.811516" rx="3.1437743" ry="1.0536716" transform="matrix(0.08211358,0.99662297,-0.99901441,-0.04438722,0,0)"></ellipse><ellipse class="bird-toe" data-anchor="40.184 187.535" fill="#172554" cx="-118.11807" cy="212.07419" rx="4.0173759" ry="0.78369194" transform="matrix(0.94692824,-0.32144506,0.70063768,0.71351723,0,0)"></ellipse><ellipse class="bird-toe" data-anchor="20.857 187.402" fill="#172554" cx="191.05363" cy="-5.1148601" rx="3.9237621" ry="1.3386955" transform="matrix(0.0835902,0.99650023,-0.99904909,-0.04359927,0,0)"></ellipse><ellipse class="bird-toe" data-anchor="20.857 187.402" fill="#172554" cx="-136.81755" cy="206.88751" rx="5.0949697" ry="0.98674309" transform="matrix(0.94865772,-0.31630452,0.70701144,0.70720212,0,0)"></ellipse></g><g transform="translate(0 0) rotate(-10 31 141)" fill="#fff59d"><rect x="23.5" y="138" width="15" height="6" rx="2"></rect><path d="M 31 128 L 46 133 L 31 138 L 16 133 Z"></path><path d="M 31 133 Q 43 132 44.5 140" fill="none" stroke="#172554" stroke-width="1.3" stroke-linecap="round"></path><circle cx="31" cy="133" r="1.2" fill="#172554"></circle><circle cx="44.5" cy="141.5" r="1.8" fill="#172554"></circle></g><ellipse fill="#ffffff" cx="31.00935" cy="158.27187" rx="13.890625" ry="13.89062375"></ellipse><g style="transition:transform 0.12s ease-out;will-change:transform"><g class="bird-pupil"><g><ellipse fill="#172554" cx="32.067684" cy="158.27187" rx="6.19124974" ry="6.19124909"></ellipse><circle fill="#ffffff" cx="35.1215" cy="155.30949999999999" r="1.9"></circle><circle fill="#ffffff" cx="30.1215" cy="161.18449999999999" r="0.95"></circle></g></g></g><g clip-path="url(#_b117_0_-eye)"></g></g></g></g></g></svg>
<text x="478" y="301" text-anchor="middle" font-family="system-ui, sans-serif" font-size="10" font-weight="500" fill="#9ca3af">Butter</text>
<svg x="552" y="168" width="120" height="120" viewBox="0 0 120 120" preserveAspectRatio="xMidYMid slice" role="img" aria-label="Lio graduate - turmeric giant, anime eye, maroon board, on morning sky"><defs><linearGradient id="_b118_0_-bg" x1="0" y1="0" x2="0" y2="1"><stop offset="0" stop-color="#7dd3fc"></stop><stop offset="1" stop-color="#0284c7"></stop></linearGradient><clipPath id="_b118_0_-tile"><rect width="120" height="120" rx="32"></rect></clipPath><clipPath id="_b118_0_-eye"><circle cx="31.00935" cy="158.27187" r="14.625"></circle></clipPath></defs><rect width="120" height="120" rx="32" fill="url(#_b118_0_-bg)"></rect><g clip-path="url(#_b118_0_-tile)"><g transform="translate(-3.9 -238.71) scale(1.9)"><g class="bird-emote"><g style="transform-box:fill-box;transform-origin:50% 100%"><g><ellipse class="bird-toe" data-anchor="20.857 187.402" fill="#7f1d1d" cx="153.34886" cy="179.45131" rx="4.9235578" ry="1.0323864" transform="matrix(0.93458067,0.35575125,-0.65858761,0.75250405,0,0)"></ellipse><ellipse fill="#7f1d1d" cx="20.664642" cy="183.11169" rx="2.0929158" ry="5.5265679"></ellipse><ellipse fill="#7f1d1d" cx="40.032341" cy="184.09807" rx="1.6472523" ry="4.4285111"></ellipse><path fill="#b45309" d="M 37.74 156.50 L 38.69 167.46 L 60.14 154.56 Z"></path><path fill="#b45309" d="M 36.79 145.55 L 60.14 154.56 L 37.74 156.50 Z"></path><path fill="#e6a817" d="M 30.15 142.59 L 32.04 142.59 L 33.93 142.71 L 35.80 142.98 L 37.63 143.46 L 39.37 144.17 L 40.98 145.16 L 42.40 146.41 L 43.59 147.87 L 44.57 149.48 L 45.38 151.19 L 46.06 152.96 L 46.63 154.76 L 47.12 156.58 L 47.55 158.43 L 47.93 160.28 L 48.27 162.14 L 48.59 164.00 L 48.89 165.87 L 49.12 167.75 L 49.25 169.63 L 49.25 171.52 L 49.09 173.41 L 48.74 175.26 L 48.18 177.07 L 47.40 178.79 L 46.33 180.35 L 45.05 181.73 L 43.55 182.88 L 41.91 183.81 L 40.16 184.53 L 38.34 185.05 L 36.49 185.40 L 34.61 185.61 L 32.72 185.71 L 30.83 185.72 L 28.94 185.68 L 27.05 185.59 L 25.16 185.44 L 23.29 185.21 L 21.43 184.88 L 19.59 184.43 L 17.80 183.81 L 16.09 183.02 L 14.48 182.02 L 13.03 180.82 L 11.77 179.42 L 10.75 177.83 L 9.95 176.11 L 9.37 174.32 L 8.97 172.47 L 8.72 170.60 L 8.62 168.71 L 8.65 166.82 L 8.76 164.93 L 8.97 163.05 L 9.31 161.19 L 9.76 159.36 L 10.33 157.56 L 11.03 155.80 L 11.86 154.10 L 12.81 152.47 L 13.89 150.92 L 15.10 149.47 L 16.43 148.12 L 17.87 146.90 L 19.41 145.81 L 21.06 144.88 L 22.78 144.10 L 24.57 143.48 L 26.40 143.02 L 28.27 142.73 Z"></path><ellipse class="bird-toe" data-anchor="40.184 187.535" fill="#7f1d1d" cx="165.93597" cy="170.54491" rx="3.8840909" ry="0.82091522" transform="matrix(0.93242696,0.36135851,-0.65187735,0.75832441,0,0)"></ellipse><ellipse class="bird-toe" data-anchor="40.184 187.535" fill="#7f1d1d" cx="189.64407" cy="-24.811516" rx="3.1437743" ry="1.0536716" transform="matrix(0.08211358,0.99662297,-0.99901441,-0.04438722,0,0)"></ellipse><ellipse class="bird-toe" data-anchor="40.184 187.535" fill="#7f1d1d" cx="-118.11807" cy="212.07419" rx="4.0173759" ry="0.78369194" transform="matrix(0.94692824,-0.32144506,0.70063768,0.71351723,0,0)"></ellipse><ellipse class="bird-toe" data-anchor="20.857 187.402" fill="#7f1d1d" cx="191.05363" cy="-5.1148601" rx="3.9237621" ry="1.3386955" transform="matrix(0.0835902,0.99650023,-0.99904909,-0.04359927,0,0)"></ellipse><ellipse class="bird-toe" data-anchor="20.857 187.402" fill="#7f1d1d" cx="-136.81755" cy="206.88751" rx="5.0949697" ry="0.98674309" transform="matrix(0.94865772,-0.31630452,0.70701144,0.70720212,0,0)"></ellipse></g><g transform="translate(0 0) rotate(-10 31 141)" fill="#7f1d1d"><rect x="23.5" y="138" width="15" height="6" rx="2"></rect><path d="M 31 128 L 46 133 L 31 138 L 16 133 Z"></path><path d="M 31 133 Q 43 132 44.5 140" fill="none" stroke="#e6a817" stroke-width="1.3" stroke-linecap="round"></path><circle cx="31" cy="133" r="1.2" fill="#e6a817"></circle><circle cx="44.5" cy="141.5" r="1.8" fill="#e6a817"></circle></g><ellipse fill="#ffffff" cx="31.00935" cy="158.27187" rx="13.890625" ry="13.89062375"></ellipse><g style="transition:transform 0.12s ease-out;will-change:transform"><g class="bird-pupil"><g><ellipse fill="#7f1d1d" cx="32.067684" cy="158.27187" rx="6.19124974" ry="6.19124909"></ellipse><circle fill="#ffffff" cx="35.1215" cy="155.30949999999999" r="1.9"></circle><circle fill="#ffffff" cx="30.1215" cy="161.18449999999999" r="0.95"></circle></g></g></g><g clip-path="url(#_b118_0_-eye)"></g></g></g></g></g></svg>
<text x="612" y="301" text-anchor="middle" font-family="system-ui, sans-serif" font-size="10" font-weight="500" fill="#9ca3af">Turmeric</text>
<svg x="686" y="168" width="120" height="120" viewBox="0 0 120 120" preserveAspectRatio="xMidYMid slice" role="img" aria-label="Lio graduate - bright chick-yellow giant, anime eye, on white-to-pink"><defs><linearGradient id="_b119_0_-bg" x1="0" y1="0" x2="0" y2="1"><stop offset="0" stop-color="#ffffff"></stop><stop offset="1" stop-color="#ec4899"></stop></linearGradient><clipPath id="_b119_0_-tile"><rect width="120" height="120" rx="32"></rect></clipPath><clipPath id="_b119_0_-eye"><circle cx="31.00935" cy="158.27187" r="14.625"></circle></clipPath></defs><rect width="120" height="120" rx="32" fill="url(#_b119_0_-bg)"></rect><g clip-path="url(#_b119_0_-tile)"><g transform="translate(-3.9 -238.71) scale(1.9)"><g class="bird-emote"><g style="transform-box:fill-box;transform-origin:50% 100%"><g><ellipse class="bird-toe" data-anchor="20.857 187.402" fill="#831843" cx="153.34886" cy="179.45131" rx="4.9235578" ry="1.0323864" transform="matrix(0.93458067,0.35575125,-0.65858761,0.75250405,0,0)"></ellipse><ellipse fill="#831843" cx="20.664642" cy="183.11169" rx="2.0929158" ry="5.5265679"></ellipse><ellipse fill="#831843" cx="40.032341" cy="184.09807" rx="1.6472523" ry="4.4285111"></ellipse><path fill="#fb8c00" d="M 37.74 156.50 L 38.69 167.46 L 60.14 154.56 Z"></path><path fill="#fb8c00" d="M 36.79 145.55 L 60.14 154.56 L 37.74 156.50 Z"></path><path fill="#ffeb3b" d="M 30.15 142.59 L 32.04 142.59 L 33.93 142.71 L 35.80 142.98 L 37.63 143.46 L 39.37 144.17 L 40.98 145.16 L 42.40 146.41 L 43.59 147.87 L 44.57 149.48 L 45.38 151.19 L 46.06 152.96 L 46.63 154.76 L 47.12 156.58 L 47.55 158.43 L 47.93 160.28 L 48.27 162.14 L 48.59 164.00 L 48.89 165.87 L 49.12 167.75 L 49.25 169.63 L 49.25 171.52 L 49.09 173.41 L 48.74 175.26 L 48.18 177.07 L 47.40 178.79 L 46.33 180.35 L 45.05 181.73 L 43.55 182.88 L 41.91 183.81 L 40.16 184.53 L 38.34 185.05 L 36.49 185.40 L 34.61 185.61 L 32.72 185.71 L 30.83 185.72 L 28.94 185.68 L 27.05 185.59 L 25.16 185.44 L 23.29 185.21 L 21.43 184.88 L 19.59 184.43 L 17.80 183.81 L 16.09 183.02 L 14.48 182.02 L 13.03 180.82 L 11.77 179.42 L 10.75 177.83 L 9.95 176.11 L 9.37 174.32 L 8.97 172.47 L 8.72 170.60 L 8.62 168.71 L 8.65 166.82 L 8.76 164.93 L 8.97 163.05 L 9.31 161.19 L 9.76 159.36 L 10.33 157.56 L 11.03 155.80 L 11.86 154.10 L 12.81 152.47 L 13.89 150.92 L 15.10 149.47 L 16.43 148.12 L 17.87 146.90 L 19.41 145.81 L 21.06 144.88 L 22.78 144.10 L 24.57 143.48 L 26.40 143.02 L 28.27 142.73 Z"></path><ellipse class="bird-toe" data-anchor="40.184 187.535" fill="#831843" cx="165.93597" cy="170.54491" rx="3.8840909" ry="0.82091522" transform="matrix(0.93242696,0.36135851,-0.65187735,0.75832441,0,0)"></ellipse><ellipse class="bird-toe" data-anchor="40.184 187.535" fill="#831843" cx="189.64407" cy="-24.811516" rx="3.1437743" ry="1.0536716" transform="matrix(0.08211358,0.99662297,-0.99901441,-0.04438722,0,0)"></ellipse><ellipse class="bird-toe" data-anchor="40.184 187.535" fill="#831843" cx="-118.11807" cy="212.07419" rx="4.0173759" ry="0.78369194" transform="matrix(0.94692824,-0.32144506,0.70063768,0.71351723,0,0)"></ellipse><ellipse class="bird-toe" data-anchor="20.857 187.402" fill="#831843" cx="191.05363" cy="-5.1148601" rx="3.9237621" ry="1.3386955" transform="matrix(0.0835902,0.99650023,-0.99904909,-0.04359927,0,0)"></ellipse><ellipse class="bird-toe" data-anchor="20.857 187.402" fill="#831843" cx="-136.81755" cy="206.88751" rx="5.0949697" ry="0.98674309" transform="matrix(0.94865772,-0.31630452,0.70701144,0.70720212,0,0)"></ellipse></g><g transform="translate(0 0) rotate(-10 31 141)" fill="#831843"><rect x="23.5" y="138" width="15" height="6" rx="2"></rect><path d="M 31 128 L 46 133 L 31 138 L 16 133 Z"></path><path d="M 31 133 Q 43 132 44.5 140" fill="none" stroke="#ffd54f" stroke-width="1.3" stroke-linecap="round"></path><circle cx="31" cy="133" r="1.2" fill="#ffd54f"></circle><circle cx="44.5" cy="141.5" r="1.8" fill="#ffd54f"></circle></g><g><ellipse fill="#f9a8d4" cx="20.5" cy="166.8" rx="2.9" ry="1.8"></ellipse></g><g><ellipse fill="#f9a8d4" cx="41.5" cy="166.8" rx="2.9" ry="1.8"></ellipse></g><ellipse fill="#ffffff" cx="31.00935" cy="158.27187" rx="13.890625" ry="13.89062375"></ellipse><g style="transition:transform 0.12s ease-out;will-change:transform"><g class="bird-pupil"><g><ellipse fill="#831843" cx="32.067684" cy="158.27187" rx="6.19124974" ry="6.19124909"></ellipse><circle fill="#ffffff" cx="35.1215" cy="155.30949999999999" r="1.9"></circle><circle fill="#ffffff" cx="30.1215" cy="161.18449999999999" r="0.95"></circle></g></g></g><g clip-path="url(#_b119_0_-eye)"></g></g></g></g></g></svg>
<text x="746" y="301" text-anchor="middle" font-family="system-ui, sans-serif" font-size="10" font-weight="500" fill="#9ca3af">Chick</text>
</svg>
