<svg xmlns="http://www.w3.org/2000/svg" viewBox="0 0 822 170" width="822" height="170">
<svg x="16" y="16" width="120" height="120" viewBox="0 0 120 120" preserveAspectRatio="xMidYMid slice" role="img" aria-label="Lio - sleepy mint blush with fangs and cheeks"><defs><linearGradient id="_b36_0_-bg" x1="0" y1="0" x2="0" y2="1"><stop offset="0" stop-color="#9ff0c8"></stop><stop offset="1" stop-color="#2fbf87"></stop></linearGradient><clipPath id="_b36_0_-tile"><rect width="120" height="120" rx="32"></rect></clipPath><clipPath id="_b36_0_-eye"><circle cx="31.00935" cy="158.27187" r="11.7"></circle></clipPath></defs><rect width="120" height="120" rx="32" fill="url(#_b36_0_-bg)"></rect><g clip-path="url(#_b36_0_-tile)"><g transform="translate(20.55 -149.14) scale(1.3)"><g class="bird-emote"><g style="transform-box:fill-box;transform-origin:50% 100%"><g><ellipse class="bird-toe" data-anchor="20.857 187.402" fill="#eafff5" cx="153.34886" cy="179.45131" rx="4.9235578" ry="1.0323864" transform="matrix(0.93458067,0.35575125,-0.65858761,0.75250405,0,0)"></ellipse><ellipse fill="#eafff5" cx="20.664642" cy="183.11169" rx="2.0929158" ry="5.5265679"></ellipse><ellipse fill="#eafff5" cx="40.032341" cy="184.09807" rx="1.6472523" ry="4.4285111"></ellipse><path fill="#eafff5" d="M 37.74 156.50 L 38.69 167.46 L 60.14 154.56 Z"></path><path fill="#eafff5" d="M 36.79 145.55 L 60.14 154.56 L 37.74 156.50 Z"></path><path fill="#eafff5" d="M 45.56 163.33 L 49.50 160.96 L 50.62 167.29 Z M 50.49 160.37 L 54.09 158.20 L 54.87 163.57 Z"></path><path fill="#eafff5" d="M 30.15 142.59 L 32.04 142.59 L 33.93 142.71 L 35.80 142.98 L 37.63 143.46 L 39.37 144.17 L 40.98 145.16 L 42.40 146.41 L 43.59 147.87 L 44.57 149.48 L 45.38 151.19 L 46.06 152.96 L 46.63 154.76 L 47.12 156.58 L 47.55 158.43 L 47.93 160.28 L 48.27 162.14 L 48.59 164.00 L 48.89 165.87 L 49.12 167.75 L 49.25 169.63 L 49.25 171.52 L 49.09 173.41 L 48.74 175.26 L 48.18 177.07 L 47.40 178.79 L 46.33 180.35 L 45.05 181.73 L 43.55 182.88 L 41.91 183.81 L 40.16 184.53 L 38.34 185.05 L 36.49 185.40 L 34.61 185.61 L 32.72 185.71 L 30.83 185.72 L 28.94 185.68 L 27.05 185.59 L 25.16 185.44 L 23.29 185.21 L 21.43 184.88 L 19.59 184.43 L 17.80 183.81 L 16.09 183.02 L 14.48 182.02 L 13.03 180.82 L 11.77 179.42 L 10.75 177.83 L 9.95 176.11 L 9.37 174.32 L 8.97 172.47 L 8.72 170.60 L 8.62 168.71 L 8.65 166.82 L 8.76 164.93 L 8.97 163.05 L 9.31 161.19 L 9.76 159.36 L 10.33 157.56 L 11.03 155.80 L 11.86 154.10 L 12.81 152.47 L 13.89 150.92 L 15.10 149.47 L 16.43 148.12 L 17.87 146.90 L 19.41 145.81 L 21.06 144.88 L 22.78 144.10 L 24.57 143.48 L 26.40 143.02 L 28.27 142.73 Z"></path><ellipse class="bird-toe" data-anchor="40.184 187.535" fill="#eafff5" cx="165.93597" cy="170.54491" rx="3.8840909" ry="0.82091522" transform="matrix(0.93242696,0.36135851,-0.65187735,0.75832441,0,0)"></ellipse><ellipse class="bird-toe" data-anchor="40.184 187.535" fill="#eafff5" cx="189.64407" cy="-24.811516" rx="3.1437743" ry="1.0536716" transform="matrix(0.08211358,0.99662297,-0.99901441,-0.04438722,0,0)"></ellipse><ellipse class="bird-toe" data-anchor="40.184 187.535" fill="#eafff5" cx="-118.11807" cy="212.07419" rx="4.0173759" ry="0.78369194" transform="matrix(0.94692824,-0.32144506,0.70063768,0.71351723,0,0)"></ellipse><ellipse class="bird-toe" data-anchor="20.857 187.402" fill="#eafff5" cx="191.05363" cy="-5.1148601" rx="3.9237621" ry="1.3386955" transform="matrix(0.0835902,0.99650023,-0.99904909,-0.04359927,0,0)"></ellipse><ellipse class="bird-toe" data-anchor="20.857 187.402" fill="#eafff5" cx="-136.81755" cy="206.88751" rx="5.0949697" ry="0.98674309" transform="matrix(0.94865772,-0.31630452,0.70701144,0.70720212,0,0)"></ellipse></g><g><ellipse fill="#a5ecd0" cx="20.5" cy="166.8" rx="2.9" ry="1.8"></ellipse></g><g><ellipse fill="#a5ecd0" cx="41.5" cy="166.8" rx="2.9" ry="1.8"></ellipse></g><ellipse fill="#ffffff" cx="31.00935" cy="158.27187" rx="11.1125" ry="11.112499"></ellipse><g style="transition:transform 0.12s ease-out;will-change:transform"><g class="bird-pupil"><g><ellipse fill="#157a52" cx="32.067684" cy="158.27187" rx="4.7624998" ry="4.7624993"></ellipse></g></g></g><g clip-path="url(#_b36_0_-eye)"><path fill="#eafff5" d="M 19.31 146.57 H 42.71 V 158.8 Q 31.01 153.0 19.31 158.8 Z"></path></g></g></g></g></g></svg>
<text x="76" y="149" text-anchor="middle" font-family="system-ui, sans-serif" font-size="10" font-weight="500" fill="#9ca3af">Spearmint</text>
<svg x="150" y="16" width="120" height="120" viewBox="0 0 120 120" preserveAspectRatio="xMidYMid slice" role="img" aria-label="Lio - sleepy periwinkle blush with fangs and cheeks"><defs><linearGradient id="_b37_0_-bg" x1="0" y1="0" x2="0" y2="1"><stop offset="0" stop-color="#b9c6ff"></stop><stop offset="1" stop-color="#6d7ff5"></stop></linearGradient><clipPath id="_b37_0_-tile"><rect width="120" height="120" rx="32"></rect></clipPath><clipPath id="_b37_0_-eye"><circle cx="31.00935" cy="158.27187" r="11.7"></circle></clipPath></defs><rect width="120" height="120" rx="32" fill="url(#_b37_0_-bg)"></rect><g clip-path="url(#_b37_0_-tile)"><g transform="translate(20.55 -149.14) scale(1.3)"><g class="bird-emote"><g style="transform-box:fill-box;transform-origin:50% 100%"><g><ellipse class="bird-toe" data-anchor="20.857 187.402" fill="#eef1ff" cx="153.34886" cy="179.45131" rx="4.9235578" ry="1.0323864" transform="matrix(0.93458067,0.35575125,-0.65858761,0.75250405,0,0)"></ellipse><ellipse fill="#eef1ff" cx="20.664642" cy="183.11169" rx="2.0929158" ry="5.5265679"></ellipse><ellipse fill="#eef1ff" cx="40.032341" cy="184.09807" rx="1.6472523" ry="4.4285111"></ellipse><path fill="#eef1ff" d="M 37.74 156.50 L 38.69 167.46 L 60.14 154.56 Z"></path><path fill="#eef1ff" d="M 36.79 145.55 L 60.14 154.56 L 37.74 156.50 Z"></path><path fill="#eef1ff" d="M 45.56 163.33 L 49.50 160.96 L 50.62 167.29 Z M 50.49 160.37 L 54.09 158.20 L 54.87 163.57 Z"></path><path fill="#eef1ff" d="M 30.15 142.59 L 32.04 142.59 L 33.93 142.71 L 35.80 142.98 L 37.63 143.46 L 39.37 144.17 L 40.98 145.16 L 42.40 146.41 L 43.59 147.87 L 44.57 149.48 L 45.38 151.19 L 46.06 152.96 L 46.63 154.76 L 47.12 156.58 L 47.55 158.43 L 47.93 160.28 L 48.27 162.14 L 48.59 164.00 L 48.89 165.87 L 49.12 167.75 L 49.25 169.63 L 49.25 171.52 L 49.09 173.41 L 48.74 175.26 L 48.18 177.07 L 47.40 178.79 L 46.33 180.35 L 45.05 181.73 L 43.55 182.88 L 41.91 183.81 L 40.16 184.53 L 38.34 185.05 L 36.49 185.40 L 34.61 185.61 L 32.72 185.71 L 30.83 185.72 L 28.94 185.68 L 27.05 185.59 L 25.16 185.44 L 23.29 185.21 L 21.43 184.88 L 19.59 184.43 L 17.80 183.81 L 16.09 183.02 L 14.48 182.02 L 13.03 180.82 L 11.77 179.42 L 10.75 177.83 L 9.95 176.11 L 9.37 174.32 L 8.97 172.47 L 8.72 170.60 L 8.62 168.71 L 8.65 166.82 L 8.76 164.93 L 8.97 163.05 L 9.31 161.19 L 9.76 159.36 L 10.33 157.56 L 11.03 155.80 L 11.86 154.10 L 12.81 152.47 L 13.89 150.92 L 15.10 149.47 L 16.43 148.12 L 17.87 146.90 L 19.41 145.81 L 21.06 144.88 L 22.78 144.10 L 24.57 143.48 L 26.40 143.02 L 28.27 142.73 Z"></path><ellipse class="bird-toe" data-anchor="40.184 187.535" fill="#eef1ff" cx="165.93597" cy="170.54491" rx="3.8840909" ry="0.82091522" transform="matrix(0.93242696,0.36135851,-0.65187735,0.75832441,0,0)"></ellipse><ellipse class="bird-toe" data-anchor="40.184 187.535" fill="#eef1ff" cx="189.64407" cy="-24.811516" rx="3.1437743" ry="1.0536716" transform="matrix(0.08211358,0.99662297,-0.99901441,-0.04438722,0,0)"></ellipse><ellipse class="bird-toe" data-anchor="40.184 187.535" fill="#eef1ff" cx="-118.11807" cy="212.07419" rx="4.0173759" ry="0.78369194" transform="matrix(0.94692824,-0.32144506,0.70063768,0.71351723,0,0)"></ellipse><ellipse class="bird-toe" data-anchor="20.857 187.402" fill="#eef1ff" cx="191.05363" cy="-5.1148601" rx="3.9237621" ry="1.3386955" transform="matrix(0.0835902,0.99650023,-0.99904909,-0.04359927,0,0)"></ellipse><ellipse class="bird-toe" data-anchor="20.857 187.402" fill="#eef1ff" cx="-136.81755" cy="206.88751" rx="5.0949697" ry="0.98674309" transform="matrix(0.94865772,-0.31630452,0.70701144,0.70720212,0,0)"></ellipse></g><g><ellipse fill="#c3ccff" cx="20.5" cy="166.8" rx="2.9" ry="1.8"></ellipse></g><g><ellipse fill="#c3ccff" cx="41.5" cy="166.8" rx="2.9" ry="1.8"></ellipse></g><ellipse fill="#ffffff" cx="31.00935" cy="158.27187" rx="11.1125" ry="11.112499"></ellipse><g style="transition:transform 0.12s ease-out;will-change:transform"><g class="bird-pupil"><g><ellipse fill="#3546c4" cx="32.067684" cy="158.27187" rx="4.7624998" ry="4.7624993"></ellipse></g></g></g><g clip-path="url(#_b37_0_-eye)"><path fill="#eef1ff" d="M 19.31 146.57 H 42.71 V 158.8 Q 31.01 153.0 19.31 158.8 Z"></path></g></g></g></g></g></svg>
<text x="210" y="149" text-anchor="middle" font-family="system-ui, sans-serif" font-size="10" font-weight="500" fill="#9ca3af">Periwinkle</text>
<svg x="284" y="16" width="120" height="120" viewBox="0 0 120 120" preserveAspectRatio="xMidYMid slice" role="img" aria-label="Lio - scholar in a mortarboard on crimson"><defs><linearGradient id="_b38_0_-bg" x1="0" y1="0" x2="0" y2="1"><stop offset="0" stop-color="#d95468"></stop><stop offset="1" stop-color="#a51c30"></stop></linearGradient><clipPath id="_b38_0_-tile"><rect width="120" height="120" rx="32"></rect></clipPath><clipPath id="_b38_0_-eye"><circle cx="31.00935" cy="158.27187" r="11.7"></circle></clipPath></defs><rect width="120" height="120" rx="32" fill="url(#_b38_0_-bg)"></rect><g clip-path="url(#_b38_0_-tile)"><g transform="translate(20.55 -149.14) scale(1.3)"><g class="bird-emote"><g style="transform-box:fill-box;transform-origin:50% 100%"><g><ellipse class="bird-toe" data-anchor="20.857 187.402" fill="#5c0f1b" cx="153.34886" cy="179.45131" rx="4.9235578" ry="1.0323864" transform="matrix(0.93458067,0.35575125,-0.65858761,0.75250405,0,0)"></ellipse><ellipse fill="#5c0f1b" cx="20.664642" cy="183.11169" rx="2.0929158" ry="5.5265679"></ellipse><ellipse fill="#5c0f1b" cx="40.032341" cy="184.09807" rx="1.6472523" ry="4.4285111"></ellipse><path fill="#eab308" d="M 37.74 156.50 L 38.69 167.46 L 60.14 154.56 Z"></path><path fill="#eab308" d="M 36.79 145.55 L 60.14 154.56 L 37.74 156.50 Z"></path><path fill="#fdf6f0" d="M 30.15 142.59 L 32.04 142.59 L 33.93 142.71 L 35.80 142.98 L 37.63 143.46 L 39.37 144.17 L 40.98 145.16 L 42.40 146.41 L 43.59 147.87 L 44.57 149.48 L 45.38 151.19 L 46.06 152.96 L 46.63 154.76 L 47.12 156.58 L 47.55 158.43 L 47.93 160.28 L 48.27 162.14 L 48.59 164.00 L 48.89 165.87 L 49.12 167.75 L 49.25 169.63 L 49.25 171.52 L 49.09 173.41 L 48.74 175.26 L 48.18 177.07 L 47.40 178.79 L 46.33 180.35 L 45.05 181.73 L 43.55 182.88 L 41.91 183.81 L 40.16 184.53 L 38.34 185.05 L 36.49 185.40 L 34.61 185.61 L 32.72 185.71 L 30.83 185.72 L 28.94 185.68 L 27.05 185.59 L 25.16 185.44 L 23.29 185.21 L 21.43 184.88 L 19.59 184.43 L 17.80 183.81 L 16.09 183.02 L 14.48 182.02 L 13.03 180.82 L 11.77 179.42 L 10.75 177.83 L 9.95 176.11 L 9.37 174.32 L 8.97 172.47 L 8.72 170.60 L 8.62 168.71 L 8.65 166.82 L 8.76 164.93 L 8.97 163.05 L 9.31 161.19 L 9.76 159.36 L 10.33 157.56 L 11.03 155.80 L 11.86 154.10 L 12.81 152.47 L 13.89 150.92 L 15.10 149.47 L 16.43 148.12 L 17.87 146.90 L 19.41 145.81 L 21.06 144.88 L 22.78 144.10 L 24.57 143.48 L 26.40 143.02 L 28.27 142.73 Z"></path><ellipse class="bird-toe" data-anchor="40.184 187.535" fill="#5c0f1b" cx="165.93597" cy="170.54491" rx="3.8840909" ry="0.82091522" transform="matrix(0.93242696,0.36135851,-0.65187735,0.75832441,0,0)"></ellipse><ellipse class="bird-toe" data-anchor="40.184 187.535" fill="#5c0f1b" cx="189.64407" cy="-24.811516" rx="3.1437743" ry="1.0536716" transform="matrix(0.08211358,0.99662297,-0.99901441,-0.04438722,0,0)"></ellipse><ellipse class="bird-toe" data-anchor="40.184 187.535" fill="#5c0f1b" cx="-118.11807" cy="212.07419" rx="4.0173759" ry="0.78369194" transform="matrix(0.94692824,-0.32144506,0.70063768,0.71351723,0,0)"></ellipse><ellipse class="bird-toe" data-anchor="20.857 187.402" fill="#5c0f1b" cx="191.05363" cy="-5.1148601" rx="3.9237621" ry="1.3386955" transform="matrix(0.0835902,0.99650023,-0.99904909,-0.04359927,0,0)"></ellipse><ellipse class="bird-toe" data-anchor="20.857 187.402" fill="#5c0f1b" cx="-136.81755" cy="206.88751" rx="5.0949697" ry="0.98674309" transform="matrix(0.94865772,-0.31630452,0.70701144,0.70720212,0,0)"></ellipse></g><g transform="translate(0 1.8) rotate(-10 31 141)" fill="#1f1a1e"><rect x="23.5" y="138" width="15" height="6" rx="2"></rect><path d="M 31 128 L 46 133 L 31 138 L 16 133 Z"></path><path d="M 31 133 Q 43 132 44.5 140" fill="none" stroke="#ffd54f" stroke-width="1.3" stroke-linecap="round"></path><circle cx="31" cy="133" r="1.2" fill="#ffd54f"></circle><circle cx="44.5" cy="141.5" r="1.8" fill="#ffd54f"></circle></g><ellipse fill="#ffffff" cx="31.00935" cy="158.27187" rx="11.1125" ry="11.112499"></ellipse><g style="transition:transform 0.12s ease-out;will-change:transform"><g class="bird-pupil"><g><ellipse fill="#3b0d16" cx="32.067684" cy="158.27187" rx="4.7624998" ry="4.7624993"></ellipse></g></g></g><g clip-path="url(#_b38_0_-eye)"></g></g></g></g></g></svg>
<text x="344" y="149" text-anchor="middle" font-family="system-ui, sans-serif" font-size="10" font-weight="500" fill="#9ca3af">Crimson</text>
<svg x="418" y="16" width="120" height="120" viewBox="0 0 120 120" preserveAspectRatio="xMidYMid slice" role="img" aria-label="Lio - scholar in a mortarboard on laurel green"><defs><linearGradient id="_b39_0_-bg" x1="0" y1="0" x2="0" y2="1"><stop offset="0" stop-color="#86c98f"></stop><stop offset="1" stop-color="#2e7d4f"></stop></linearGradient><clipPath id="_b39_0_-tile"><rect width="120" height="120" rx="32"></rect></clipPath><clipPath id="_b39_0_-eye"><circle cx="31.00935" cy="158.27187" r="11.7"></circle></clipPath></defs><rect width="120" height="120" rx="32" fill="url(#_b39_0_-bg)"></rect><g clip-path="url(#_b39_0_-tile)"><g transform="translate(20.55 -149.14) scale(1.3)"><g class="bird-emote"><g style="transform-box:fill-box;transform-origin:50% 100%"><g><ellipse class="bird-toe" data-anchor="20.857 187.402" fill="#143326" cx="153.34886" cy="179.45131" rx="4.9235578" ry="1.0323864" transform="matrix(0.93458067,0.35575125,-0.65858761,0.75250405,0,0)"></ellipse><ellipse fill="#143326" cx="20.664642" cy="183.11169" rx="2.0929158" ry="5.5265679"></ellipse><ellipse fill="#143326" cx="40.032341" cy="184.09807" rx="1.6472523" ry="4.4285111"></ellipse><path fill="#f0a340" d="M 37.74 156.50 L 38.69 167.46 L 60.14 154.56 Z"></path><path fill="#f0a340" d="M 36.79 145.55 L 60.14 154.56 L 37.74 156.50 Z"></path><path fill="#f3faf0" d="M 30.15 142.59 L 32.04 142.59 L 33.93 142.71 L 35.80 142.98 L 37.63 143.46 L 39.37 144.17 L 40.98 145.16 L 42.40 146.41 L 43.59 147.87 L 44.57 149.48 L 45.38 151.19 L 46.06 152.96 L 46.63 154.76 L 47.12 156.58 L 47.55 158.43 L 47.93 160.28 L 48.27 162.14 L 48.59 164.00 L 48.89 165.87 L 49.12 167.75 L 49.25 169.63 L 49.25 171.52 L 49.09 173.41 L 48.74 175.26 L 48.18 177.07 L 47.40 178.79 L 46.33 180.35 L 45.05 181.73 L 43.55 182.88 L 41.91 183.81 L 40.16 184.53 L 38.34 185.05 L 36.49 185.40 L 34.61 185.61 L 32.72 185.71 L 30.83 185.72 L 28.94 185.68 L 27.05 185.59 L 25.16 185.44 L 23.29 185.21 L 21.43 184.88 L 19.59 184.43 L 17.80 183.81 L 16.09 183.02 L 14.48 182.02 L 13.03 180.82 L 11.77 179.42 L 10.75 177.83 L 9.95 176.11 L 9.37 174.32 L 8.97 172.47 L 8.72 170.60 L 8.62 168.71 L 8.65 166.82 L 8.76 164.93 L 8.97 163.05 L 9.31 161.19 L 9.76 159.36 L 10.33 157.56 L 11.03 155.80 L 11.86 154.10 L 12.81 152.47 L 13.89 150.92 L 15.10 149.47 L 16.43 148.12 L 17.87 146.90 L 19.41 145.81 L 21.06 144.88 L 22.78 144.10 L 24.57 143.48 L 26.40 143.02 L 28.27 142.73 Z"></path><ellipse class="bird-toe" data-anchor="40.184 187.535" fill="#143326" cx="165.93597" cy="170.54491" rx="3.8840909" ry="0.82091522" transform="matrix(0.93242696,0.36135851,-0.65187735,0.75832441,0,0)"></ellipse><ellipse class="bird-toe" data-anchor="40.184 187.535" fill="#143326" cx="189.64407" cy="-24.811516" rx="3.1437743" ry="1.0536716" transform="matrix(0.08211358,0.99662297,-0.99901441,-0.04438722,0,0)"></ellipse><ellipse class="bird-toe" data-anchor="40.184 187.535" fill="#143326" cx="-118.11807" cy="212.07419" rx="4.0173759" ry="0.78369194" transform="matrix(0.94692824,-0.32144506,0.70063768,0.71351723,0,0)"></ellipse><ellipse class="bird-toe" data-anchor="20.857 187.402" fill="#143326" cx="191.05363" cy="-5.1148601" rx="3.9237621" ry="1.3386955" transform="matrix(0.0835902,0.99650023,-0.99904909,-0.04359927,0,0)"></ellipse><ellipse class="bird-toe" data-anchor="20.857 187.402" fill="#143326" cx="-136.81755" cy="206.88751" rx="5.0949697" ry="0.98674309" transform="matrix(0.94865772,-0.31630452,0.70701144,0.70720212,0,0)"></ellipse></g><g transform="translate(0 1.8) rotate(-10 31 141)" fill="#143326"><rect x="23.5" y="138" width="15" height="6" rx="2"></rect><path d="M 31 128 L 46 133 L 31 138 L 16 133 Z"></path><path d="M 31 133 Q 43 132 44.5 140" fill="none" stroke="#ffd54f" stroke-width="1.3" stroke-linecap="round"></path><circle cx="31" cy="133" r="1.2" fill="#ffd54f"></circle><circle cx="44.5" cy="141.5" r="1.8" fill="#ffd54f"></circle></g><ellipse fill="#ffffff" cx="31.00935" cy="158.27187" rx="11.1125" ry="11.112499"></ellipse><g style="transition:transform 0.12s ease-out;will-change:transform"><g class="bird-pupil"><g><ellipse fill="#143326" cx="32.067684" cy="158.27187" rx="4.7624998" ry="4.7624993"></ellipse></g></g></g><g clip-path="url(#_b39_0_-eye)"></g></g></g></g></g></svg>
<text x="478" y="149" text-anchor="middle" font-family="system-ui, sans-serif" font-size="10" font-weight="500" fill="#9ca3af">Laurel</text>
<svg x="552" y="16" width="120" height="120" viewBox="0 0 120 120" preserveAspectRatio="xMidYMid slice" role="img" aria-label="Lio - sleepy blush graduate on twilight violet"><defs><linearGradient id="_b40_0_-bg" x1="0" y1="0" x2="0" y2="1"><stop offset="0" stop-color="#c9a6f5"></stop><stop offset="1" stop-color="#7e4bd0"></stop></linearGradient><clipPath id="_b40_0_-tile"><rect width="120" height="120" rx="32"></rect></clipPath><clipPath id="_b40_0_-eye"><circle cx="31.00935" cy="158.27187" r="11.7"></circle></clipPath></defs><rect width="120" height="120" rx="32" fill="url(#_b40_0_-bg)"></rect><g clip-path="url(#_b40_0_-tile)"><g transform="translate(20.55 -149.14) scale(1.3)"><g class="bird-emote"><g style="transform-box:fill-box;transform-origin:50% 100%"><g><ellipse class="bird-toe" data-anchor="20.857 187.402" fill="#f3eaff" cx="153.34886" cy="179.45131" rx="4.9235578" ry="1.0323864" transform="matrix(0.93458067,0.35575125,-0.65858761,0.75250405,0,0)"></ellipse><ellipse fill="#f3eaff" cx="20.664642" cy="183.11169" rx="2.0929158" ry="5.5265679"></ellipse><ellipse fill="#f3eaff" cx="40.032341" cy="184.09807" rx="1.6472523" ry="4.4285111"></ellipse><path fill="#f3eaff" d="M 37.74 156.50 L 38.69 167.46 L 60.14 154.56 Z"></path><path fill="#f3eaff" d="M 36.79 145.55 L 60.14 154.56 L 37.74 156.50 Z"></path><path fill="#f3eaff" d="M 45.56 163.33 L 49.50 160.96 L 50.62 167.29 Z M 50.49 160.37 L 54.09 158.20 L 54.87 163.57 Z"></path><path fill="#f3eaff" d="M 30.15 142.59 L 32.04 142.59 L 33.93 142.71 L 35.80 142.98 L 37.63 143.46 L 39.37 144.17 L 40.98 145.16 L 42.40 146.41 L 43.59 147.87 L 44.57 149.48 L 45.38 151.19 L 46.06 152.96 L 46.63 154.76 L 47.12 156.58 L 47.55 158.43 L 47.93 160.28 L 48.27 162.14 L 48.59 164.00 L 48.89 165.87 L 49.12 167.75 L 49.25 169.63 L 49.25 171.52 L 49.09 173.41 L 48.74 175.26 L 48.18 177.07 L 47.40 178.79 L 46.33 180.35 L 45.05 181.73 L 43.55 182.88 L 41.91 183.81 L 40.16 184.53 L 38.34 185.05 L 36.49 185.40 L 34.61 185.61 L 32.72 185.71 L 30.83 185.72 L 28.94 185.68 L 27.05 185.59 L 25.16 185.44 L 23.29 185.21 L 21.43 184.88 L 19.59 184.43 L 17.80 183.81 L 16.09 183.02 L 14.48 182.02 L 13.03 180.82 L 11.77 179.42 L 10.75 177.83 L 9.95 176.11 L 9.37 174.32 L 8.97 172.47 L 8.72 170.60 L 8.62 168.71 L 8.65 166.82 L 8.76 164.93 L 8.97 163.05 L 9.31 161.19 L 9.76 159.36 L 10.33 157.56 L 11.03 155.80 L 11.86 154.10 L 12.81 152.47 L 13.89 150.92 L 15.10 149.47 L 16.43 148.12 L 17.87 146.90 L 19.41 145.81 L 21.06 144.88 L 22.78 144.10 L 24.57 143.48 L 26.40 143.02 L 28.27 142.73 Z"></path><ellipse class="bird-toe" data-anchor="40.184 187.535" fill="#f3eaff" cx="165.93597" cy="170.54491" rx="3.8840909" ry="0.82091522" transform="matrix(0.93242696,0.36135851,-0.65187735,0.75832441,0,0)"></ellipse><ellipse class="bird-toe" data-anchor="40.184 187.535" fill="#f3eaff" cx="189.64407" cy="-24.811516" rx="3.1437743" ry="1.0536716" transform="matrix(0.08211358,0.99662297,-0.99901441,-0.04438722,0,0)"></ellipse><ellipse class="bird-toe" data-anchor="40.184 187.535" fill="#f3eaff" cx="-118.11807" cy="212.07419" rx="4.0173759" ry="0.78369194" transform="matrix(0.94692824,-0.32144506,0.70063768,0.71351723,0,0)"></ellipse><ellipse class="bird-toe" data-anchor="20.857 187.402" fill="#f3eaff" cx="191.05363" cy="-5.1148601" rx="3.9237621" ry="1.3386955" transform="matrix(0.0835902,0.99650023,-0.99904909,-0.04359927,0,0)"></ellipse><ellipse class="bird-toe" data-anchor="20.857 187.402" fill="#f3eaff" cx="-136.81755" cy="206.88751" rx="5.0949697" ry="0.98674309" transform="matrix(0.94865772,-0.31630452,0.70701144,0.70720212,0,0)"></ellipse></g><g transform="translate(0 1.8) rotate(-10 31 141)" fill="#2d1854"><rect x="23.5" y="138" width="15" height="6" rx="2"></rect><path d="M 31 128 L 46 133 L 31 138 L 16 133 Z"></path><path d="M 31 133 Q 43 132 44.5 140" fill="none" stroke="#ffd54f" stroke-width="1.3" stroke-linecap="round"></path><circle cx="31" cy="133" r="1.2" fill="#ffd54f"></circle><circle cx="44.5" cy="141.5" r="1.8" fill="#ffd54f"></circle></g><g><ellipse fill="#dcc5fa" cx="20.5" cy="166.8" rx="2.9" ry="1.8"></ellipse></g><g><ellipse fill="#dcc5fa" cx="41.5" cy="166.8" rx="2.9" ry="1.8"></ellipse></g><ellipse fill="#ffffff" cx="31.00935" cy="158.27187" rx="11.1125" ry="11.112499"></ellipse><g style="transition:transform 0.12s ease-out;will-change:transform"><g class="bird-pupil"><g><ellipse fill="#4c2a8c" cx="32.067684" cy="158.27187" rx="4.7624998" ry="4.7624993"></ellipse></g></g></g><g clip-path="url(#_b40_0_-eye)"><path fill="#f3eaff" d="M 19.31 146.57 H 42.71 V 158.8 Q 31.01 153.0 19.31 158.8 Z"></path></g></g></g></g></g></svg>
<text x="612" y="149" text-anchor="middle" font-family="system-ui, sans-serif" font-size="10" font-weight="500" fill="#9ca3af">Twilight</text>
<svg x="686" y="16" width="120" height="120" viewBox="0 0 120 120" preserveAspectRatio="xMidYMid slice" role="img" aria-label="Lio - sleepy blush graduate on dawn gold"><defs><linearGradient id="_b41_0_-bg" x1="0" y1="0" x2="0" y2="1"><stop offset="0" stop-color="#ffd08a"></stop><stop offset="1" stop-color="#f59932"></stop></linearGradient><clipPath id="_b41_0_-tile"><rect width="120" height="120" rx="32"></rect></clipPath><clipPath id="_b41_0_-eye"><circle cx="31.00935" cy="158.27187" r="11.7"></circle></clipPath></defs><rect width="120" height="120" rx="32" fill="url(#_b41_0_-bg)"></rect><g clip-path="url(#_b41_0_-tile)"><g transform="translate(20.55 -149.14) scale(1.3)"><g class="bird-emote"><g style="transform-box:fill-box;transform-origin:50% 100%"><g><ellipse class="bird-toe" data-anchor="20.857 187.402" fill="#fff4e2" cx="153.34886" cy="179.45131" rx="4.9235578" ry="1.0323864" transform="matrix(0.93458067,0.35575125,-0.65858761,0.75250405,0,0)"></ellipse><ellipse fill="#fff4e2" cx="20.664642" cy="183.11169" rx="2.0929158" ry="5.5265679"></ellipse><ellipse fill="#fff4e2" cx="40.032341" cy="184.09807" rx="1.6472523" ry="4.4285111"></ellipse><path fill="#fff4e2" d="M 37.74 156.50 L 38.69 167.46 L 60.14 154.56 Z"></path><path fill="#fff4e2" d="M 36.79 145.55 L 60.14 154.56 L 37.74 156.50 Z"></path><path fill="#fff4e2" d="M 45.56 163.33 L 49.50 160.96 L 50.62 167.29 Z M 50.49 160.37 L 54.09 158.20 L 54.87 163.57 Z"></path><path fill="#fff4e2" d="M 30.15 142.59 L 32.04 142.59 L 33.93 142.71 L 35.80 142.98 L 37.63 143.46 L 39.37 144.17 L 40.98 145.16 L 42.40 146.41 L 43.59 147.87 L 44.57 149.48 L 45.38 151.19 L 46.06 152.96 L 46.63 154.76 L 47.12 156.58 L 47.55 158.43 L 47.93 160.28 L 48.27 162.14 L 48.59 164.00 L 48.89 165.87 L 49.12 167.75 L 49.25 169.63 L 49.25 171.52 L 49.09 173.41 L 48.74 175.26 L 48.18 177.07 L 47.40 178.79 L 46.33 180.35 L 45.05 181.73 L 43.55 182.88 L 41.91 183.81 L 40.16 184.53 L 38.34 185.05 L 36.49 185.40 L 34.61 185.61 L 32.72 185.71 L 30.83 185.72 L 28.94 185.68 L 27.05 185.59 L 25.16 185.44 L 23.29 185.21 L 21.43 184.88 L 19.59 184.43 L 17.80 183.81 L 16.09 183.02 L 14.48 182.02 L 13.03 180.82 L 11.77 179.42 L 10.75 177.83 L 9.95 176.11 L 9.37 174.32 L 8.97 172.47 L 8.72 170.60 L 8.62 168.71 L 8.65 166.82 L 8.76 164.93 L 8.97 163.05 L 9.31 161.19 L 9.76 159.36 L 10.33 157.56 L 11.03 155.80 L 11.86 154.10 L 12.81 152.47 L 13.89 150.92 L 15.10 149.47 L 16.43 148.12 L 17.87 146.90 L 19.41 145.81 L 21.06 144.88 L 22.78 144.10 L 24.57 143.48 L 26.40 143.02 L 28.27 142.73 Z"></path><ellipse class="bird-toe" data-anchor="40.184 187.535" fill="#fff4e2" cx="165.93597" cy="170.54491" rx="3.8840909" ry="0.82091522" transform="matrix(0.93242696,0.36135851,-0.65187735,0.75832441,0,0)"></ellipse><ellipse class="bird-toe" data-anchor="40.184 187.535" fill="#fff4e2" cx="189.64407" cy="-24.811516" rx="3.1437743" ry="1.0536716" transform="matrix(0.08211358,0.99662297,-0.99901441,-0.04438722,0,0)"></ellipse><ellipse class="bird-toe" data-anchor="40.184 187.535" fill="#fff4e2" cx="-118.11807" cy="212.07419" rx="4.0173759" ry="0.78369194" transform="matrix(0.94692824,-0.32144506,0.70063768,0.71351723,0,0)"></ellipse><ellipse class="bird-toe" data-anchor="20.857 187.402" fill="#fff4e2" cx="191.05363" cy="-5.1148601" rx="3.9237621" ry="1.3386955" transform="matrix(0.0835902,0.99650023,-0.99904909,-0.04359927,0,0)"></ellipse><ellipse class="bird-toe" data-anchor="20.857 187.402" fill="#fff4e2" cx="-136.81755" cy="206.88751" rx="5.0949697" ry="0.98674309" transform="matrix(0.94865772,-0.31630452,0.70701144,0.70720212,0,0)"></ellipse></g><g transform="translate(0 1.8) rotate(-10 31 141)" fill="#6b3d0d"><rect x="23.5" y="138" width="15" height="6" rx="2"></rect><path d="M 31 128 L 46 133 L 31 138 L 16 133 Z"></path><path d="M 31 133 Q 43 132 44.5 140" fill="none" stroke="#ffd54f" stroke-width="1.3" stroke-linecap="round"></path><circle cx="31" cy="133" r="1.2" fill="#ffd54f"></circle><circle cx="44.5" cy="141.5" r="1.8" fill="#ffd54f"></circle></g><g><ellipse fill="#ffd9ab" cx="20.5" cy="166.8" rx="2.9" ry="1.8"></ellipse></g><g><ellipse fill="#ffd9ab" cx="41.5" cy="166.8" rx="2.9" ry="1.8"></ellipse></g><ellipse fill="#ffffff" cx="31.00935" cy="158.27187" rx="11.1125" ry="11.112499"></ellipse><g style="transition:transform 0.12s ease-out;will-change:transform"><g class="bird-pupil"><g><ellipse fill="#6b3d0d" cx="32.067684" cy="158.27187" rx="4.7624998" ry="4.7624993"></ellipse></g></g></g><g clip-path="url(#_b41_0_-eye)"><path fill="#fff4e2" d="M 19.31 146.57 H 42.71 V 158.8 Q 31.01 153.0 19.31 158.8 Z"></path></g></g></g></g></g></svg>
<text x="746" y="149" text-anchor="middle" font-family="system-ui, sans-serif" font-size="10" font-weight="500" fill="#9ca3af">Dawn</text>
</svg>
