<svg xmlns="http://www.w3.org/2000/svg" viewBox="0 0 822 322" width="822" height="322">
<svg x="16" y="16" width="120" height="120" viewBox="0 0 120 120" preserveAspectRatio="xMidYMid slice" role="img" aria-label="Lio graduate — giant cropped silhouette, ivory mortarboard, on deep violet"><defs><linearGradient id="_b54_0_-bg" x1="0" y1="0" x2="0" y2="1"><stop offset="0" stop-color="#4a3f6b"></stop><stop offset="1" stop-color="#1d1633"></stop></linearGradient><clipPath id="_b54_0_-tile"><rect width="120" height="120" rx="32"></rect></clipPath><clipPath id="_b54_0_-eye"><circle cx="31.00935" cy="158.27187" r="11.7"></circle></clipPath></defs><rect width="120" height="120" rx="32" fill="url(#_b54_0_-bg)"></rect><g clip-path="url(#_b54_0_-tile)"><g transform="translate(-3.9 -238.71) scale(1.9)"><g class="bird-emote"><g style="transform-box:fill-box;transform-origin:50% 100%"><g><ellipse class="bird-toe" data-anchor="20.857 187.402" fill="#120c22" cx="153.34886" cy="179.45131" rx="4.9235578" ry="1.0323864" transform="matrix(0.93458067,0.35575125,-0.65858761,0.75250405,0,0)"></ellipse><ellipse fill="#120c22" cx="20.664642" cy="183.11169" rx="2.0929158" ry="5.5265679"></ellipse><ellipse fill="#120c22" cx="40.032341" cy="184.09807" rx="1.6472523" ry="4.4285111"></ellipse><path fill="#120c22" d="M 37.74 156.50 L 38.69 167.46 L 60.14 154.56 Z"></path><path fill="#120c22" d="M 36.79 145.55 L 60.14 154.56 L 37.74 156.50 Z"></path><path fill="#120c22" d="M 30.15 142.59 L 32.04 142.59 L 33.93 142.71 L 35.80 142.98 L 37.63 143.46 L 39.37 144.17 L 40.98 145.16 L 42.40 146.41 L 43.59 147.87 L 44.57 149.48 L 45.38 151.19 L 46.06 152.96 L 46.63 154.76 L 47.12 156.58 L 47.55 158.43 L 47.93 160.28 L 48.27 162.14 L 48.59 164.00 L 48.89 165.87 L 49.12 167.75 L 49.25 169.63 L 49.25 171.52 L 49.09 173.41 L 48.74 175.26 L 48.18 177.07 L 47.40 178.79 L 46.33 180.35 L 45.05 181.73 L 43.55 182.88 L 41.91 183.81 L 40.16 184.53 L 38.34 185.05 L 36.49 185.40 L 34.61 185.61 L 32.72 185.71 L 30.83 185.72 L 28.94 185.68 L 27.05 185.59 L 25.16 185.44 L 23.29 185.21 L 21.43 184.88 L 19.59 184.43 L 17.80 183.81 L 16.09 183.02 L 14.48 182.02 L 13.03 180.82 L 11.77 179.42 L 10.75 177.83 L 9.95 176.11 L 9.37 174.32 L 8.97 172.47 L 8.72 170.60 L 8.62 168.71 L 8.65 166.82 L 8.76 164.93 L 8.97 163.05 L 9.31 161.19 L 9.76 159.36 L 10.33 157.56 L 11.03 155.80 L 11.86 154.10 L 12.81 152.47 L 13.89 150.92 L 15.10 149.47 L 16.43 148.12 L 17.87 146.90 L 19.41 145.81 L 21.06 144.88 L 22.78 144.10 L 24.57 143.48 L 26.40 143.02 L 28.27 142.73 Z"></path><ellipse class="bird-toe" data-anchor="40.184 187.535" fill="#120c22" cx="165.93597" cy="170.54491" rx="3.8840909" ry="0.82091522" transform="matrix(0.93242696,0.36135851,-0.65187735,0.75832441,0,0)"></ellipse><ellipse class="bird-toe" data-anchor="40.184 187.535" fill="#120c22" cx="189.64407" cy="-24.811516" rx="3.1437743" ry="1.0536716" transform="matrix(0.08211358,0.99662297,-0.99901441,-0.04438722,0,0)"></ellipse><ellipse class="bird-toe" data-anchor="40.184 187.535" fill="#120c22" cx="-118.11807" cy="212.07419" rx="4.0173759" ry="0.78369194" transform="matrix(0.94692824,-0.32144506,0.70063768,0.71351723,0,0)"></ellipse><ellipse class="bird-toe" data-anchor="20.857 187.402" fill="#120c22" cx="191.05363" cy="-5.1148601" rx="3.9237621" ry="1.3386955" transform="matrix(0.0835902,0.99650023,-0.99904909,-0.04359927,0,0)"></ellipse><ellipse class="bird-toe" data-anchor="20.857 187.402" fill="#120c22" cx="-136.81755" cy="206.88751" rx="5.0949697" ry="0.98674309" transform="matrix(0.94865772,-0.31630452,0.70701144,0.70720212,0,0)"></ellipse></g><g transform="translate(0 1.8) rotate(-10 31 141)" fill="#efeaff"><rect x="23.5" y="138" width="15" height="6" rx="2"></rect><path d="M 31 128 L 46 133 L 31 138 L 16 133 Z"></path><path d="M 31 133 Q 43 132 44.5 140" fill="none" stroke="#ffd54f" stroke-width="1.3" stroke-linecap="round"></path><circle cx="31" cy="133" r="1.2" fill="#ffd54f"></circle><circle cx="44.5" cy="141.5" r="1.8" fill="#ffd54f"></circle></g><ellipse fill="#efeaff" cx="31.00935" cy="158.27187" rx="11.1125" ry="11.112499"></ellipse><g style="transition:transform 0.12s ease-out;will-change:transform"><g class="bird-pupil"><g><ellipse fill="#120c22" cx="32.067684" cy="158.27187" rx="4.7624998" ry="4.7624993"></ellipse></g></g></g><g clip-path="url(#_b54_0_-eye)"></g></g></g></g></g></svg>
<text x="76" y="149" text-anchor="middle" font-family="system-ui, sans-serif" font-size="10" font-weight="500" fill="#9ca3af">Eclipse</text>
<svg x="150" y="16" width="120" height="120" viewBox="0 0 120 120" preserveAspectRatio="xMidYMid slice" role="img" aria-label="Lio graduate — white sticker bird with star pupil on neon lime"><defs><linearGradient id="_b55_0_-bg" x1="0" y1="0" x2="0" y2="1"><stop offset="0" stop-color="#d4f542"></stop><stop offset="1" stop-color="#84cc16"></stop></linearGradient><clipPath id="_b55_0_-tile"><rect width="120" height="120" rx="32"></rect></clipPath><clipPath id="_b55_0_-eye"><circle cx="31.00935" cy="158.27187" r="11.7"></circle></clipPath></defs><rect width="120" height="120" rx="32" fill="url(#_b55_0_-bg)"></rect><g clip-path="url(#_b55_0_-tile)"><g transform="translate(20.55 -149.14) scale(1.3)"><g class="bird-emote"><g style="transform-box:fill-box;transform-origin:50% 100%"><g><ellipse class="bird-toe" data-anchor="20.857 187.402" fill="#1a2e05" cx="153.34886" cy="179.45131" rx="4.9235578" ry="1.0323864" transform="matrix(0.93458067,0.35575125,-0.65858761,0.75250405,0,0)"></ellipse><ellipse fill="#1a2e05" cx="20.664642" cy="183.11169" rx="2.0929158" ry="5.5265679"></ellipse><ellipse fill="#1a2e05" cx="40.032341" cy="184.09807" rx="1.6472523" ry="4.4285111"></ellipse><path fill="#ffffff" d="M 37.74 156.50 L 38.69 167.46 L 60.14 154.56 Z" stroke="#1a2e05" stroke-width="3.5" stroke-linejoin="round" paint-order="stroke"></path><path fill="#ffffff" d="M 36.79 145.55 L 60.14 154.56 L 37.74 156.50 Z" stroke="#1a2e05" stroke-width="3.5" stroke-linejoin="round" paint-order="stroke"></path><path fill="#ffffff" d="M 30.15 142.59 L 32.04 142.59 L 33.93 142.71 L 35.80 142.98 L 37.63 143.46 L 39.37 144.17 L 40.98 145.16 L 42.40 146.41 L 43.59 147.87 L 44.57 149.48 L 45.38 151.19 L 46.06 152.96 L 46.63 154.76 L 47.12 156.58 L 47.55 158.43 L 47.93 160.28 L 48.27 162.14 L 48.59 164.00 L 48.89 165.87 L 49.12 167.75 L 49.25 169.63 L 49.25 171.52 L 49.09 173.41 L 48.74 175.26 L 48.18 177.07 L 47.40 178.79 L 46.33 180.35 L 45.05 181.73 L 43.55 182.88 L 41.91 183.81 L 40.16 184.53 L 38.34 185.05 L 36.49 185.40 L 34.61 185.61 L 32.72 185.71 L 30.83 185.72 L 28.94 185.68 L 27.05 185.59 L 25.16 185.44 L 23.29 185.21 L 21.43 184.88 L 19.59 184.43 L 17.80 183.81 L 16.09 183.02 L 14.48 182.02 L 13.03 180.82 L 11.77 179.42 L 10.75 177.83 L 9.95 176.11 L 9.37 174.32 L 8.97 172.47 L 8.72 170.60 L 8.62 168.71 L 8.65 166.82 L 8.76 164.93 L 8.97 163.05 L 9.31 161.19 L 9.76 159.36 L 10.33 157.56 L 11.03 155.80 L 11.86 154.10 L 12.81 152.47 L 13.89 150.92 L 15.10 149.47 L 16.43 148.12 L 17.87 146.90 L 19.41 145.81 L 21.06 144.88 L 22.78 144.10 L 24.57 143.48 L 26.40 143.02 L 28.27 142.73 Z" stroke="#1a2e05" stroke-width="3.5" stroke-linejoin="round" paint-order="stroke"></path><ellipse class="bird-toe" data-anchor="40.184 187.535" fill="#1a2e05" cx="165.93597" cy="170.54491" rx="3.8840909" ry="0.82091522" transform="matrix(0.93242696,0.36135851,-0.65187735,0.75832441,0,0)"></ellipse><ellipse class="bird-toe" data-anchor="40.184 187.535" fill="#1a2e05" cx="189.64407" cy="-24.811516" rx="3.1437743" ry="1.0536716" transform="matrix(0.08211358,0.99662297,-0.99901441,-0.04438722,0,0)"></ellipse><ellipse class="bird-toe" data-anchor="40.184 187.535" fill="#1a2e05" cx="-118.11807" cy="212.07419" rx="4.0173759" ry="0.78369194" transform="matrix(0.94692824,-0.32144506,0.70063768,0.71351723,0,0)"></ellipse><ellipse class="bird-toe" data-anchor="20.857 187.402" fill="#1a2e05" cx="191.05363" cy="-5.1148601" rx="3.9237621" ry="1.3386955" transform="matrix(0.0835902,0.99650023,-0.99904909,-0.04359927,0,0)"></ellipse><ellipse class="bird-toe" data-anchor="20.857 187.402" fill="#1a2e05" cx="-136.81755" cy="206.88751" rx="5.0949697" ry="0.98674309" transform="matrix(0.94865772,-0.31630452,0.70701144,0.70720212,0,0)"></ellipse></g><g transform="translate(0 1.8) rotate(-10 31 141)" fill="#1a2e05"><rect x="23.5" y="138" width="15" height="6" rx="2"></rect><path d="M 31 128 L 46 133 L 31 138 L 16 133 Z"></path><path d="M 31 133 Q 43 132 44.5 140" fill="none" stroke="#ffd54f" stroke-width="1.3" stroke-linecap="round"></path><circle cx="31" cy="133" r="1.2" fill="#ffd54f"></circle><circle cx="44.5" cy="141.5" r="1.8" fill="#ffd54f"></circle></g><polyline points="33,167 35.5,170 38,167 40.5,170 43,167" fill="none" stroke="#1a2e05" stroke-width="1.6" stroke-linecap="round" stroke-linejoin="round"></polyline><ellipse fill="#ffffff" cx="31.00935" cy="158.27187" rx="11.1125" ry="11.112499"></ellipse><g style="transition:transform 0.12s ease-out;will-change:transform"><g class="bird-pupil"><g><path fill="#1a2e05" d="M 32.07 152.67 L 33.42 156.41 L 37.40 156.54 L 34.26 158.98 L 35.36 162.80 L 32.07 160.57 L 28.78 162.80 L 29.88 158.98 L 26.74 156.54 L 30.72 156.41 Z"></path></g></g></g><g clip-path="url(#_b55_0_-eye)"></g></g></g></g></g></svg>
<text x="210" y="149" text-anchor="middle" font-family="system-ui, sans-serif" font-size="10" font-weight="500" fill="#9ca3af">Neon</text>
<svg x="284" y="16" width="120" height="120" viewBox="0 0 120 120" preserveAspectRatio="xMidYMid slice" role="img" aria-label="Lio graduate — gothic lavender bird, fangs, crimson ring pupil, on dusk"><defs><linearGradient id="_b56_0_-bg" x1="0" y1="0" x2="0" y2="1"><stop offset="0" stop-color="#5b4b73"></stop><stop offset="1" stop-color="#241b36"></stop></linearGradient><clipPath id="_b56_0_-tile"><rect width="120" height="120" rx="32"></rect></clipPath><clipPath id="_b56_0_-eye"><circle cx="31.00935" cy="158.27187" r="11.7"></circle></clipPath></defs><rect width="120" height="120" rx="32" fill="url(#_b56_0_-bg)"></rect><g clip-path="url(#_b56_0_-tile)"><g transform="translate(20.55 -149.14) scale(1.3)"><g class="bird-emote"><g style="transform-box:fill-box;transform-origin:50% 100%"><g><ellipse class="bird-toe" data-anchor="20.857 187.402" fill="#d8cbee" cx="153.34886" cy="179.45131" rx="4.9235578" ry="1.0323864" transform="matrix(0.93458067,0.35575125,-0.65858761,0.75250405,0,0)"></ellipse><ellipse fill="#d8cbee" cx="20.664642" cy="183.11169" rx="2.0929158" ry="5.5265679"></ellipse><ellipse fill="#d8cbee" cx="40.032341" cy="184.09807" rx="1.6472523" ry="4.4285111"></ellipse><path fill="#d8cbee" d="M 37.74 156.50 L 38.69 167.46 L 60.14 154.56 Z"></path><path fill="#d8cbee" d="M 36.79 145.55 L 60.14 154.56 L 37.74 156.50 Z"></path><path fill="#d8cbee" d="M 45.56 163.33 L 49.50 160.96 L 50.62 167.29 Z M 50.49 160.37 L 54.09 158.20 L 54.87 163.57 Z"></path><path fill="#d8cbee" d="M 30.15 142.59 L 32.04 142.59 L 33.93 142.71 L 35.80 142.98 L 37.63 143.46 L 39.37 144.17 L 40.98 145.16 L 42.40 146.41 L 43.59 147.87 L 44.57 149.48 L 45.38 151.19 L 46.06 152.96 L 46.63 154.76 L 47.12 156.58 L 47.55 158.43 L 47.93 160.28 L 48.27 162.14 L 48.59 164.00 L 48.89 165.87 L 49.12 167.75 L 49.25 169.63 L 49.25 171.52 L 49.09 173.41 L 48.74 175.26 L 48.18 177.07 L 47.40 178.79 L 46.33 180.35 L 45.05 181.73 L 43.55 182.88 L 41.91 183.81 L 40.16 184.53 L 38.34 185.05 L 36.49 185.40 L 34.61 185.61 L 32.72 185.71 L 30.83 185.72 L 28.94 185.68 L 27.05 185.59 L 25.16 185.44 L 23.29 185.21 L 21.43 184.88 L 19.59 184.43 L 17.80 183.81 L 16.09 183.02 L 14.48 182.02 L 13.03 180.82 L 11.77 179.42 L 10.75 177.83 L 9.95 176.11 L 9.37 174.32 L 8.97 172.47 L 8.72 170.60 L 8.62 168.71 L 8.65 166.82 L 8.76 164.93 L 8.97 163.05 L 9.31 161.19 L 9.76 159.36 L 10.33 157.56 L 11.03 155.80 L 11.86 154.10 L 12.81 152.47 L 13.89 150.92 L 15.10 149.47 L 16.43 148.12 L 17.87 146.90 L 19.41 145.81 L 21.06 144.88 L 22.78 144.10 L 24.57 143.48 L 26.40 143.02 L 28.27 142.73 Z"></path><ellipse class="bird-toe" data-anchor="40.184 187.535" fill="#d8cbee" cx="165.93597" cy="170.54491" rx="3.8840909" ry="0.82091522" transform="matrix(0.93242696,0.36135851,-0.65187735,0.75832441,0,0)"></ellipse><ellipse class="bird-toe" data-anchor="40.184 187.535" fill="#d8cbee" cx="189.64407" cy="-24.811516" rx="3.1437743" ry="1.0536716" transform="matrix(0.08211358,0.99662297,-0.99901441,-0.04438722,0,0)"></ellipse><ellipse class="bird-toe" data-anchor="40.184 187.535" fill="#d8cbee" cx="-118.11807" cy="212.07419" rx="4.0173759" ry="0.78369194" transform="matrix(0.94692824,-0.32144506,0.70063768,0.71351723,0,0)"></ellipse><ellipse class="bird-toe" data-anchor="20.857 187.402" fill="#d8cbee" cx="191.05363" cy="-5.1148601" rx="3.9237621" ry="1.3386955" transform="matrix(0.0835902,0.99650023,-0.99904909,-0.04359927,0,0)"></ellipse><ellipse class="bird-toe" data-anchor="20.857 187.402" fill="#d8cbee" cx="-136.81755" cy="206.88751" rx="5.0949697" ry="0.98674309" transform="matrix(0.94865772,-0.31630452,0.70701144,0.70720212,0,0)"></ellipse></g><g transform="translate(0 1.8) rotate(-10 31 141)" fill="#8c1d3f"><rect x="23.5" y="138" width="15" height="6" rx="2"></rect><path d="M 31 128 L 46 133 L 31 138 L 16 133 Z"></path><path d="M 31 133 Q 43 132 44.5 140" fill="none" stroke="#ffd54f" stroke-width="1.3" stroke-linecap="round"></path><circle cx="31" cy="133" r="1.2" fill="#ffd54f"></circle><circle cx="44.5" cy="141.5" r="1.8" fill="#ffd54f"></circle></g><g><ellipse fill="#b9a5d6" cx="20.5" cy="166.8" rx="2.9" ry="1.8"></ellipse></g><g><ellipse fill="#b9a5d6" cx="41.5" cy="166.8" rx="2.9" ry="1.8"></ellipse></g><ellipse fill="#ffffff" cx="31.00935" cy="158.27187" rx="11.1125" ry="11.112499"></ellipse><g style="transition:transform 0.12s ease-out;will-change:transform"><g class="bird-pupil"><g><circle fill="none" stroke="#8c1d3f" stroke-width="2.6" cx="32.067684" cy="158.27187" r="3.4"></circle></g></g></g><g clip-path="url(#_b56_0_-eye)"><path fill="#d8cbee" d="M 19.31 146.57 H 42.71 V 158.8 Q 31.01 153.0 19.31 158.8 Z"></path></g></g></g></g></g></svg>
<text x="344" y="149" text-anchor="middle" font-family="system-ui, sans-serif" font-size="10" font-weight="500" fill="#9ca3af">Fang</text>
<svg x="418" y="16" width="120" height="120" viewBox="0 0 120 120" preserveAspectRatio="xMidYMid slice" role="img" aria-label="Lio graduate — gooey white bird, closed happy eye, on fog gray"><defs><linearGradient id="_b57_0_-bg" x1="0" y1="0" x2="0" y2="1"><stop offset="0" stop-color="#cfd8dc"></stop><stop offset="1" stop-color="#78909c"></stop></linearGradient><clipPath id="_b57_0_-tile"><rect width="120" height="120" rx="32"></rect></clipPath><clipPath id="_b57_0_-eye"><circle cx="31.00935" cy="158.27187" r="11.7"></circle></clipPath><filter id="_b57_0_-goo" x="-10%" y="-10%" width="120%" height="120%"><feGaussianBlur stdDeviation="0.45"></feGaussianBlur></filter></defs><rect width="120" height="120" rx="32" fill="url(#_b57_0_-bg)"></rect><g clip-path="url(#_b57_0_-tile)"><g transform="translate(20.55 -149.14) scale(1.3)"><g class="bird-emote"><g style="transform-box:fill-box;transform-origin:50% 100%"><g filter="url(#_b57_0_-goo)"><ellipse class="bird-toe" data-anchor="20.857 187.402" fill="#fcfdff" cx="153.34886" cy="179.45131" rx="4.9235578" ry="1.0323864" transform="matrix(0.93458067,0.35575125,-0.65858761,0.75250405,0,0)"></ellipse><ellipse fill="#fcfdff" cx="20.664642" cy="183.11169" rx="2.0929158" ry="5.5265679"></ellipse><ellipse fill="#fcfdff" cx="40.032341" cy="184.09807" rx="1.6472523" ry="4.4285111"></ellipse><path fill="#fcfdff" d="M 37.74 156.50 L 38.69 167.46 L 60.14 154.56 Z"></path><path fill="#fcfdff" d="M 36.79 145.55 L 60.14 154.56 L 37.74 156.50 Z"></path><path fill="#fcfdff" d="M 30.15 142.59 L 32.04 142.59 L 33.93 142.71 L 35.80 142.98 L 37.63 143.46 L 39.37 144.17 L 40.98 145.16 L 42.40 146.41 L 43.59 147.87 L 44.57 149.48 L 45.38 151.19 L 46.06 152.96 L 46.63 154.76 L 47.12 156.58 L 47.55 158.43 L 47.93 160.28 L 48.27 162.14 L 48.59 164.00 L 48.89 165.87 L 49.12 167.75 L 49.25 169.63 L 49.25 171.52 L 49.09 173.41 L 48.74 175.26 L 48.18 177.07 L 47.40 178.79 L 46.33 180.35 L 45.05 181.73 L 43.55 182.88 L 41.91 183.81 L 40.16 184.53 L 38.34 185.05 L 36.49 185.40 L 34.61 185.61 L 32.72 185.71 L 30.83 185.72 L 28.94 185.68 L 27.05 185.59 L 25.16 185.44 L 23.29 185.21 L 21.43 184.88 L 19.59 184.43 L 17.80 183.81 L 16.09 183.02 L 14.48 182.02 L 13.03 180.82 L 11.77 179.42 L 10.75 177.83 L 9.95 176.11 L 9.37 174.32 L 8.97 172.47 L 8.72 170.60 L 8.62 168.71 L 8.65 166.82 L 8.76 164.93 L 8.97 163.05 L 9.31 161.19 L 9.76 159.36 L 10.33 157.56 L 11.03 155.80 L 11.86 154.10 L 12.81 152.47 L 13.89 150.92 L 15.10 149.47 L 16.43 148.12 L 17.87 146.90 L 19.41 145.81 L 21.06 144.88 L 22.78 144.10 L 24.57 143.48 L 26.40 143.02 L 28.27 142.73 Z"></path><ellipse class="bird-toe" data-anchor="40.184 187.535" fill="#fcfdff" cx="165.93597" cy="170.54491" rx="3.8840909" ry="0.82091522" transform="matrix(0.93242696,0.36135851,-0.65187735,0.75832441,0,0)"></ellipse><ellipse class="bird-toe" data-anchor="40.184 187.535" fill="#fcfdff" cx="189.64407" cy="-24.811516" rx="3.1437743" ry="1.0536716" transform="matrix(0.08211358,0.99662297,-0.99901441,-0.04438722,0,0)"></ellipse><ellipse class="bird-toe" data-anchor="40.184 187.535" fill="#fcfdff" cx="-118.11807" cy="212.07419" rx="4.0173759" ry="0.78369194" transform="matrix(0.94692824,-0.32144506,0.70063768,0.71351723,0,0)"></ellipse><ellipse class="bird-toe" data-anchor="20.857 187.402" fill="#fcfdff" cx="191.05363" cy="-5.1148601" rx="3.9237621" ry="1.3386955" transform="matrix(0.0835902,0.99650023,-0.99904909,-0.04359927,0,0)"></ellipse><ellipse class="bird-toe" data-anchor="20.857 187.402" fill="#fcfdff" cx="-136.81755" cy="206.88751" rx="5.0949697" ry="0.98674309" transform="matrix(0.94865772,-0.31630452,0.70701144,0.70720212,0,0)"></ellipse></g><g transform="translate(0 1.8) rotate(-10 31 141)" fill="#b0bec5"><rect x="23.5" y="138" width="15" height="6" rx="2"></rect><path d="M 31 128 L 46 133 L 31 138 L 16 133 Z"></path><path d="M 31 133 Q 43 132 44.5 140" fill="none" stroke="#ffd54f" stroke-width="1.3" stroke-linecap="round"></path><circle cx="31" cy="133" r="1.2" fill="#ffd54f"></circle><circle cx="44.5" cy="141.5" r="1.8" fill="#ffd54f"></circle></g><ellipse fill="#fcfdff" cx="31.00935" cy="158.27187" rx="11.1125" ry="11.112499"></ellipse><g style="transition:transform 0.12s ease-out;will-change:transform"><g class="bird-pupil"><g><ellipse fill="#fcfdff" cx="32.067684" cy="158.27187" rx="4.7624998" ry="4.7624993"></ellipse></g></g></g><g clip-path="url(#_b57_0_-eye)"></g><path d="M 24.5 156.5 Q 31 163.5 37.5 156.5" fill="none" stroke="#37474f" stroke-width="2.6" stroke-linecap="round"></path></g></g></g></g></svg>
<text x="478" y="149" text-anchor="middle" font-family="system-ui, sans-serif" font-size="10" font-weight="500" fill="#9ca3af">Mist</text>
<svg x="552" y="16" width="120" height="120" viewBox="0 0 120 120" preserveAspectRatio="xMidYMid slice" role="img" aria-label="Lio graduate — tall cream bird with lashes on coral"><defs><linearGradient id="_b58_0_-bg" x1="0" y1="0" x2="0" y2="1"><stop offset="0" stop-color="#ff8a70"></stop><stop offset="1" stop-color="#e6442e"></stop></linearGradient><clipPath id="_b58_0_-tile"><rect width="120" height="120" rx="32"></rect></clipPath><clipPath id="_b58_0_-eye"><circle cx="31.00935" cy="158.27187" r="11.7"></circle></clipPath></defs><rect width="120" height="120" rx="32" fill="url(#_b58_0_-bg)"></rect><g clip-path="url(#_b58_0_-tile)"><g transform="translate(25.37 -181.11) scale(1.14 1.5)"><g class="bird-emote"><g style="transform-box:fill-box;transform-origin:50% 100%"><g><ellipse class="bird-toe" data-anchor="20.857 187.402" fill="#7d2617" cx="153.34886" cy="179.45131" rx="4.9235578" ry="1.0323864" transform="matrix(0.93458067,0.35575125,-0.65858761,0.75250405,0,0)"></ellipse><ellipse fill="#7d2617" cx="20.664642" cy="183.11169" rx="2.0929158" ry="5.5265679"></ellipse><ellipse fill="#7d2617" cx="40.032341" cy="184.09807" rx="1.6472523" ry="4.4285111"></ellipse><path fill="#ffb27a" d="M 37.74 156.50 L 38.69 167.46 L 60.14 154.56 Z"></path><path fill="#ffb27a" d="M 36.79 145.55 L 60.14 154.56 L 37.74 156.50 Z"></path><path fill="#fff1e6" d="M 30.15 142.59 L 32.04 142.59 L 33.93 142.71 L 35.80 142.98 L 37.63 143.46 L 39.37 144.17 L 40.98 145.16 L 42.40 146.41 L 43.59 147.87 L 44.57 149.48 L 45.38 151.19 L 46.06 152.96 L 46.63 154.76 L 47.12 156.58 L 47.55 158.43 L 47.93 160.28 L 48.27 162.14 L 48.59 164.00 L 48.89 165.87 L 49.12 167.75 L 49.25 169.63 L 49.25 171.52 L 49.09 173.41 L 48.74 175.26 L 48.18 177.07 L 47.40 178.79 L 46.33 180.35 L 45.05 181.73 L 43.55 182.88 L 41.91 183.81 L 40.16 184.53 L 38.34 185.05 L 36.49 185.40 L 34.61 185.61 L 32.72 185.71 L 30.83 185.72 L 28.94 185.68 L 27.05 185.59 L 25.16 185.44 L 23.29 185.21 L 21.43 184.88 L 19.59 184.43 L 17.80 183.81 L 16.09 183.02 L 14.48 182.02 L 13.03 180.82 L 11.77 179.42 L 10.75 177.83 L 9.95 176.11 L 9.37 174.32 L 8.97 172.47 L 8.72 170.60 L 8.62 168.71 L 8.65 166.82 L 8.76 164.93 L 8.97 163.05 L 9.31 161.19 L 9.76 159.36 L 10.33 157.56 L 11.03 155.80 L 11.86 154.10 L 12.81 152.47 L 13.89 150.92 L 15.10 149.47 L 16.43 148.12 L 17.87 146.90 L 19.41 145.81 L 21.06 144.88 L 22.78 144.10 L 24.57 143.48 L 26.40 143.02 L 28.27 142.73 Z"></path><ellipse class="bird-toe" data-anchor="40.184 187.535" fill="#7d2617" cx="165.93597" cy="170.54491" rx="3.8840909" ry="0.82091522" transform="matrix(0.93242696,0.36135851,-0.65187735,0.75832441,0,0)"></ellipse><ellipse class="bird-toe" data-anchor="40.184 187.535" fill="#7d2617" cx="189.64407" cy="-24.811516" rx="3.1437743" ry="1.0536716" transform="matrix(0.08211358,0.99662297,-0.99901441,-0.04438722,0,0)"></ellipse><ellipse class="bird-toe" data-anchor="40.184 187.535" fill="#7d2617" cx="-118.11807" cy="212.07419" rx="4.0173759" ry="0.78369194" transform="matrix(0.94692824,-0.32144506,0.70063768,0.71351723,0,0)"></ellipse><ellipse class="bird-toe" data-anchor="20.857 187.402" fill="#7d2617" cx="191.05363" cy="-5.1148601" rx="3.9237621" ry="1.3386955" transform="matrix(0.0835902,0.99650023,-0.99904909,-0.04359927,0,0)"></ellipse><ellipse class="bird-toe" data-anchor="20.857 187.402" fill="#7d2617" cx="-136.81755" cy="206.88751" rx="5.0949697" ry="0.98674309" transform="matrix(0.94865772,-0.31630452,0.70701144,0.70720212,0,0)"></ellipse></g><g transform="translate(0 1.8) rotate(-10 31 141)" fill="#1d4d3b"><rect x="23.5" y="138" width="15" height="6" rx="2"></rect><path d="M 31 128 L 46 133 L 31 138 L 16 133 Z"></path><path d="M 31 133 Q 43 132 44.5 140" fill="none" stroke="#ffd54f" stroke-width="1.3" stroke-linecap="round"></path><circle cx="31" cy="133" r="1.2" fill="#ffd54f"></circle><circle cx="44.5" cy="141.5" r="1.8" fill="#ffd54f"></circle></g><ellipse fill="#ffffff" cx="31.00935" cy="158.27187" rx="11.1125" ry="11.112499"></ellipse><g style="transition:transform 0.12s ease-out;will-change:transform"><g class="bird-pupil"><g><ellipse fill="#58281c" cx="32.067684" cy="158.27187" rx="4.7624998" ry="4.7624993"></ellipse></g></g></g><g clip-path="url(#_b58_0_-eye)"></g><path d="M 38.86 150.41 L 40.98 148.29 M 41.07 153.57 L 43.79 152.30 M 42.07 157.30 L 45.07 157.04" fill="none" stroke="#58281c" stroke-width="1.4" stroke-linecap="round"></path></g></g></g></g></svg>
<text x="612" y="149" text-anchor="middle" font-family="system-ui, sans-serif" font-size="10" font-weight="500" fill="#9ca3af">Poppy</text>
<svg x="686" y="16" width="120" height="120" viewBox="0 0 120 120" preserveAspectRatio="xMidYMid slice" role="img" aria-label="Lio graduate — squat wide bird, heart pupil, cheeks, on aqua"><defs><linearGradient id="_b59_0_-bg" x1="0" y1="0" x2="0" y2="1"><stop offset="0" stop-color="#9be8f0"></stop><stop offset="1" stop-color="#2fb6c9"></stop></linearGradient><clipPath id="_b59_0_-tile"><rect width="120" height="120" rx="32"></rect></clipPath><clipPath id="_b59_0_-eye"><circle cx="31.00935" cy="158.27187" r="11.7"></circle></clipPath></defs><rect width="120" height="120" rx="32" fill="url(#_b59_0_-bg)"></rect><g clip-path="url(#_b59_0_-tile)"><g transform="translate(16.89 -108.93) scale(1.42 1.05)"><g class="bird-emote"><g style="transform-box:fill-box;transform-origin:50% 100%"><g><ellipse class="bird-toe" data-anchor="20.857 187.402" fill="#12525c" cx="153.34886" cy="179.45131" rx="4.9235578" ry="1.0323864" transform="matrix(0.93458067,0.35575125,-0.65858761,0.75250405,0,0)"></ellipse><ellipse fill="#12525c" cx="20.664642" cy="183.11169" rx="2.0929158" ry="5.5265679"></ellipse><ellipse fill="#12525c" cx="40.032341" cy="184.09807" rx="1.6472523" ry="4.4285111"></ellipse><path fill="#ffc36b" d="M 37.74 156.50 L 38.69 167.46 L 60.14 154.56 Z"></path><path fill="#ffc36b" d="M 36.79 145.55 L 60.14 154.56 L 37.74 156.50 Z"></path><path fill="#f2fdff" d="M 30.15 142.59 L 32.04 142.59 L 33.93 142.71 L 35.80 142.98 L 37.63 143.46 L 39.37 144.17 L 40.98 145.16 L 42.40 146.41 L 43.59 147.87 L 44.57 149.48 L 45.38 151.19 L 46.06 152.96 L 46.63 154.76 L 47.12 156.58 L 47.55 158.43 L 47.93 160.28 L 48.27 162.14 L 48.59 164.00 L 48.89 165.87 L 49.12 167.75 L 49.25 169.63 L 49.25 171.52 L 49.09 173.41 L 48.74 175.26 L 48.18 177.07 L 47.40 178.79 L 46.33 180.35 L 45.05 181.73 L 43.55 182.88 L 41.91 183.81 L 40.16 184.53 L 38.34 185.05 L 36.49 185.40 L 34.61 185.61 L 32.72 185.71 L 30.83 185.72 L 28.94 185.68 L 27.05 185.59 L 25.16 185.44 L 23.29 185.21 L 21.43 184.88 L 19.59 184.43 L 17.80 183.81 L 16.09 183.02 L 14.48 182.02 L 13.03 180.82 L 11.77 179.42 L 10.75 177.83 L 9.95 176.11 L 9.37 174.32 L 8.97 172.47 L 8.72 170.60 L 8.62 168.71 L 8.65 166.82 L 8.76 164.93 L 8.97 163.05 L 9.31 161.19 L 9.76 159.36 L 10.33 157.56 L 11.03 155.80 L 11.86 154.10 L 12.81 152.47 L 13.89 150.92 L 15.10 149.47 L 16.43 148.12 L 17.87 146.90 L 19.41 145.81 L 21.06 144.88 L 22.78 144.10 L 24.57 143.48 L 26.40 143.02 L 28.27 142.73 Z"></path><ellipse class="bird-toe" data-anchor="40.184 187.535" fill="#12525c" cx="165.93597" cy="170.54491" rx="3.8840909" ry="0.82091522" transform="matrix(0.93242696,0.36135851,-0.65187735,0.75832441,0,0)"></ellipse><ellipse class="bird-toe" data-anchor="40.184 187.535" fill="#12525c" cx="189.64407" cy="-24.811516" rx="3.1437743" ry="1.0536716" transform="matrix(0.08211358,0.99662297,-0.99901441,-0.04438722,0,0)"></ellipse><ellipse class="bird-toe" data-anchor="40.184 187.535" fill="#12525c" cx="-118.11807" cy="212.07419" rx="4.0173759" ry="0.78369194" transform="matrix(0.94692824,-0.32144506,0.70063768,0.71351723,0,0)"></ellipse><ellipse class="bird-toe" data-anchor="20.857 187.402" fill="#12525c" cx="191.05363" cy="-5.1148601" rx="3.9237621" ry="1.3386955" transform="matrix(0.0835902,0.99650023,-0.99904909,-0.04359927,0,0)"></ellipse><ellipse class="bird-toe" data-anchor="20.857 187.402" fill="#12525c" cx="-136.81755" cy="206.88751" rx="5.0949697" ry="0.98674309" transform="matrix(0.94865772,-0.31630452,0.70701144,0.70720212,0,0)"></ellipse></g><g transform="translate(0 1.8) rotate(-10 31 141)" fill="#12525c"><rect x="23.5" y="138" width="15" height="6" rx="2"></rect><path d="M 31 128 L 46 133 L 31 138 L 16 133 Z"></path><path d="M 31 133 Q 43 132 44.5 140" fill="none" stroke="#ffd54f" stroke-width="1.3" stroke-linecap="round"></path><circle cx="31" cy="133" r="1.2" fill="#ffd54f"></circle><circle cx="44.5" cy="141.5" r="1.8" fill="#ffd54f"></circle></g><g><ellipse fill="#ffc2d4" cx="20.5" cy="166.8" rx="2.9" ry="1.8"></ellipse></g><g><ellipse fill="#ffc2d4" cx="41.5" cy="166.8" rx="2.9" ry="1.8"></ellipse></g><ellipse fill="#ffffff" cx="31.00935" cy="158.27187" rx="11.1125" ry="11.112499"></ellipse><g style="transition:transform 0.12s ease-out;will-change:transform"><g class="bird-pupil"><g><path fill="#d6336c" d="M 32.07 162.6 C 27.5 158.8 26.6 155.6 28.4 153.9 C 30.0 152.4 32.07 153.6 32.07 155.2 C 32.07 153.6 34.1 152.4 35.7 153.9 C 37.5 155.6 36.6 158.8 32.07 162.6 Z"></path></g></g></g><g clip-path="url(#_b59_0_-eye)"></g></g></g></g></g></svg>
<text x="746" y="149" text-anchor="middle" font-family="system-ui, sans-serif" font-size="10" font-weight="500" fill="#9ca3af">Chonk</text>
<svg x="16" y="168" width="120" height="120" viewBox="0 0 120 120" preserveAspectRatio="xMidYMid slice" role="img" aria-label="Lio graduate — jauntily tilted white bird, anime eye, on banana"><defs><linearGradient id="_b60_0_-bg" x1="0" y1="0" x2="0" y2="1"><stop offset="0" stop-color="#ffe45c"></stop><stop offset="1" stop-color="#f5b400"></stop></linearGradient><clipPath id="_b60_0_-tile"><rect width="120" height="120" rx="32"></rect></clipPath><clipPath id="_b60_0_-eye"><circle cx="31.00935" cy="158.27187" r="14.625"></circle></clipPath></defs><rect width="120" height="120" rx="32" fill="url(#_b60_0_-bg)"></rect><g clip-path="url(#_b60_0_-tile)"><g transform="translate(20.55 -149.14) scale(1.3) rotate(-8 31 160)"><g class="bird-emote"><g style="transform-box:fill-box;transform-origin:50% 100%"><g><ellipse class="bird-toe" data-anchor="20.857 187.402" fill="#6b4e08" cx="153.34886" cy="179.45131" rx="4.9235578" ry="1.0323864" transform="matrix(0.93458067,0.35575125,-0.65858761,0.75250405,0,0)"></ellipse><ellipse fill="#6b4e08" cx="20.664642" cy="183.11169" rx="2.0929158" ry="5.5265679"></ellipse><ellipse fill="#6b4e08" cx="40.032341" cy="184.09807" rx="1.6472523" ry="4.4285111"></ellipse><path fill="#ff9800" d="M 37.74 156.50 L 38.69 167.46 L 60.14 154.56 Z"></path><path fill="#ff9800" d="M 36.79 145.55 L 60.14 154.56 L 37.74 156.50 Z"></path><path fill="#ffffff" d="M 30.15 142.59 L 32.04 142.59 L 33.93 142.71 L 35.80 142.98 L 37.63 143.46 L 39.37 144.17 L 40.98 145.16 L 42.40 146.41 L 43.59 147.87 L 44.57 149.48 L 45.38 151.19 L 46.06 152.96 L 46.63 154.76 L 47.12 156.58 L 47.55 158.43 L 47.93 160.28 L 48.27 162.14 L 48.59 164.00 L 48.89 165.87 L 49.12 167.75 L 49.25 169.63 L 49.25 171.52 L 49.09 173.41 L 48.74 175.26 L 48.18 177.07 L 47.40 178.79 L 46.33 180.35 L 45.05 181.73 L 43.55 182.88 L 41.91 183.81 L 40.16 184.53 L 38.34 185.05 L 36.49 185.40 L 34.61 185.61 L 32.72 185.71 L 30.83 185.72 L 28.94 185.68 L 27.05 185.59 L 25.16 185.44 L 23.29 185.21 L 21.43 184.88 L 19.59 184.43 L 17.80 183.81 L 16.09 183.02 L 14.48 182.02 L 13.03 180.82 L 11.77 179.42 L 10.75 177.83 L 9.95 176.11 L 9.37 174.32 L 8.97 172.47 L 8.72 170.60 L 8.62 168.71 L 8.65 166.82 L 8.76 164.93 L 8.97 163.05 L 9.31 161.19 L 9.76 159.36 L 10.33 157.56 L 11.03 155.80 L 11.86 154.10 L 12.81 152.47 L 13.89 150.92 L 15.10 149.47 L 16.43 148.12 L 17.87 146.90 L 19.41 145.81 L 21.06 144.88 L 22.78 144.10 L 24.57 143.48 L 26.40 143.02 L 28.27 142.73 Z"></path><ellipse class="bird-toe" data-anchor="40.184 187.535" fill="#6b4e08" cx="165.93597" cy="170.54491" rx="3.8840909" ry="0.82091522" transform="matrix(0.93242696,0.36135851,-0.65187735,0.75832441,0,0)"></ellipse><ellipse class="bird-toe" data-anchor="40.184 187.535" fill="#6b4e08" cx="189.64407" cy="-24.811516" rx="3.1437743" ry="1.0536716" transform="matrix(0.08211358,0.99662297,-0.99901441,-0.04438722,0,0)"></ellipse><ellipse class="bird-toe" data-anchor="40.184 187.535" fill="#6b4e08" cx="-118.11807" cy="212.07419" rx="4.0173759" ry="0.78369194" transform="matrix(0.94692824,-0.32144506,0.70063768,0.71351723,0,0)"></ellipse><ellipse class="bird-toe" data-anchor="20.857 187.402" fill="#6b4e08" cx="191.05363" cy="-5.1148601" rx="3.9237621" ry="1.3386955" transform="matrix(0.0835902,0.99650023,-0.99904909,-0.04359927,0,0)"></ellipse><ellipse class="bird-toe" data-anchor="20.857 187.402" fill="#6b4e08" cx="-136.81755" cy="206.88751" rx="5.0949697" ry="0.98674309" transform="matrix(0.94865772,-0.31630452,0.70701144,0.70720212,0,0)"></ellipse></g><g transform="translate(0 0) rotate(-10 31 141)" fill="#123a63"><rect x="23.5" y="138" width="15" height="6" rx="2"></rect><path d="M 31 128 L 46 133 L 31 138 L 16 133 Z"></path><path d="M 31 133 Q 43 132 44.5 140" fill="none" stroke="#ffd54f" stroke-width="1.3" stroke-linecap="round"></path><circle cx="31" cy="133" r="1.2" fill="#ffd54f"></circle><circle cx="44.5" cy="141.5" r="1.8" fill="#ffd54f"></circle></g><ellipse fill="#ffffff" cx="31.00935" cy="158.27187" rx="13.890625" ry="13.89062375"></ellipse><g style="transition:transform 0.12s ease-out;will-change:transform"><g class="bird-pupil"><g><ellipse fill="#4a3305" cx="32.067684" cy="158.27187" rx="6.19124974" ry="6.19124909"></ellipse><circle fill="#ffffff" cx="35.1215" cy="155.30949999999999" r="1.9"></circle><circle fill="#ffffff" cx="30.1215" cy="161.18449999999999" r="0.95"></circle></g></g></g><g clip-path="url(#_b60_0_-eye)"></g></g></g></g></g></svg>
<text x="76" y="301" text-anchor="middle" font-family="system-ui, sans-serif" font-size="10" font-weight="500" fill="#9ca3af">Tilt</text>
<svg x="150" y="168" width="120" height="120" viewBox="0 0 120 120" preserveAspectRatio="xMidYMid slice" role="img" aria-label="Lio graduate — all-gold monochrome bird with ring pupil"><defs><linearGradient id="_b61_0_-bg" x1="0" y1="0" x2="0" y2="1"><stop offset="0" stop-color="#e8c869"></stop><stop offset="1" stop-color="#b8860b"></stop></linearGradient><clipPath id="_b61_0_-tile"><rect width="120" height="120" rx="32"></rect></clipPath><clipPath id="_b61_0_-eye"><circle cx="31.00935" cy="158.27187" r="11.7"></circle></clipPath></defs><rect width="120" height="120" rx="32" fill="url(#_b61_0_-bg)"></rect><g clip-path="url(#_b61_0_-tile)"><g transform="translate(20.55 -149.14) scale(1.3)"><g class="bird-emote"><g style="transform-box:fill-box;transform-origin:50% 100%"><g><ellipse class="bird-toe" data-anchor="20.857 187.402" fill="#6b4e08" cx="153.34886" cy="179.45131" rx="4.9235578" ry="1.0323864" transform="matrix(0.93458067,0.35575125,-0.65858761,0.75250405,0,0)"></ellipse><ellipse fill="#6b4e08" cx="20.664642" cy="183.11169" rx="2.0929158" ry="5.5265679"></ellipse><ellipse fill="#6b4e08" cx="40.032341" cy="184.09807" rx="1.6472523" ry="4.4285111"></ellipse><path fill="#d4a017" d="M 37.74 156.50 L 38.69 167.46 L 60.14 154.56 Z"></path><path fill="#d4a017" d="M 36.79 145.55 L 60.14 154.56 L 37.74 156.50 Z"></path><path fill="#ffe9a8" d="M 30.15 142.59 L 32.04 142.59 L 33.93 142.71 L 35.80 142.98 L 37.63 143.46 L 39.37 144.17 L 40.98 145.16 L 42.40 146.41 L 43.59 147.87 L 44.57 149.48 L 45.38 151.19 L 46.06 152.96 L 46.63 154.76 L 47.12 156.58 L 47.55 158.43 L 47.93 160.28 L 48.27 162.14 L 48.59 164.00 L 48.89 165.87 L 49.12 167.75 L 49.25 169.63 L 49.25 171.52 L 49.09 173.41 L 48.74 175.26 L 48.18 177.07 L 47.40 178.79 L 46.33 180.35 L 45.05 181.73 L 43.55 182.88 L 41.91 183.81 L 40.16 184.53 L 38.34 185.05 L 36.49 185.40 L 34.61 185.61 L 32.72 185.71 L 30.83 185.72 L 28.94 185.68 L 27.05 185.59 L 25.16 185.44 L 23.29 185.21 L 21.43 184.88 L 19.59 184.43 L 17.80 183.81 L 16.09 183.02 L 14.48 182.02 L 13.03 180.82 L 11.77 179.42 L 10.75 177.83 L 9.95 176.11 L 9.37 174.32 L 8.97 172.47 L 8.72 170.60 L 8.62 168.71 L 8.65 166.82 L 8.76 164.93 L 8.97 163.05 L 9.31 161.19 L 9.76 159.36 L 10.33 157.56 L 11.03 155.80 L 11.86 154.10 L 12.81 152.47 L 13.89 150.92 L 15.10 149.47 L 16.43 148.12 L 17.87 146.90 L 19.41 145.81 L 21.06 144.88 L 22.78 144.10 L 24.57 143.48 L 26.40 143.02 L 28.27 142.73 Z"></path><ellipse class="bird-toe" data-anchor="40.184 187.535" fill="#6b4e08" cx="165.93597" cy="170.54491" rx="3.8840909" ry="0.82091522" transform="matrix(0.93242696,0.36135851,-0.65187735,0.75832441,0,0)"></ellipse><ellipse class="bird-toe" data-anchor="40.184 187.535" fill="#6b4e08" cx="189.64407" cy="-24.811516" rx="3.1437743" ry="1.0536716" transform="matrix(0.08211358,0.99662297,-0.99901441,-0.04438722,0,0)"></ellipse><ellipse class="bird-toe" data-anchor="40.184 187.535" fill="#6b4e08" cx="-118.11807" cy="212.07419" rx="4.0173759" ry="0.78369194" transform="matrix(0.94692824,-0.32144506,0.70063768,0.71351723,0,0)"></ellipse><ellipse class="bird-toe" data-anchor="20.857 187.402" fill="#6b4e08" cx="191.05363" cy="-5.1148601" rx="3.9237621" ry="1.3386955" transform="matrix(0.0835902,0.99650023,-0.99904909,-0.04359927,0,0)"></ellipse><ellipse class="bird-toe" data-anchor="20.857 187.402" fill="#6b4e08" cx="-136.81755" cy="206.88751" rx="5.0949697" ry="0.98674309" transform="matrix(0.94865772,-0.31630452,0.70701144,0.70720212,0,0)"></ellipse></g><g transform="translate(0 1.8) rotate(-10 31 141)" fill="#6b4e08"><rect x="23.5" y="138" width="15" height="6" rx="2"></rect><path d="M 31 128 L 46 133 L 31 138 L 16 133 Z"></path><path d="M 31 133 Q 43 132 44.5 140" fill="none" stroke="#ffd54f" stroke-width="1.3" stroke-linecap="round"></path><circle cx="31" cy="133" r="1.2" fill="#ffd54f"></circle><circle cx="44.5" cy="141.5" r="1.8" fill="#ffd54f"></circle></g><ellipse fill="#fff9e6" cx="31.00935" cy="158.27187" rx="11.1125" ry="11.112499"></ellipse><g style="transition:transform 0.12s ease-out;will-change:transform"><g class="bird-pupil"><g><circle fill="none" stroke="#6b4e08" stroke-width="2.6" cx="32.067684" cy="158.27187" r="3.4"></circle></g></g></g><g clip-path="url(#_b61_0_-eye)"></g></g></g></g></g></svg>
<text x="210" y="301" text-anchor="middle" font-family="system-ui, sans-serif" font-size="10" font-weight="500" fill="#9ca3af">Midas</text>
<svg x="284" y="168" width="120" height="120" viewBox="0 0 120 120" preserveAspectRatio="xMidYMid slice" role="img" aria-label="Lio graduate — white line-art bird on blueprint blue"><defs><linearGradient id="_b62_0_-bg" x1="0" y1="0" x2="0" y2="1"><stop offset="0" stop-color="#2f5fb3"></stop><stop offset="1" stop-color="#173e80"></stop></linearGradient><clipPath id="_b62_0_-tile"><rect width="120" height="120" rx="32"></rect></clipPath><clipPath id="_b62_0_-eye"><circle cx="31.00935" cy="158.27187" r="11.7"></circle></clipPath></defs><rect width="120" height="120" rx="32" fill="url(#_b62_0_-bg)"></rect><g clip-path="url(#_b62_0_-tile)"><g transform="translate(20.55 -149.14) scale(1.3)"><g class="bird-emote"><g style="transform-box:fill-box;transform-origin:50% 100%"><g><ellipse class="bird-toe" data-anchor="20.857 187.402" fill="#eaf2ff" cx="153.34886" cy="179.45131" rx="4.9235578" ry="1.0323864" transform="matrix(0.93458067,0.35575125,-0.65858761,0.75250405,0,0)"></ellipse><ellipse fill="#eaf2ff" cx="20.664642" cy="183.11169" rx="2.0929158" ry="5.5265679"></ellipse><ellipse fill="#eaf2ff" cx="40.032341" cy="184.09807" rx="1.6472523" ry="4.4285111"></ellipse><path fill="#264f9e" d="M 37.74 156.50 L 38.69 167.46 L 60.14 154.56 Z" stroke="#eaf2ff" stroke-width="2.5" stroke-linejoin="round" paint-order="stroke"></path><path fill="#264f9e" d="M 36.79 145.55 L 60.14 154.56 L 37.74 156.50 Z" stroke="#eaf2ff" stroke-width="2.5" stroke-linejoin="round" paint-order="stroke"></path><path fill="#264f9e" d="M 30.15 142.59 L 32.04 142.59 L 33.93 142.71 L 35.80 142.98 L 37.63 143.46 L 39.37 144.17 L 40.98 145.16 L 42.40 146.41 L 43.59 147.87 L 44.57 149.48 L 45.38 151.19 L 46.06 152.96 L 46.63 154.76 L 47.12 156.58 L 47.55 158.43 L 47.93 160.28 L 48.27 162.14 L 48.59 164.00 L 48.89 165.87 L 49.12 167.75 L 49.25 169.63 L 49.25 171.52 L 49.09 173.41 L 48.74 175.26 L 48.18 177.07 L 47.40 178.79 L 46.33 180.35 L 45.05 181.73 L 43.55 182.88 L 41.91 183.81 L 40.16 184.53 L 38.34 185.05 L 36.49 185.40 L 34.61 185.61 L 32.72 185.71 L 30.83 185.72 L 28.94 185.68 L 27.05 185.59 L 25.16 185.44 L 23.29 185.21 L 21.43 184.88 L 19.59 184.43 L 17.80 183.81 L 16.09 183.02 L 14.48 182.02 L 13.03 180.82 L 11.77 179.42 L 10.75 177.83 L 9.95 176.11 L 9.37 174.32 L 8.97 172.47 L 8.72 170.60 L 8.62 168.71 L 8.65 166.82 L 8.76 164.93 L 8.97 163.05 L 9.31 161.19 L 9.76 159.36 L 10.33 157.56 L 11.03 155.80 L 11.86 154.10 L 12.81 152.47 L 13.89 150.92 L 15.10 149.47 L 16.43 148.12 L 17.87 146.90 L 19.41 145.81 L 21.06 144.88 L 22.78 144.10 L 24.57 143.48 L 26.40 143.02 L 28.27 142.73 Z" stroke="#eaf2ff" stroke-width="2.5" stroke-linejoin="round" paint-order="stroke"></path><ellipse class="bird-toe" data-anchor="40.184 187.535" fill="#eaf2ff" cx="165.93597" cy="170.54491" rx="3.8840909" ry="0.82091522" transform="matrix(0.93242696,0.36135851,-0.65187735,0.75832441,0,0)"></ellipse><ellipse class="bird-toe" data-anchor="40.184 187.535" fill="#eaf2ff" cx="189.64407" cy="-24.811516" rx="3.1437743" ry="1.0536716" transform="matrix(0.08211358,0.99662297,-0.99901441,-0.04438722,0,0)"></ellipse><ellipse class="bird-toe" data-anchor="40.184 187.535" fill="#eaf2ff" cx="-118.11807" cy="212.07419" rx="4.0173759" ry="0.78369194" transform="matrix(0.94692824,-0.32144506,0.70063768,0.71351723,0,0)"></ellipse><ellipse class="bird-toe" data-anchor="20.857 187.402" fill="#eaf2ff" cx="191.05363" cy="-5.1148601" rx="3.9237621" ry="1.3386955" transform="matrix(0.0835902,0.99650023,-0.99904909,-0.04359927,0,0)"></ellipse><ellipse class="bird-toe" data-anchor="20.857 187.402" fill="#eaf2ff" cx="-136.81755" cy="206.88751" rx="5.0949697" ry="0.98674309" transform="matrix(0.94865772,-0.31630452,0.70701144,0.70720212,0,0)"></ellipse></g><g transform="translate(0 1.8) rotate(-10 31 141)" fill="#eaf2ff"><rect x="23.5" y="138" width="15" height="6" rx="2"></rect><path d="M 31 128 L 46 133 L 31 138 L 16 133 Z"></path><path d="M 31 133 Q 43 132 44.5 140" fill="none" stroke="#ffd54f" stroke-width="1.3" stroke-linecap="round"></path><circle cx="31" cy="133" r="1.2" fill="#ffd54f"></circle><circle cx="44.5" cy="141.5" r="1.8" fill="#ffd54f"></circle></g><polyline points="33,167 35.5,170 38,167 40.5,170 43,167" fill="none" stroke="#eaf2ff" stroke-width="1.6" stroke-linecap="round" stroke-linejoin="round"></polyline><ellipse fill="#264f9e" cx="31.00935" cy="158.27187" rx="11.1125" ry="11.112499"></ellipse><g style="transition:transform 0.12s ease-out;will-change:transform"><g class="bird-pupil"><g><circle fill="none" stroke="#eaf2ff" stroke-width="2.6" cx="32.067684" cy="158.27187" r="3.4"></circle></g></g></g><g clip-path="url(#_b62_0_-eye)"></g></g></g></g></g></svg>
<text x="344" y="301" text-anchor="middle" font-family="system-ui, sans-serif" font-size="10" font-weight="500" fill="#9ca3af">Blueprint</text>
<svg x="418" y="168" width="120" height="120" viewBox="0 0 120 120" preserveAspectRatio="xMidYMid slice" role="img" aria-label="Lio graduate — watermelon-pink bird, star pupil, on rind green"><defs><linearGradient id="_b63_0_-bg" x1="0" y1="0" x2="0" y2="1"><stop offset="0" stop-color="#69d17c"></stop><stop offset="1" stop-color="#2e9e4f"></stop></linearGradient><clipPath id="_b63_0_-tile"><rect width="120" height="120" rx="32"></rect></clipPath><clipPath id="_b63_0_-eye"><circle cx="31.00935" cy="158.27187" r="11.7"></circle></clipPath></defs><rect width="120" height="120" rx="32" fill="url(#_b63_0_-bg)"></rect><g clip-path="url(#_b63_0_-tile)"><g transform="translate(20.55 -149.14) scale(1.3)"><g class="bird-emote"><g style="transform-box:fill-box;transform-origin:50% 100%"><g><ellipse class="bird-toe" data-anchor="20.857 187.402" fill="#1d5c31" cx="153.34886" cy="179.45131" rx="4.9235578" ry="1.0323864" transform="matrix(0.93458067,0.35575125,-0.65858761,0.75250405,0,0)"></ellipse><ellipse fill="#1d5c31" cx="20.664642" cy="183.11169" rx="2.0929158" ry="5.5265679"></ellipse><ellipse fill="#1d5c31" cx="40.032341" cy="184.09807" rx="1.6472523" ry="4.4285111"></ellipse><path fill="#ff8fa3" d="M 37.74 156.50 L 38.69 167.46 L 60.14 154.56 Z"></path><path fill="#ff8fa3" d="M 36.79 145.55 L 60.14 154.56 L 37.74 156.50 Z"></path><path fill="#ffb3c1" d="M 30.15 142.59 L 32.04 142.59 L 33.93 142.71 L 35.80 142.98 L 37.63 143.46 L 39.37 144.17 L 40.98 145.16 L 42.40 146.41 L 43.59 147.87 L 44.57 149.48 L 45.38 151.19 L 46.06 152.96 L 46.63 154.76 L 47.12 156.58 L 47.55 158.43 L 47.93 160.28 L 48.27 162.14 L 48.59 164.00 L 48.89 165.87 L 49.12 167.75 L 49.25 169.63 L 49.25 171.52 L 49.09 173.41 L 48.74 175.26 L 48.18 177.07 L 47.40 178.79 L 46.33 180.35 L 45.05 181.73 L 43.55 182.88 L 41.91 183.81 L 40.16 184.53 L 38.34 185.05 L 36.49 185.40 L 34.61 185.61 L 32.72 185.71 L 30.83 185.72 L 28.94 185.68 L 27.05 185.59 L 25.16 185.44 L 23.29 185.21 L 21.43 184.88 L 19.59 184.43 L 17.80 183.81 L 16.09 183.02 L 14.48 182.02 L 13.03 180.82 L 11.77 179.42 L 10.75 177.83 L 9.95 176.11 L 9.37 174.32 L 8.97 172.47 L 8.72 170.60 L 8.62 168.71 L 8.65 166.82 L 8.76 164.93 L 8.97 163.05 L 9.31 161.19 L 9.76 159.36 L 10.33 157.56 L 11.03 155.80 L 11.86 154.10 L 12.81 152.47 L 13.89 150.92 L 15.10 149.47 L 16.43 148.12 L 17.87 146.90 L 19.41 145.81 L 21.06 144.88 L 22.78 144.10 L 24.57 143.48 L 26.40 143.02 L 28.27 142.73 Z"></path><ellipse class="bird-toe" data-anchor="40.184 187.535" fill="#1d5c31" cx="165.93597" cy="170.54491" rx="3.8840909" ry="0.82091522" transform="matrix(0.93242696,0.36135851,-0.65187735,0.75832441,0,0)"></ellipse><ellipse class="bird-toe" data-anchor="40.184 187.535" fill="#1d5c31" cx="189.64407" cy="-24.811516" rx="3.1437743" ry="1.0536716" transform="matrix(0.08211358,0.99662297,-0.99901441,-0.04438722,0,0)"></ellipse><ellipse class="bird-toe" data-anchor="40.184 187.535" fill="#1d5c31" cx="-118.11807" cy="212.07419" rx="4.0173759" ry="0.78369194" transform="matrix(0.94692824,-0.32144506,0.70063768,0.71351723,0,0)"></ellipse><ellipse class="bird-toe" data-anchor="20.857 187.402" fill="#1d5c31" cx="191.05363" cy="-5.1148601" rx="3.9237621" ry="1.3386955" transform="matrix(0.0835902,0.99650023,-0.99904909,-0.04359927,0,0)"></ellipse><ellipse class="bird-toe" data-anchor="20.857 187.402" fill="#1d5c31" cx="-136.81755" cy="206.88751" rx="5.0949697" ry="0.98674309" transform="matrix(0.94865772,-0.31630452,0.70701144,0.70720212,0,0)"></ellipse></g><g transform="translate(0 1.8) rotate(-10 31 141)" fill="#1d5c31"><rect x="23.5" y="138" width="15" height="6" rx="2"></rect><path d="M 31 128 L 46 133 L 31 138 L 16 133 Z"></path><path d="M 31 133 Q 43 132 44.5 140" fill="none" stroke="#ffd54f" stroke-width="1.3" stroke-linecap="round"></path><circle cx="31" cy="133" r="1.2" fill="#ffd54f"></circle><circle cx="44.5" cy="141.5" r="1.8" fill="#ffd54f"></circle></g><g><ellipse fill="#ff8fa3" cx="20.5" cy="166.8" rx="2.9" ry="1.8"></ellipse></g><g><ellipse fill="#ff8fa3" cx="41.5" cy="166.8" rx="2.9" ry="1.8"></ellipse></g><ellipse fill="#ffffff" cx="31.00935" cy="158.27187" rx="11.1125" ry="11.112499"></ellipse><g style="transition:transform 0.12s ease-out;will-change:transform"><g class="bird-pupil"><g><path fill="#1d3b24" d="M 32.07 152.67 L 33.42 156.41 L 37.40 156.54 L 34.26 158.98 L 35.36 162.80 L 32.07 160.57 L 28.78 162.80 L 29.88 158.98 L 26.74 156.54 L 30.72 156.41 Z"></path></g></g></g><g clip-path="url(#_b63_0_-eye)"></g></g></g></g></g></svg>
<text x="478" y="301" text-anchor="middle" font-family="system-ui, sans-serif" font-size="10" font-weight="500" fill="#9ca3af">Melon</text>
<svg x="552" y="168" width="120" height="120" viewBox="0 0 120 120" preserveAspectRatio="xMidYMid slice" role="img" aria-label="Lio graduate — giant sleeping white bird, gold mortarboard, on near-black"><defs><linearGradient id="_b64_0_-bg" x1="0" y1="0" x2="0" y2="1"><stop offset="0" stop-color="#2b2b31"></stop><stop offset="1" stop-color="#0a0a0d"></stop></linearGradient><clipPath id="_b64_0_-tile"><rect width="120" height="120" rx="32"></rect></clipPath><clipPath id="_b64_0_-eye"><circle cx="31.00935" cy="158.27187" r="11.7"></circle></clipPath></defs><rect width="120" height="120" rx="32" fill="url(#_b64_0_-bg)"></rect><g clip-path="url(#_b64_0_-tile)"><g transform="translate(-3.9 -238.71) scale(1.9)"><g class="bird-emote"><g style="transform-box:fill-box;transform-origin:50% 100%"><g><ellipse class="bird-toe" data-anchor="20.857 187.402" fill="#f5f5f7" cx="153.34886" cy="179.45131" rx="4.9235578" ry="1.0323864" transform="matrix(0.93458067,0.35575125,-0.65858761,0.75250405,0,0)"></ellipse><ellipse fill="#f5f5f7" cx="20.664642" cy="183.11169" rx="2.0929158" ry="5.5265679"></ellipse><ellipse fill="#f5f5f7" cx="40.032341" cy="184.09807" rx="1.6472523" ry="4.4285111"></ellipse><path fill="#f5f5f7" d="M 37.74 156.50 L 38.69 167.46 L 60.14 154.56 Z"></path><path fill="#f5f5f7" d="M 36.79 145.55 L 60.14 154.56 L 37.74 156.50 Z"></path><path fill="#f5f5f7" d="M 30.15 142.59 L 32.04 142.59 L 33.93 142.71 L 35.80 142.98 L 37.63 143.46 L 39.37 144.17 L 40.98 145.16 L 42.40 146.41 L 43.59 147.87 L 44.57 149.48 L 45.38 151.19 L 46.06 152.96 L 46.63 154.76 L 47.12 156.58 L 47.55 158.43 L 47.93 160.28 L 48.27 162.14 L 48.59 164.00 L 48.89 165.87 L 49.12 167.75 L 49.25 169.63 L 49.25 171.52 L 49.09 173.41 L 48.74 175.26 L 48.18 177.07 L 47.40 178.79 L 46.33 180.35 L 45.05 181.73 L 43.55 182.88 L 41.91 183.81 L 40.16 184.53 L 38.34 185.05 L 36.49 185.40 L 34.61 185.61 L 32.72 185.71 L 30.83 185.72 L 28.94 185.68 L 27.05 185.59 L 25.16 185.44 L 23.29 185.21 L 21.43 184.88 L 19.59 184.43 L 17.80 183.81 L 16.09 183.02 L 14.48 182.02 L 13.03 180.82 L 11.77 179.42 L 10.75 177.83 L 9.95 176.11 L 9.37 174.32 L 8.97 172.47 L 8.72 170.60 L 8.62 168.71 L 8.65 166.82 L 8.76 164.93 L 8.97 163.05 L 9.31 161.19 L 9.76 159.36 L 10.33 157.56 L 11.03 155.80 L 11.86 154.10 L 12.81 152.47 L 13.89 150.92 L 15.10 149.47 L 16.43 148.12 L 17.87 146.90 L 19.41 145.81 L 21.06 144.88 L 22.78 144.10 L 24.57 143.48 L 26.40 143.02 L 28.27 142.73 Z"></path><ellipse class="bird-toe" data-anchor="40.184 187.535" fill="#f5f5f7" cx="165.93597" cy="170.54491" rx="3.8840909" ry="0.82091522" transform="matrix(0.93242696,0.36135851,-0.65187735,0.75832441,0,0)"></ellipse><ellipse class="bird-toe" data-anchor="40.184 187.535" fill="#f5f5f7" cx="189.64407" cy="-24.811516" rx="3.1437743" ry="1.0536716" transform="matrix(0.08211358,0.99662297,-0.99901441,-0.04438722,0,0)"></ellipse><ellipse class="bird-toe" data-anchor="40.184 187.535" fill="#f5f5f7" cx="-118.11807" cy="212.07419" rx="4.0173759" ry="0.78369194" transform="matrix(0.94692824,-0.32144506,0.70063768,0.71351723,0,0)"></ellipse><ellipse class="bird-toe" data-anchor="20.857 187.402" fill="#f5f5f7" cx="191.05363" cy="-5.1148601" rx="3.9237621" ry="1.3386955" transform="matrix(0.0835902,0.99650023,-0.99904909,-0.04359927,0,0)"></ellipse><ellipse class="bird-toe" data-anchor="20.857 187.402" fill="#f5f5f7" cx="-136.81755" cy="206.88751" rx="5.0949697" ry="0.98674309" transform="matrix(0.94865772,-0.31630452,0.70701144,0.70720212,0,0)"></ellipse></g><g transform="translate(0 1.8) rotate(-10 31 141)" fill="#c9a227"><rect x="23.5" y="138" width="15" height="6" rx="2"></rect><path d="M 31 128 L 46 133 L 31 138 L 16 133 Z"></path><path d="M 31 133 Q 43 132 44.5 140" fill="none" stroke="#ffd54f" stroke-width="1.3" stroke-linecap="round"></path><circle cx="31" cy="133" r="1.2" fill="#ffd54f"></circle><circle cx="44.5" cy="141.5" r="1.8" fill="#ffd54f"></circle></g><ellipse fill="#f5f5f7" cx="31.00935" cy="158.27187" rx="11.1125" ry="11.112499"></ellipse><g style="transition:transform 0.12s ease-out;will-change:transform"><g class="bird-pupil"><g><ellipse fill="#f5f5f7" cx="32.067684" cy="158.27187" rx="4.7624998" ry="4.7624993"></ellipse></g></g></g><g clip-path="url(#_b64_0_-eye)"></g><path d="M 24.5 156.5 Q 31 163.5 37.5 156.5" fill="none" stroke="#2b2b31" stroke-width="2.6" stroke-linecap="round"></path></g></g></g></g></svg>
<text x="612" y="301" text-anchor="middle" font-family="system-ui, sans-serif" font-size="10" font-weight="500" fill="#9ca3af">Void</text>
<svg x="686" y="168" width="120" height="120" viewBox="0 0 120 120" preserveAspectRatio="xMidYMid slice" role="img" aria-label="Lio graduate — tilted party bird: fangs, heart pupil, confetti cheeks, on pink-to-orange"><defs><linearGradient id="_b65_0_-bg" x1="0" y1="0" x2="0" y2="1"><stop offset="0" stop-color="#ff5fa2"></stop><stop offset="1" stop-color="#ff9d2e"></stop></linearGradient><clipPath id="_b65_0_-tile"><rect width="120" height="120" rx="32"></rect></clipPath><clipPath id="_b65_0_-eye"><circle cx="31.00935" cy="158.27187" r="11.7"></circle></clipPath></defs><rect width="120" height="120" rx="32" fill="url(#_b65_0_-bg)"></rect><g clip-path="url(#_b65_0_-tile)"><g transform="translate(20.55 -149.14) scale(1.3) rotate(7 31 160)"><g class="bird-emote"><g style="transform-box:fill-box;transform-origin:50% 100%"><g><ellipse class="bird-toe" data-anchor="20.857 187.402" fill="#ffffff" cx="153.34886" cy="179.45131" rx="4.9235578" ry="1.0323864" transform="matrix(0.93458067,0.35575125,-0.65858761,0.75250405,0,0)"></ellipse><ellipse fill="#ffffff" cx="20.664642" cy="183.11169" rx="2.0929158" ry="5.5265679"></ellipse><ellipse fill="#ffffff" cx="40.032341" cy="184.09807" rx="1.6472523" ry="4.4285111"></ellipse><path fill="#ffffff" d="M 37.74 156.50 L 38.69 167.46 L 60.14 154.56 Z"></path><path fill="#ffffff" d="M 36.79 145.55 L 60.14 154.56 L 37.74 156.50 Z"></path><path fill="#ffffff" d="M 45.56 163.33 L 49.50 160.96 L 50.62 167.29 Z M 50.49 160.37 L 54.09 158.20 L 54.87 163.57 Z"></path><path fill="#ffffff" d="M 30.15 142.59 L 32.04 142.59 L 33.93 142.71 L 35.80 142.98 L 37.63 143.46 L 39.37 144.17 L 40.98 145.16 L 42.40 146.41 L 43.59 147.87 L 44.57 149.48 L 45.38 151.19 L 46.06 152.96 L 46.63 154.76 L 47.12 156.58 L 47.55 158.43 L 47.93 160.28 L 48.27 162.14 L 48.59 164.00 L 48.89 165.87 L 49.12 167.75 L 49.25 169.63 L 49.25 171.52 L 49.09 173.41 L 48.74 175.26 L 48.18 177.07 L 47.40 178.79 L 46.33 180.35 L 45.05 181.73 L 43.55 182.88 L 41.91 183.81 L 40.16 184.53 L 38.34 185.05 L 36.49 185.40 L 34.61 185.61 L 32.72 185.71 L 30.83 185.72 L 28.94 185.68 L 27.05 185.59 L 25.16 185.44 L 23.29 185.21 L 21.43 184.88 L 19.59 184.43 L 17.80 183.81 L 16.09 183.02 L 14.48 182.02 L 13.03 180.82 L 11.77 179.42 L 10.75 177.83 L 9.95 176.11 L 9.37 174.32 L 8.97 172.47 L 8.72 170.60 L 8.62 168.71 L 8.65 166.82 L 8.76 164.93 L 8.97 163.05 L 9.31 161.19 L 9.76 159.36 L 10.33 157.56 L 11.03 155.80 L 11.86 154.10 L 12.81 152.47 L 13.89 150.92 L 15.10 149.47 L 16.43 148.12 L 17.87 146.90 L 19.41 145.81 L 21.06 144.88 L 22.78 144.10 L 24.57 143.48 L 26.40 143.02 L 28.27 142.73 Z"></path><ellipse class="bird-toe" data-anchor="40.184 187.535" fill="#ffffff" cx="165.93597" cy="170.54491" rx="3.8840909" ry="0.82091522" transform="matrix(0.93242696,0.36135851,-0.65187735,0.75832441,0,0)"></ellipse><ellipse class="bird-toe" data-anchor="40.184 187.535" fill="#ffffff" cx="189.64407" cy="-24.811516" rx="3.1437743" ry="1.0536716" transform="matrix(0.08211358,0.99662297,-0.99901441,-0.04438722,0,0)"></ellipse><ellipse class="bird-toe" data-anchor="40.184 187.535" fill="#ffffff" cx="-118.11807" cy="212.07419" rx="4.0173759" ry="0.78369194" transform="matrix(0.94692824,-0.32144506,0.70063768,0.71351723,0,0)"></ellipse><ellipse class="bird-toe" data-anchor="20.857 187.402" fill="#ffffff" cx="191.05363" cy="-5.1148601" rx="3.9237621" ry="1.3386955" transform="matrix(0.0835902,0.99650023,-0.99904909,-0.04359927,0,0)"></ellipse><ellipse class="bird-toe" data-anchor="20.857 187.402" fill="#ffffff" cx="-136.81755" cy="206.88751" rx="5.0949697" ry="0.98674309" transform="matrix(0.94865772,-0.31630452,0.70701144,0.70720212,0,0)"></ellipse></g><g transform="translate(0 1.8) rotate(-10 31 141)" fill="#5f27cd"><rect x="23.5" y="138" width="15" height="6" rx="2"></rect><path d="M 31 128 L 46 133 L 31 138 L 16 133 Z"></path><path d="M 31 133 Q 43 132 44.5 140" fill="none" stroke="#ffd54f" stroke-width="1.3" stroke-linecap="round"></path><circle cx="31" cy="133" r="1.2" fill="#ffd54f"></circle><circle cx="44.5" cy="141.5" r="1.8" fill="#ffd54f"></circle></g><g><ellipse fill="#ffd166" cx="20.5" cy="166.8" rx="2.9" ry="1.8"></ellipse></g><g><ellipse fill="#ffd166" cx="41.5" cy="166.8" rx="2.9" ry="1.8"></ellipse></g><ellipse fill="#ffffff" cx="31.00935" cy="158.27187" rx="11.1125" ry="11.112499"></ellipse><g style="transition:transform 0.12s ease-out;will-change:transform"><g class="bird-pupil"><g><path fill="#ff2e63" d="M 32.07 162.6 C 27.5 158.8 26.6 155.6 28.4 153.9 C 30.0 152.4 32.07 153.6 32.07 155.2 C 32.07 153.6 34.1 152.4 35.7 153.9 C 37.5 155.6 36.6 158.8 32.07 162.6 Z"></path></g></g></g><g clip-path="url(#_b65_0_-eye)"></g></g></g></g></g></svg>
<text x="746" y="301" text-anchor="middle" font-family="system-ui, sans-serif" font-size="10" font-weight="500" fill="#9ca3af">Party</text>
</svg>
